<svg version="1.1" xmlns="http://www.w3.org/2000/svg" width="196px" height="196px" viewBox="0 0 196 196"  preserveAspectRatio="xMinYMin meet"><rect width="100%" height="100%" fill="white" cx="0" cy="0"/><path d="M0,0l4,0 0,4 -4,0 0,-4z M4,0l4,0 0,4 -4,0 0,-4z M8,0l4,0 0,4 -4,0 0,-4z M12,0l4,0 0,4 -4,0 0,-4z M16,0l4,0 0,4 -4,0 0,-4z M20,0l4,0 0,4 -4,0 0,-4z M24,0l4,0 0,4 -4,0 0,-4z M32,0l4,0 0,4 -4,0 0,-4z M36,0l4,0 0,4 -4,0 0,-4z M40,0l4,0 0,4 -4,0 0,-4z M48,0l4,0 0,4 -4,0 0,-4z M52,0l4,0 0,4 -4,0 0,-4z M60,0l4,0 0,4 -4,0 0,-4z M64,0l4,0 0,4 -4,0 0,-4z M72,0l4,0 0,4 -4,0 0,-4z M84,0l4,0 0,4 -4,0 0,-4z M92,0l4,0 0,4 -4,0 0,-4z M112,0l4,0 0,4 -4,0 0,-4z M116,0l4,0 0,4 -4,0 0,-4z M124,0l4,0 0,4 -4,0 0,-4z M132,0l4,0 0,4 -4,0 0,-4z M136,0l4,0 0,4 -4,0 0,-4z M148,0l4,0 0,4 -4,0 0,-4z M160,0l4,0 0,4 -4,0 0,-4z M168,0l4,0 0,4 -4,0 0,-4z M172,0l4,0 0,4 -4,0 0,-4z M176,0l4,0 0,4 -4,0 0,-4z M180,0l4,0 0,4 -4,0 0,-4z M184,0l4,0 0,4 -4,0 0,-4z M188,0l4,0 0,4 -4,0 0,-4z M192,0l4,0 0,4 -4,0 0,-4z M0,4l4,0 0,4 -4,0 0,-4z M24,4l4,0 0,4 -4,0 0,-4z M44,4l4,0 0,4 -4,0 0,-4z M68,4l4,0 0,4 -4,0 0,-4z M76,4l4,0 0,4 -4,0 0,-4z M88,4l4,0 0,4 -4,0 0,-4z M92,4l4,0 0,4 -4,0 0,-4z M100,4l4,0 0,4 -4,0 0,-4z M104,4l4,0 0,4 -4,0 0,-4z M108,4l4,0 0,4 -4,0 0,-4z M112,4l4,0 0,4 -4,0 0,-4z M120,4l4,0 0,4 -4,0 0,-4z M140,4l4,0 0,4 -4,0 0,-4z M152,4l4,0 0,4 -4,0 0,-4z M156,4l4,0 0,4 -4,0 0,-4z M160,4l4,0 0,4 -4,0 0,-4z M168,4l4,0 0,4 -4,0 0,-4z M192,4l4,0 0,4 -4,0 0,-4z M0,8l4,0 0,4 -4,0 0,-4z M8,8l4,0 0,4 -4,0 0,-4z M12,8l4,0 0,4 -4,0 0,-4z M16,8l4,0 0,4 -4,0 0,-4z M24,8l4,0 0,4 -4,0 0,-4z M36,8l4,0 0,4 -4,0 0,-4z M44,8l4,0 0,4 -4,0 0,-4z M48,8l4,0 0,4 -4,0 0,-4z M60,8l4,0 0,4 -4,0 0,-4z M68,8l4,0 0,4 -4,0 0,-4z M72,8l4,0 0,4 -4,0 0,-4z M80,8l4,0 0,4 -4,0 0,-4z M92,8l4,0 0,4 -4,0 0,-4z M100,8l4,0 0,4 -4,0 0,-4z M104,8l4,0 0,4 -4,0 0,-4z M116,8l4,0 0,4 -4,0 0,-4z M128,8l4,0 0,4 -4,0 0,-4z M132,8l4,0 0,4 -4,0 0,-4z M140,8l4,0 0,4 -4,0 0,-4z M144,8l4,0 0,4 -4,0 0,-4z M156,8l4,0 0,4 -4,0 0,-4z M160,8l4,0 0,4 -4,0 0,-4z M168,8l4,0 0,4 -4,0 0,-4z M176,8l4,0 0,4 -4,0 0,-4z M180,8l4,0 0,4 -4,0 0,-4z M184,8l4,0 0,4 -4,0 0,-4z M192,8l4,0 0,4 -4,0 0,-4z M0,12l4,0 0,4 -4,0 0,-4z M8,12l4,0 0,4 -4,0 0,-4z M12,12l4,0 0,4 -4,0 0,-4z M16,12l4,0 0,4 -4,0 0,-4z M24,12l4,0 0,4 -4,0 0,-4z M32,12l4,0 0,4 -4,0 0,-4z M64,12l4,0 0,4 -4,0 0,-4z M68,12l4,0 0,4 -4,0 0,-4z M72,12l4,0 0,4 -4,0 0,-4z M96,12l4,0 0,4 -4,0 0,-4z M104,12l4,0 0,4 -4,0 0,-4z M112,12l4,0 0,4 -4,0 0,-4z M116,12l4,0 0,4 -4,0 0,-4z M120,12l4,0 0,4 -4,0 0,-4z M124,12l4,0 0,4 -4,0 0,-4z M132,12l4,0 0,4 -4,0 0,-4z M136,12l4,0 0,4 -4,0 0,-4z M140,12l4,0 0,4 -4,0 0,-4z M148,12l4,0 0,4 -4,0 0,-4z M156,12l4,0 0,4 -4,0 0,-4z M168,12l4,0 0,4 -4,0 0,-4z M176,12l4,0 0,4 -4,0 0,-4z M180,12l4,0 0,4 -4,0 0,-4z M184,12l4,0 0,4 -4,0 0,-4z M192,12l4,0 0,4 -4,0 0,-4z M0,16l4,0 0,4 -4,0 0,-4z M8,16l4,0 0,4 -4,0 0,-4z M12,16l4,0 0,4 -4,0 0,-4z M16,16l4,0 0,4 -4,0 0,-4z M24,16l4,0 0,4 -4,0 0,-4z M32,16l4,0 0,4 -4,0 0,-4z M36,16l4,0 0,4 -4,0 0,-4z M40,16l4,0 0,4 -4,0 0,-4z M48,16l4,0 0,4 -4,0 0,-4z M56,16l4,0 0,4 -4,0 0,-4z M64,16l4,0 0,4 -4,0 0,-4z M88,16l4,0 0,4 -4,0 0,-4z M92,16l4,0 0,4 -4,0 0,-4z M96,16l4,0 0,4 -4,0 0,-4z M100,16l4,0 0,4 -4,0 0,-4z M104,16l4,0 0,4 -4,0 0,-4z M108,16l4,0 0,4 -4,0 0,-4z M116,16l4,0 0,4 -4,0 0,-4z M120,16l4,0 0,4 -4,0 0,-4z M128,16l4,0 0,4 -4,0 0,-4z M132,16l4,0 0,4 -4,0 0,-4z M140,16l4,0 0,4 -4,0 0,-4z M144,16l4,0 0,4 -4,0 0,-4z M168,16l4,0 0,4 -4,0 0,-4z M176,16l4,0 0,4 -4,0 0,-4z M180,16l4,0 0,4 -4,0 0,-4z M184,16l4,0 0,4 -4,0 0,-4z M192,16l4,0 0,4 -4,0 0,-4z M0,20l4,0 0,4 -4,0 0,-4z M24,20l4,0 0,4 -4,0 0,-4z M32,20l4,0 0,4 -4,0 0,-4z M36,20l4,0 0,4 -4,0 0,-4z M40,20l4,0 0,4 -4,0 0,-4z M44,20l4,0 0,4 -4,0 0,-4z M52,20l4,0 0,4 -4,0 0,-4z M64,20l4,0 0,4 -4,0 0,-4z M68,20l4,0 0,4 -4,0 0,-4z M76,20l4,0 0,4 -4,0 0,-4z M84,20l4,0 0,4 -4,0 0,-4z M88,20l4,0 0,4 -4,0 0,-4z M104,20l4,0 0,4 -4,0 0,-4z M112,20l4,0 0,4 -4,0 0,-4z M124,20l4,0 0,4 -4,0 0,-4z M128,20l4,0 0,4 -4,0 0,-4z M132,20l4,0 0,4 -4,0 0,-4z M136,20l4,0 0,4 -4,0 0,-4z M140,20l4,0 0,4 -4,0 0,-4z M152,20l4,0 0,4 -4,0 0,-4z M168,20l4,0 0,4 -4,0 0,-4z M192,20l4,0 0,4 -4,0 0,-4z M0,24l4,0 0,4 -4,0 0,-4z M4,24l4,0 0,4 -4,0 0,-4z M8,24l4,0 0,4 -4,0 0,-4z M12,24l4,0 0,4 -4,0 0,-4z M16,24l4,0 0,4 -4,0 0,-4z M20,24l4,0 0,4 -4,0 0,-4z M24,24l4,0 0,4 -4,0 0,-4z M32,24l4,0 0,4 -4,0 0,-4z M40,24l4,0 0,4 -4,0 0,-4z M48,24l4,0 0,4 -4,0 0,-4z M56,24l4,0 0,4 -4,0 0,-4z M64,24l4,0 0,4 -4,0 0,-4z M72,24l4,0 0,4 -4,0 0,-4z M80,24l4,0 0,4 -4,0 0,-4z M88,24l4,0 0,4 -4,0 0,-4z M96,24l4,0 0,4 -4,0 0,-4z M104,24l4,0 0,4 -4,0 0,-4z M112,24l4,0 0,4 -4,0 0,-4z M120,24l4,0 0,4 -4,0 0,-4z M128,24l4,0 0,4 -4,0 0,-4z M136,24l4,0 0,4 -4,0 0,-4z M144,24l4,0 0,4 -4,0 0,-4z M152,24l4,0 0,4 -4,0 0,-4z M160,24l4,0 0,4 -4,0 0,-4z M168,24l4,0 0,4 -4,0 0,-4z M172,24l4,0 0,4 -4,0 0,-4z M176,24l4,0 0,4 -4,0 0,-4z M180,24l4,0 0,4 -4,0 0,-4z M184,24l4,0 0,4 -4,0 0,-4z M188,24l4,0 0,4 -4,0 0,-4z M192,24l4,0 0,4 -4,0 0,-4z M32,28l4,0 0,4 -4,0 0,-4z M36,28l4,0 0,4 -4,0 0,-4z M40,28l4,0 0,4 -4,0 0,-4z M44,28l4,0 0,4 -4,0 0,-4z M64,28l4,0 0,4 -4,0 0,-4z M68,28l4,0 0,4 -4,0 0,-4z M76,28l4,0 0,4 -4,0 0,-4z M80,28l4,0 0,4 -4,0 0,-4z M88,28l4,0 0,4 -4,0 0,-4z M104,28l4,0 0,4 -4,0 0,-4z M120,28l4,0 0,4 -4,0 0,-4z M128,28l4,0 0,4 -4,0 0,-4z M132,28l4,0 0,4 -4,0 0,-4z M140,28l4,0 0,4 -4,0 0,-4z M144,28l4,0 0,4 -4,0 0,-4z M148,28l4,0 0,4 -4,0 0,-4z M152,28l4,0 0,4 -4,0 0,-4z M156,28l4,0 0,4 -4,0 0,-4z M160,28l4,0 0,4 -4,0 0,-4z M0,32l4,0 0,4 -4,0 0,-4z M16,32l4,0 0,4 -4,0 0,-4z M24,32l4,0 0,4 -4,0 0,-4z M28,32l4,0 0,4 -4,0 0,-4z M32,32l4,0 0,4 -4,0 0,-4z M52,32l4,0 0,4 -4,0 0,-4z M56,32l4,0 0,4 -4,0 0,-4z M60,32l4,0 0,4 -4,0 0,-4z M68,32l4,0 0,4 -4,0 0,-4z M72,32l4,0 0,4 -4,0 0,-4z M76,32l4,0 0,4 -4,0 0,-4z M88,32l4,0 0,4 -4,0 0,-4z M92,32l4,0 0,4 -4,0 0,-4z M96,32l4,0 0,4 -4,0 0,-4z M100,32l4,0 0,4 -4,0 0,-4z M104,32l4,0 0,4 -4,0 0,-4z M108,32l4,0 0,4 -4,0 0,-4z M116,32l4,0 0,4 -4,0 0,-4z M120,32l4,0 0,4 -4,0 0,-4z M124,32l4,0 0,4 -4,0 0,-4z M128,32l4,0 0,4 -4,0 0,-4z M132,32l4,0 0,4 -4,0 0,-4z M140,32l4,0 0,4 -4,0 0,-4z M144,32l4,0 0,4 -4,0 0,-4z M152,32l4,0 0,4 -4,0 0,-4z M156,32l4,0 0,4 -4,0 0,-4z M160,32l4,0 0,4 -4,0 0,-4z M164,32l4,0 0,4 -4,0 0,-4z M168,32l4,0 0,4 -4,0 0,-4z M172,32l4,0 0,4 -4,0 0,-4z M176,32l4,0 0,4 -4,0 0,-4z M180,32l4,0 0,4 -4,0 0,-4z M192,32l4,0 0,4 -4,0 0,-4z M4,36l4,0 0,4 -4,0 0,-4z M16,36l4,0 0,4 -4,0 0,-4z M20,36l4,0 0,4 -4,0 0,-4z M28,36l4,0 0,4 -4,0 0,-4z M32,36l4,0 0,4 -4,0 0,-4z M36,36l4,0 0,4 -4,0 0,-4z M40,36l4,0 0,4 -4,0 0,-4z M56,36l4,0 0,4 -4,0 0,-4z M64,36l4,0 0,4 -4,0 0,-4z M68,36l4,0 0,4 -4,0 0,-4z M80,36l4,0 0,4 -4,0 0,-4z M88,36l4,0 0,4 -4,0 0,-4z M104,36l4,0 0,4 -4,0 0,-4z M108,36l4,0 0,4 -4,0 0,-4z M112,36l4,0 0,4 -4,0 0,-4z M116,36l4,0 0,4 -4,0 0,-4z M120,36l4,0 0,4 -4,0 0,-4z M128,36l4,0 0,4 -4,0 0,-4z M144,36l4,0 0,4 -4,0 0,-4z M148,36l4,0 0,4 -4,0 0,-4z M152,36l4,0 0,4 -4,0 0,-4z M156,36l4,0 0,4 -4,0 0,-4z M164,36l4,0 0,4 -4,0 0,-4z M168,36l4,0 0,4 -4,0 0,-4z M176,36l4,0 0,4 -4,0 0,-4z M180,36l4,0 0,4 -4,0 0,-4z M184,36l4,0 0,4 -4,0 0,-4z M4,40l4,0 0,4 -4,0 0,-4z M8,40l4,0 0,4 -4,0 0,-4z M12,40l4,0 0,4 -4,0 0,-4z M20,40l4,0 0,4 -4,0 0,-4z M24,40l4,0 0,4 -4,0 0,-4z M28,40l4,0 0,4 -4,0 0,-4z M32,40l4,0 0,4 -4,0 0,-4z M36,40l4,0 0,4 -4,0 0,-4z M40,40l4,0 0,4 -4,0 0,-4z M64,40l4,0 0,4 -4,0 0,-4z M68,40l4,0 0,4 -4,0 0,-4z M88,40l4,0 0,4 -4,0 0,-4z M96,40l4,0 0,4 -4,0 0,-4z M100,40l4,0 0,4 -4,0 0,-4z M104,40l4,0 0,4 -4,0 0,-4z M116,40l4,0 0,4 -4,0 0,-4z M128,40l4,0 0,4 -4,0 0,-4z M132,40l4,0 0,4 -4,0 0,-4z M140,40l4,0 0,4 -4,0 0,-4z M144,40l4,0 0,4 -4,0 0,-4z M152,40l4,0 0,4 -4,0 0,-4z M156,40l4,0 0,4 -4,0 0,-4z M164,40l4,0 0,4 -4,0 0,-4z M168,40l4,0 0,4 -4,0 0,-4z M176,40l4,0 0,4 -4,0 0,-4z M184,40l4,0 0,4 -4,0 0,-4z M188,40l4,0 0,4 -4,0 0,-4z M0,44l4,0 0,4 -4,0 0,-4z M4,44l4,0 0,4 -4,0 0,-4z M28,44l4,0 0,4 -4,0 0,-4z M56,44l4,0 0,4 -4,0 0,-4z M72,44l4,0 0,4 -4,0 0,-4z M76,44l4,0 0,4 -4,0 0,-4z M88,44l4,0 0,4 -4,0 0,-4z M92,44l4,0 0,4 -4,0 0,-4z M96,44l4,0 0,4 -4,0 0,-4z M108,44l4,0 0,4 -4,0 0,-4z M116,44l4,0 0,4 -4,0 0,-4z M124,44l4,0 0,4 -4,0 0,-4z M128,44l4,0 0,4 -4,0 0,-4z M140,44l4,0 0,4 -4,0 0,-4z M144,44l4,0 0,4 -4,0 0,-4z M164,44l4,0 0,4 -4,0 0,-4z M168,44l4,0 0,4 -4,0 0,-4z M172,44l4,0 0,4 -4,0 0,-4z M176,44l4,0 0,4 -4,0 0,-4z M184,44l4,0 0,4 -4,0 0,-4z M188,44l4,0 0,4 -4,0 0,-4z M192,44l4,0 0,4 -4,0 0,-4z M0,48l4,0 0,4 -4,0 0,-4z M8,48l4,0 0,4 -4,0 0,-4z M16,48l4,0 0,4 -4,0 0,-4z M20,48l4,0 0,4 -4,0 0,-4z M24,48l4,0 0,4 -4,0 0,-4z M28,48l4,0 0,4 -4,0 0,-4z M36,48l4,0 0,4 -4,0 0,-4z M40,48l4,0 0,4 -4,0 0,-4z M48,48l4,0 0,4 -4,0 0,-4z M56,48l4,0 0,4 -4,0 0,-4z M60,48l4,0 0,4 -4,0 0,-4z M72,48l4,0 0,4 -4,0 0,-4z M80,48l4,0 0,4 -4,0 0,-4z M88,48l4,0 0,4 -4,0 0,-4z M92,48l4,0 0,4 -4,0 0,-4z M96,48l4,0 0,4 -4,0 0,-4z M100,48l4,0 0,4 -4,0 0,-4z M108,48l4,0 0,4 -4,0 0,-4z M128,48l4,0 0,4 -4,0 0,-4z M136,48l4,0 0,4 -4,0 0,-4z M140,48l4,0 0,4 -4,0 0,-4z M144,48l4,0 0,4 -4,0 0,-4z M148,48l4,0 0,4 -4,0 0,-4z M152,48l4,0 0,4 -4,0 0,-4z M156,48l4,0 0,4 -4,0 0,-4z M160,48l4,0 0,4 -4,0 0,-4z M176,48l4,0 0,4 -4,0 0,-4z M184,48l4,0 0,4 -4,0 0,-4z M188,48l4,0 0,4 -4,0 0,-4z M0,52l4,0 0,4 -4,0 0,-4z M4,52l4,0 0,4 -4,0 0,-4z M8,52l4,0 0,4 -4,0 0,-4z M16,52l4,0 0,4 -4,0 0,-4z M20,52l4,0 0,4 -4,0 0,-4z M28,52l4,0 0,4 -4,0 0,-4z M36,52l4,0 0,4 -4,0 0,-4z M44,52l4,0 0,4 -4,0 0,-4z M48,52l4,0 0,4 -4,0 0,-4z M52,52l4,0 0,4 -4,0 0,-4z M56,52l4,0 0,4 -4,0 0,-4z M72,52l4,0 0,4 -4,0 0,-4z M76,52l4,0 0,4 -4,0 0,-4z M80,52l4,0 0,4 -4,0 0,-4z M96,52l4,0 0,4 -4,0 0,-4z M104,52l4,0 0,4 -4,0 0,-4z M108,52l4,0 0,4 -4,0 0,-4z M116,52l4,0 0,4 -4,0 0,-4z M120,52l4,0 0,4 -4,0 0,-4z M128,52l4,0 0,4 -4,0 0,-4z M132,52l4,0 0,4 -4,0 0,-4z M144,52l4,0 0,4 -4,0 0,-4z M152,52l4,0 0,4 -4,0 0,-4z M156,52l4,0 0,4 -4,0 0,-4z M168,52l4,0 0,4 -4,0 0,-4z M176,52l4,0 0,4 -4,0 0,-4z M180,52l4,0 0,4 -4,0 0,-4z M184,52l4,0 0,4 -4,0 0,-4z M188,52l4,0 0,4 -4,0 0,-4z M4,56l4,0 0,4 -4,0 0,-4z M8,56l4,0 0,4 -4,0 0,-4z M16,56l4,0 0,4 -4,0 0,-4z M24,56l4,0 0,4 -4,0 0,-4z M32,56l4,0 0,4 -4,0 0,-4z M56,56l4,0 0,4 -4,0 0,-4z M76,56l4,0 0,4 -4,0 0,-4z M88,56l4,0 0,4 -4,0 0,-4z M104,56l4,0 0,4 -4,0 0,-4z M112,56l4,0 0,4 -4,0 0,-4z M120,56l4,0 0,4 -4,0 0,-4z M124,56l4,0 0,4 -4,0 0,-4z M132,56l4,0 0,4 -4,0 0,-4z M148,56l4,0 0,4 -4,0 0,-4z M152,56l4,0 0,4 -4,0 0,-4z M156,56l4,0 0,4 -4,0 0,-4z M160,56l4,0 0,4 -4,0 0,-4z M164,56l4,0 0,4 -4,0 0,-4z M168,56l4,0 0,4 -4,0 0,-4z M172,56l4,0 0,4 -4,0 0,-4z M4,60l4,0 0,4 -4,0 0,-4z M8,60l4,0 0,4 -4,0 0,-4z M12,60l4,0 0,4 -4,0 0,-4z M16,60l4,0 0,4 -4,0 0,-4z M48,60l4,0 0,4 -4,0 0,-4z M68,60l4,0 0,4 -4,0 0,-4z M84,60l4,0 0,4 -4,0 0,-4z M88,60l4,0 0,4 -4,0 0,-4z M92,60l4,0 0,4 -4,0 0,-4z M96,60l4,0 0,4 -4,0 0,-4z M104,60l4,0 0,4 -4,0 0,-4z M112,60l4,0 0,4 -4,0 0,-4z M116,60l4,0 0,4 -4,0 0,-4z M124,60l4,0 0,4 -4,0 0,-4z M132,60l4,0 0,4 -4,0 0,-4z M136,60l4,0 0,4 -4,0 0,-4z M140,60l4,0 0,4 -4,0 0,-4z M156,60l4,0 0,4 -4,0 0,-4z M160,60l4,0 0,4 -4,0 0,-4z M172,60l4,0 0,4 -4,0 0,-4z M176,60l4,0 0,4 -4,0 0,-4z M184,60l4,0 0,4 -4,0 0,-4z M188,60l4,0 0,4 -4,0 0,-4z M0,64l4,0 0,4 -4,0 0,-4z M8,64l4,0 0,4 -4,0 0,-4z M16,64l4,0 0,4 -4,0 0,-4z M20,64l4,0 0,4 -4,0 0,-4z M24,64l4,0 0,4 -4,0 0,-4z M28,64l4,0 0,4 -4,0 0,-4z M40,64l4,0 0,4 -4,0 0,-4z M52,64l4,0 0,4 -4,0 0,-4z M56,64l4,0 0,4 -4,0 0,-4z M60,64l4,0 0,4 -4,0 0,-4z M68,64l4,0 0,4 -4,0 0,-4z M72,64l4,0 0,4 -4,0 0,-4z M84,64l4,0 0,4 -4,0 0,-4z M96,64l4,0 0,4 -4,0 0,-4z M100,64l4,0 0,4 -4,0 0,-4z M104,64l4,0 0,4 -4,0 0,-4z M116,64l4,0 0,4 -4,0 0,-4z M120,64l4,0 0,4 -4,0 0,-4z M124,64l4,0 0,4 -4,0 0,-4z M128,64l4,0 0,4 -4,0 0,-4z M132,64l4,0 0,4 -4,0 0,-4z M144,64l4,0 0,4 -4,0 0,-4z M160,64l4,0 0,4 -4,0 0,-4z M168,64l4,0 0,4 -4,0 0,-4z M176,64l4,0 0,4 -4,0 0,-4z M184,64l4,0 0,4 -4,0 0,-4z M0,68l4,0 0,4 -4,0 0,-4z M40,68l4,0 0,4 -4,0 0,-4z M44,68l4,0 0,4 -4,0 0,-4z M52,68l4,0 0,4 -4,0 0,-4z M60,68l4,0 0,4 -4,0 0,-4z M68,68l4,0 0,4 -4,0 0,-4z M72,68l4,0 0,4 -4,0 0,-4z M80,68l4,0 0,4 -4,0 0,-4z M84,68l4,0 0,4 -4,0 0,-4z M88,68l4,0 0,4 -4,0 0,-4z M92,68l4,0 0,4 -4,0 0,-4z M104,68l4,0 0,4 -4,0 0,-4z M108,68l4,0 0,4 -4,0 0,-4z M120,68l4,0 0,4 -4,0 0,-4z M128,68l4,0 0,4 -4,0 0,-4z M140,68l4,0 0,4 -4,0 0,-4z M144,68l4,0 0,4 -4,0 0,-4z M152,68l4,0 0,4 -4,0 0,-4z M156,68l4,0 0,4 -4,0 0,-4z M164,68l4,0 0,4 -4,0 0,-4z M168,68l4,0 0,4 -4,0 0,-4z M176,68l4,0 0,4 -4,0 0,-4z M180,68l4,0 0,4 -4,0 0,-4z M4,72l4,0 0,4 -4,0 0,-4z M8,72l4,0 0,4 -4,0 0,-4z M16,72l4,0 0,4 -4,0 0,-4z M20,72l4,0 0,4 -4,0 0,-4z M24,72l4,0 0,4 -4,0 0,-4z M28,72l4,0 0,4 -4,0 0,-4z M48,72l4,0 0,4 -4,0 0,-4z M56,72l4,0 0,4 -4,0 0,-4z M76,72l4,0 0,4 -4,0 0,-4z M80,72l4,0 0,4 -4,0 0,-4z M88,72l4,0 0,4 -4,0 0,-4z M92,72l4,0 0,4 -4,0 0,-4z M104,72l4,0 0,4 -4,0 0,-4z M108,72l4,0 0,4 -4,0 0,-4z M112,72l4,0 0,4 -4,0 0,-4z M136,72l4,0 0,4 -4,0 0,-4z M140,72l4,0 0,4 -4,0 0,-4z M144,72l4,0 0,4 -4,0 0,-4z M148,72l4,0 0,4 -4,0 0,-4z M152,72l4,0 0,4 -4,0 0,-4z M156,72l4,0 0,4 -4,0 0,-4z M164,72l4,0 0,4 -4,0 0,-4z M168,72l4,0 0,4 -4,0 0,-4z M180,72l4,0 0,4 -4,0 0,-4z M184,72l4,0 0,4 -4,0 0,-4z M188,72l4,0 0,4 -4,0 0,-4z M0,76l4,0 0,4 -4,0 0,-4z M4,76l4,0 0,4 -4,0 0,-4z M8,76l4,0 0,4 -4,0 0,-4z M20,76l4,0 0,4 -4,0 0,-4z M28,76l4,0 0,4 -4,0 0,-4z M32,76l4,0 0,4 -4,0 0,-4z M36,76l4,0 0,4 -4,0 0,-4z M40,76l4,0 0,4 -4,0 0,-4z M44,76l4,0 0,4 -4,0 0,-4z M52,76l4,0 0,4 -4,0 0,-4z M56,76l4,0 0,4 -4,0 0,-4z M72,76l4,0 0,4 -4,0 0,-4z M84,76l4,0 0,4 -4,0 0,-4z M88,76l4,0 0,4 -4,0 0,-4z M92,76l4,0 0,4 -4,0 0,-4z M96,76l4,0 0,4 -4,0 0,-4z M108,76l4,0 0,4 -4,0 0,-4z M116,76l4,0 0,4 -4,0 0,-4z M128,76l4,0 0,4 -4,0 0,-4z M136,76l4,0 0,4 -4,0 0,-4z M140,76l4,0 0,4 -4,0 0,-4z M144,76l4,0 0,4 -4,0 0,-4z M148,76l4,0 0,4 -4,0 0,-4z M156,76l4,0 0,4 -4,0 0,-4z M160,76l4,0 0,4 -4,0 0,-4z M164,76l4,0 0,4 -4,0 0,-4z M172,76l4,0 0,4 -4,0 0,-4z M176,76l4,0 0,4 -4,0 0,-4z M184,76l4,0 0,4 -4,0 0,-4z M0,80l4,0 0,4 -4,0 0,-4z M8,80l4,0 0,4 -4,0 0,-4z M12,80l4,0 0,4 -4,0 0,-4z M20,80l4,0 0,4 -4,0 0,-4z M24,80l4,0 0,4 -4,0 0,-4z M28,80l4,0 0,4 -4,0 0,-4z M40,80l4,0 0,4 -4,0 0,-4z M44,80l4,0 0,4 -4,0 0,-4z M60,80l4,0 0,4 -4,0 0,-4z M68,80l4,0 0,4 -4,0 0,-4z M72,80l4,0 0,4 -4,0 0,-4z M88,80l4,0 0,4 -4,0 0,-4z M92,80l4,0 0,4 -4,0 0,-4z M96,80l4,0 0,4 -4,0 0,-4z M104,80l4,0 0,4 -4,0 0,-4z M108,80l4,0 0,4 -4,0 0,-4z M116,80l4,0 0,4 -4,0 0,-4z M128,80l4,0 0,4 -4,0 0,-4z M132,80l4,0 0,4 -4,0 0,-4z M140,80l4,0 0,4 -4,0 0,-4z M144,80l4,0 0,4 -4,0 0,-4z M160,80l4,0 0,4 -4,0 0,-4z M172,80l4,0 0,4 -4,0 0,-4z M176,80l4,0 0,4 -4,0 0,-4z M180,80l4,0 0,4 -4,0 0,-4z M184,80l4,0 0,4 -4,0 0,-4z M188,80l4,0 0,4 -4,0 0,-4z M192,80l4,0 0,4 -4,0 0,-4z M8,84l4,0 0,4 -4,0 0,-4z M12,84l4,0 0,4 -4,0 0,-4z M16,84l4,0 0,4 -4,0 0,-4z M32,84l4,0 0,4 -4,0 0,-4z M40,84l4,0 0,4 -4,0 0,-4z M44,84l4,0 0,4 -4,0 0,-4z M60,84l4,0 0,4 -4,0 0,-4z M64,84l4,0 0,4 -4,0 0,-4z M80,84l4,0 0,4 -4,0 0,-4z M88,84l4,0 0,4 -4,0 0,-4z M92,84l4,0 0,4 -4,0 0,-4z M100,84l4,0 0,4 -4,0 0,-4z M104,84l4,0 0,4 -4,0 0,-4z M116,84l4,0 0,4 -4,0 0,-4z M120,84l4,0 0,4 -4,0 0,-4z M124,84l4,0 0,4 -4,0 0,-4z M128,84l4,0 0,4 -4,0 0,-4z M132,84l4,0 0,4 -4,0 0,-4z M140,84l4,0 0,4 -4,0 0,-4z M148,84l4,0 0,4 -4,0 0,-4z M152,84l4,0 0,4 -4,0 0,-4z M156,84l4,0 0,4 -4,0 0,-4z M168,84l4,0 0,4 -4,0 0,-4z M180,84l4,0 0,4 -4,0 0,-4z M184,84l4,0 0,4 -4,0 0,-4z M12,88l4,0 0,4 -4,0 0,-4z M16,88l4,0 0,4 -4,0 0,-4z M20,88l4,0 0,4 -4,0 0,-4z M24,88l4,0 0,4 -4,0 0,-4z M28,88l4,0 0,4 -4,0 0,-4z M32,88l4,0 0,4 -4,0 0,-4z M36,88l4,0 0,4 -4,0 0,-4z M40,88l4,0 0,4 -4,0 0,-4z M52,88l4,0 0,4 -4,0 0,-4z M64,88l4,0 0,4 -4,0 0,-4z M84,88l4,0 0,4 -4,0 0,-4z M88,88l4,0 0,4 -4,0 0,-4z M92,88l4,0 0,4 -4,0 0,-4z M96,88l4,0 0,4 -4,0 0,-4z M100,88l4,0 0,4 -4,0 0,-4z M104,88l4,0 0,4 -4,0 0,-4z M108,88l4,0 0,4 -4,0 0,-4z M112,88l4,0 0,4 -4,0 0,-4z M116,88l4,0 0,4 -4,0 0,-4z M120,88l4,0 0,4 -4,0 0,-4z M124,88l4,0 0,4 -4,0 0,-4z M128,88l4,0 0,4 -4,0 0,-4z M132,88l4,0 0,4 -4,0 0,-4z M144,88l4,0 0,4 -4,0 0,-4z M152,88l4,0 0,4 -4,0 0,-4z M156,88l4,0 0,4 -4,0 0,-4z M160,88l4,0 0,4 -4,0 0,-4z M164,88l4,0 0,4 -4,0 0,-4z M168,88l4,0 0,4 -4,0 0,-4z M172,88l4,0 0,4 -4,0 0,-4z M176,88l4,0 0,4 -4,0 0,-4z M184,88l4,0 0,4 -4,0 0,-4z M0,92l4,0 0,4 -4,0 0,-4z M4,92l4,0 0,4 -4,0 0,-4z M12,92l4,0 0,4 -4,0 0,-4z M16,92l4,0 0,4 -4,0 0,-4z M32,92l4,0 0,4 -4,0 0,-4z M36,92l4,0 0,4 -4,0 0,-4z M48,92l4,0 0,4 -4,0 0,-4z M56,92l4,0 0,4 -4,0 0,-4z M68,92l4,0 0,4 -4,0 0,-4z M76,92l4,0 0,4 -4,0 0,-4z M84,92l4,0 0,4 -4,0 0,-4z M88,92l4,0 0,4 -4,0 0,-4z M104,92l4,0 0,4 -4,0 0,-4z M108,92l4,0 0,4 -4,0 0,-4z M116,92l4,0 0,4 -4,0 0,-4z M128,92l4,0 0,4 -4,0 0,-4z M144,92l4,0 0,4 -4,0 0,-4z M148,92l4,0 0,4 -4,0 0,-4z M152,92l4,0 0,4 -4,0 0,-4z M160,92l4,0 0,4 -4,0 0,-4z M176,92l4,0 0,4 -4,0 0,-4z M184,92l4,0 0,4 -4,0 0,-4z M192,92l4,0 0,4 -4,0 0,-4z M0,96l4,0 0,4 -4,0 0,-4z M4,96l4,0 0,4 -4,0 0,-4z M16,96l4,0 0,4 -4,0 0,-4z M24,96l4,0 0,4 -4,0 0,-4z M32,96l4,0 0,4 -4,0 0,-4z M36,96l4,0 0,4 -4,0 0,-4z M40,96l4,0 0,4 -4,0 0,-4z M44,96l4,0 0,4 -4,0 0,-4z M56,96l4,0 0,4 -4,0 0,-4z M64,96l4,0 0,4 -4,0 0,-4z M68,96l4,0 0,4 -4,0 0,-4z M72,96l4,0 0,4 -4,0 0,-4z M76,96l4,0 0,4 -4,0 0,-4z M88,96l4,0 0,4 -4,0 0,-4z M96,96l4,0 0,4 -4,0 0,-4z M104,96l4,0 0,4 -4,0 0,-4z M116,96l4,0 0,4 -4,0 0,-4z M120,96l4,0 0,4 -4,0 0,-4z M128,96l4,0 0,4 -4,0 0,-4z M132,96l4,0 0,4 -4,0 0,-4z M140,96l4,0 0,4 -4,0 0,-4z M144,96l4,0 0,4 -4,0 0,-4z M160,96l4,0 0,4 -4,0 0,-4z M168,96l4,0 0,4 -4,0 0,-4z M176,96l4,0 0,4 -4,0 0,-4z M180,96l4,0 0,4 -4,0 0,-4z M184,96l4,0 0,4 -4,0 0,-4z M188,96l4,0 0,4 -4,0 0,-4z M0,100l4,0 0,4 -4,0 0,-4z M16,100l4,0 0,4 -4,0 0,-4z M32,100l4,0 0,4 -4,0 0,-4z M36,100l4,0 0,4 -4,0 0,-4z M40,100l4,0 0,4 -4,0 0,-4z M48,100l4,0 0,4 -4,0 0,-4z M52,100l4,0 0,4 -4,0 0,-4z M60,100l4,0 0,4 -4,0 0,-4z M80,100l4,0 0,4 -4,0 0,-4z M84,100l4,0 0,4 -4,0 0,-4z M88,100l4,0 0,4 -4,0 0,-4z M104,100l4,0 0,4 -4,0 0,-4z M108,100l4,0 0,4 -4,0 0,-4z M112,100l4,0 0,4 -4,0 0,-4z M116,100l4,0 0,4 -4,0 0,-4z M120,100l4,0 0,4 -4,0 0,-4z M124,100l4,0 0,4 -4,0 0,-4z M132,100l4,0 0,4 -4,0 0,-4z M140,100l4,0 0,4 -4,0 0,-4z M144,100l4,0 0,4 -4,0 0,-4z M152,100l4,0 0,4 -4,0 0,-4z M160,100l4,0 0,4 -4,0 0,-4z M176,100l4,0 0,4 -4,0 0,-4z M0,104l4,0 0,4 -4,0 0,-4z M12,104l4,0 0,4 -4,0 0,-4z M16,104l4,0 0,4 -4,0 0,-4z M20,104l4,0 0,4 -4,0 0,-4z M24,104l4,0 0,4 -4,0 0,-4z M28,104l4,0 0,4 -4,0 0,-4z M32,104l4,0 0,4 -4,0 0,-4z M40,104l4,0 0,4 -4,0 0,-4z M52,104l4,0 0,4 -4,0 0,-4z M56,104l4,0 0,4 -4,0 0,-4z M60,104l4,0 0,4 -4,0 0,-4z M64,104l4,0 0,4 -4,0 0,-4z M68,104l4,0 0,4 -4,0 0,-4z M88,104l4,0 0,4 -4,0 0,-4z M92,104l4,0 0,4 -4,0 0,-4z M96,104l4,0 0,4 -4,0 0,-4z M100,104l4,0 0,4 -4,0 0,-4z M104,104l4,0 0,4 -4,0 0,-4z M108,104l4,0 0,4 -4,0 0,-4z M112,104l4,0 0,4 -4,0 0,-4z M120,104l4,0 0,4 -4,0 0,-4z M124,104l4,0 0,4 -4,0 0,-4z M128,104l4,0 0,4 -4,0 0,-4z M132,104l4,0 0,4 -4,0 0,-4z M136,104l4,0 0,4 -4,0 0,-4z M140,104l4,0 0,4 -4,0 0,-4z M144,104l4,0 0,4 -4,0 0,-4z M148,104l4,0 0,4 -4,0 0,-4z M156,104l4,0 0,4 -4,0 0,-4z M160,104l4,0 0,4 -4,0 0,-4z M164,104l4,0 0,4 -4,0 0,-4z M168,104l4,0 0,4 -4,0 0,-4z M172,104l4,0 0,4 -4,0 0,-4z M176,104l4,0 0,4 -4,0 0,-4z M184,104l4,0 0,4 -4,0 0,-4z M12,108l4,0 0,4 -4,0 0,-4z M16,108l4,0 0,4 -4,0 0,-4z M28,108l4,0 0,4 -4,0 0,-4z M32,108l4,0 0,4 -4,0 0,-4z M52,108l4,0 0,4 -4,0 0,-4z M64,108l4,0 0,4 -4,0 0,-4z M80,108l4,0 0,4 -4,0 0,-4z M84,108l4,0 0,4 -4,0 0,-4z M88,108l4,0 0,4 -4,0 0,-4z M92,108l4,0 0,4 -4,0 0,-4z M100,108l4,0 0,4 -4,0 0,-4z M108,108l4,0 0,4 -4,0 0,-4z M116,108l4,0 0,4 -4,0 0,-4z M128,108l4,0 0,4 -4,0 0,-4z M132,108l4,0 0,4 -4,0 0,-4z M144,108l4,0 0,4 -4,0 0,-4z M160,108l4,0 0,4 -4,0 0,-4z M164,108l4,0 0,4 -4,0 0,-4z M168,108l4,0 0,4 -4,0 0,-4z M184,108l4,0 0,4 -4,0 0,-4z M4,112l4,0 0,4 -4,0 0,-4z M16,112l4,0 0,4 -4,0 0,-4z M24,112l4,0 0,4 -4,0 0,-4z M28,112l4,0 0,4 -4,0 0,-4z M32,112l4,0 0,4 -4,0 0,-4z M40,112l4,0 0,4 -4,0 0,-4z M48,112l4,0 0,4 -4,0 0,-4z M68,112l4,0 0,4 -4,0 0,-4z M72,112l4,0 0,4 -4,0 0,-4z M76,112l4,0 0,4 -4,0 0,-4z M80,112l4,0 0,4 -4,0 0,-4z M84,112l4,0 0,4 -4,0 0,-4z M92,112l4,0 0,4 -4,0 0,-4z M96,112l4,0 0,4 -4,0 0,-4z M104,112l4,0 0,4 -4,0 0,-4z M108,112l4,0 0,4 -4,0 0,-4z M116,112l4,0 0,4 -4,0 0,-4z M128,112l4,0 0,4 -4,0 0,-4z M132,112l4,0 0,4 -4,0 0,-4z M140,112l4,0 0,4 -4,0 0,-4z M144,112l4,0 0,4 -4,0 0,-4z M160,112l4,0 0,4 -4,0 0,-4z M164,112l4,0 0,4 -4,0 0,-4z M172,112l4,0 0,4 -4,0 0,-4z M180,112l4,0 0,4 -4,0 0,-4z M184,112l4,0 0,4 -4,0 0,-4z M192,112l4,0 0,4 -4,0 0,-4z M8,116l4,0 0,4 -4,0 0,-4z M12,116l4,0 0,4 -4,0 0,-4z M16,116l4,0 0,4 -4,0 0,-4z M20,116l4,0 0,4 -4,0 0,-4z M28,116l4,0 0,4 -4,0 0,-4z M32,116l4,0 0,4 -4,0 0,-4z M36,116l4,0 0,4 -4,0 0,-4z M40,116l4,0 0,4 -4,0 0,-4z M44,116l4,0 0,4 -4,0 0,-4z M48,116l4,0 0,4 -4,0 0,-4z M52,116l4,0 0,4 -4,0 0,-4z M56,116l4,0 0,4 -4,0 0,-4z M72,116l4,0 0,4 -4,0 0,-4z M88,116l4,0 0,4 -4,0 0,-4z M96,116l4,0 0,4 -4,0 0,-4z M100,116l4,0 0,4 -4,0 0,-4z M104,116l4,0 0,4 -4,0 0,-4z M120,116l4,0 0,4 -4,0 0,-4z M132,116l4,0 0,4 -4,0 0,-4z M140,116l4,0 0,4 -4,0 0,-4z M144,116l4,0 0,4 -4,0 0,-4z M148,116l4,0 0,4 -4,0 0,-4z M152,116l4,0 0,4 -4,0 0,-4z M156,116l4,0 0,4 -4,0 0,-4z M160,116l4,0 0,4 -4,0 0,-4z M176,116l4,0 0,4 -4,0 0,-4z M0,120l4,0 0,4 -4,0 0,-4z M16,120l4,0 0,4 -4,0 0,-4z M24,120l4,0 0,4 -4,0 0,-4z M32,120l4,0 0,4 -4,0 0,-4z M36,120l4,0 0,4 -4,0 0,-4z M44,120l4,0 0,4 -4,0 0,-4z M52,120l4,0 0,4 -4,0 0,-4z M60,120l4,0 0,4 -4,0 0,-4z M64,120l4,0 0,4 -4,0 0,-4z M68,120l4,0 0,4 -4,0 0,-4z M80,120l4,0 0,4 -4,0 0,-4z M112,120l4,0 0,4 -4,0 0,-4z M116,120l4,0 0,4 -4,0 0,-4z M120,120l4,0 0,4 -4,0 0,-4z M140,120l4,0 0,4 -4,0 0,-4z M144,120l4,0 0,4 -4,0 0,-4z M152,120l4,0 0,4 -4,0 0,-4z M184,120l4,0 0,4 -4,0 0,-4z M4,124l4,0 0,4 -4,0 0,-4z M8,124l4,0 0,4 -4,0 0,-4z M12,124l4,0 0,4 -4,0 0,-4z M16,124l4,0 0,4 -4,0 0,-4z M28,124l4,0 0,4 -4,0 0,-4z M40,124l4,0 0,4 -4,0 0,-4z M44,124l4,0 0,4 -4,0 0,-4z M52,124l4,0 0,4 -4,0 0,-4z M60,124l4,0 0,4 -4,0 0,-4z M76,124l4,0 0,4 -4,0 0,-4z M80,124l4,0 0,4 -4,0 0,-4z M92,124l4,0 0,4 -4,0 0,-4z M104,124l4,0 0,4 -4,0 0,-4z M108,124l4,0 0,4 -4,0 0,-4z M112,124l4,0 0,4 -4,0 0,-4z M120,124l4,0 0,4 -4,0 0,-4z M140,124l4,0 0,4 -4,0 0,-4z M144,124l4,0 0,4 -4,0 0,-4z M164,124l4,0 0,4 -4,0 0,-4z M168,124l4,0 0,4 -4,0 0,-4z M184,124l4,0 0,4 -4,0 0,-4z M0,128l4,0 0,4 -4,0 0,-4z M4,128l4,0 0,4 -4,0 0,-4z M8,128l4,0 0,4 -4,0 0,-4z M12,128l4,0 0,4 -4,0 0,-4z M20,128l4,0 0,4 -4,0 0,-4z M24,128l4,0 0,4 -4,0 0,-4z M28,128l4,0 0,4 -4,0 0,-4z M32,128l4,0 0,4 -4,0 0,-4z M40,128l4,0 0,4 -4,0 0,-4z M52,128l4,0 0,4 -4,0 0,-4z M60,128l4,0 0,4 -4,0 0,-4z M64,128l4,0 0,4 -4,0 0,-4z M76,128l4,0 0,4 -4,0 0,-4z M84,128l4,0 0,4 -4,0 0,-4z M88,128l4,0 0,4 -4,0 0,-4z M92,128l4,0 0,4 -4,0 0,-4z M104,128l4,0 0,4 -4,0 0,-4z M108,128l4,0 0,4 -4,0 0,-4z M112,128l4,0 0,4 -4,0 0,-4z M136,128l4,0 0,4 -4,0 0,-4z M140,128l4,0 0,4 -4,0 0,-4z M144,128l4,0 0,4 -4,0 0,-4z M148,128l4,0 0,4 -4,0 0,-4z M152,128l4,0 0,4 -4,0 0,-4z M160,128l4,0 0,4 -4,0 0,-4z M164,128l4,0 0,4 -4,0 0,-4z M172,128l4,0 0,4 -4,0 0,-4z M180,128l4,0 0,4 -4,0 0,-4z M184,128l4,0 0,4 -4,0 0,-4z M192,128l4,0 0,4 -4,0 0,-4z M0,132l4,0 0,4 -4,0 0,-4z M4,132l4,0 0,4 -4,0 0,-4z M8,132l4,0 0,4 -4,0 0,-4z M16,132l4,0 0,4 -4,0 0,-4z M20,132l4,0 0,4 -4,0 0,-4z M44,132l4,0 0,4 -4,0 0,-4z M52,132l4,0 0,4 -4,0 0,-4z M64,132l4,0 0,4 -4,0 0,-4z M80,132l4,0 0,4 -4,0 0,-4z M84,132l4,0 0,4 -4,0 0,-4z M92,132l4,0 0,4 -4,0 0,-4z M96,132l4,0 0,4 -4,0 0,-4z M104,132l4,0 0,4 -4,0 0,-4z M112,132l4,0 0,4 -4,0 0,-4z M116,132l4,0 0,4 -4,0 0,-4z M124,132l4,0 0,4 -4,0 0,-4z M132,132l4,0 0,4 -4,0 0,-4z M136,132l4,0 0,4 -4,0 0,-4z M144,132l4,0 0,4 -4,0 0,-4z M152,132l4,0 0,4 -4,0 0,-4z M164,132l4,0 0,4 -4,0 0,-4z M176,132l4,0 0,4 -4,0 0,-4z M180,132l4,0 0,4 -4,0 0,-4z M0,136l4,0 0,4 -4,0 0,-4z M8,136l4,0 0,4 -4,0 0,-4z M12,136l4,0 0,4 -4,0 0,-4z M24,136l4,0 0,4 -4,0 0,-4z M28,136l4,0 0,4 -4,0 0,-4z M32,136l4,0 0,4 -4,0 0,-4z M36,136l4,0 0,4 -4,0 0,-4z M40,136l4,0 0,4 -4,0 0,-4z M52,136l4,0 0,4 -4,0 0,-4z M56,136l4,0 0,4 -4,0 0,-4z M68,136l4,0 0,4 -4,0 0,-4z M76,136l4,0 0,4 -4,0 0,-4z M84,136l4,0 0,4 -4,0 0,-4z M92,136l4,0 0,4 -4,0 0,-4z M96,136l4,0 0,4 -4,0 0,-4z M100,136l4,0 0,4 -4,0 0,-4z M116,136l4,0 0,4 -4,0 0,-4z M124,136l4,0 0,4 -4,0 0,-4z M128,136l4,0 0,4 -4,0 0,-4z M132,136l4,0 0,4 -4,0 0,-4z M136,136l4,0 0,4 -4,0 0,-4z M140,136l4,0 0,4 -4,0 0,-4z M144,136l4,0 0,4 -4,0 0,-4z M152,136l4,0 0,4 -4,0 0,-4z M156,136l4,0 0,4 -4,0 0,-4z M164,136l4,0 0,4 -4,0 0,-4z M180,136l4,0 0,4 -4,0 0,-4z M184,136l4,0 0,4 -4,0 0,-4z M0,140l4,0 0,4 -4,0 0,-4z M12,140l4,0 0,4 -4,0 0,-4z M20,140l4,0 0,4 -4,0 0,-4z M32,140l4,0 0,4 -4,0 0,-4z M36,140l4,0 0,4 -4,0 0,-4z M44,140l4,0 0,4 -4,0 0,-4z M52,140l4,0 0,4 -4,0 0,-4z M64,140l4,0 0,4 -4,0 0,-4z M88,140l4,0 0,4 -4,0 0,-4z M96,140l4,0 0,4 -4,0 0,-4z M104,140l4,0 0,4 -4,0 0,-4z M120,140l4,0 0,4 -4,0 0,-4z M128,140l4,0 0,4 -4,0 0,-4z M132,140l4,0 0,4 -4,0 0,-4z M136,140l4,0 0,4 -4,0 0,-4z M140,140l4,0 0,4 -4,0 0,-4z M144,140l4,0 0,4 -4,0 0,-4z M148,140l4,0 0,4 -4,0 0,-4z M152,140l4,0 0,4 -4,0 0,-4z M164,140l4,0 0,4 -4,0 0,-4z M168,140l4,0 0,4 -4,0 0,-4z M172,140l4,0 0,4 -4,0 0,-4z M184,140l4,0 0,4 -4,0 0,-4z M192,140l4,0 0,4 -4,0 0,-4z M0,144l4,0 0,4 -4,0 0,-4z M24,144l4,0 0,4 -4,0 0,-4z M28,144l4,0 0,4 -4,0 0,-4z M44,144l4,0 0,4 -4,0 0,-4z M56,144l4,0 0,4 -4,0 0,-4z M72,144l4,0 0,4 -4,0 0,-4z M76,144l4,0 0,4 -4,0 0,-4z M84,144l4,0 0,4 -4,0 0,-4z M88,144l4,0 0,4 -4,0 0,-4z M92,144l4,0 0,4 -4,0 0,-4z M100,144l4,0 0,4 -4,0 0,-4z M108,144l4,0 0,4 -4,0 0,-4z M116,144l4,0 0,4 -4,0 0,-4z M128,144l4,0 0,4 -4,0 0,-4z M136,144l4,0 0,4 -4,0 0,-4z M140,144l4,0 0,4 -4,0 0,-4z M144,144l4,0 0,4 -4,0 0,-4z M148,144l4,0 0,4 -4,0 0,-4z M160,144l4,0 0,4 -4,0 0,-4z M164,144l4,0 0,4 -4,0 0,-4z M168,144l4,0 0,4 -4,0 0,-4z M172,144l4,0 0,4 -4,0 0,-4z M180,144l4,0 0,4 -4,0 0,-4z M184,144l4,0 0,4 -4,0 0,-4z M188,144l4,0 0,4 -4,0 0,-4z M0,148l4,0 0,4 -4,0 0,-4z M4,148l4,0 0,4 -4,0 0,-4z M8,148l4,0 0,4 -4,0 0,-4z M16,148l4,0 0,4 -4,0 0,-4z M20,148l4,0 0,4 -4,0 0,-4z M32,148l4,0 0,4 -4,0 0,-4z M36,148l4,0 0,4 -4,0 0,-4z M40,148l4,0 0,4 -4,0 0,-4z M52,148l4,0 0,4 -4,0 0,-4z M56,148l4,0 0,4 -4,0 0,-4z M60,148l4,0 0,4 -4,0 0,-4z M64,148l4,0 0,4 -4,0 0,-4z M72,148l4,0 0,4 -4,0 0,-4z M80,148l4,0 0,4 -4,0 0,-4z M88,148l4,0 0,4 -4,0 0,-4z M92,148l4,0 0,4 -4,0 0,-4z M96,148l4,0 0,4 -4,0 0,-4z M104,148l4,0 0,4 -4,0 0,-4z M108,148l4,0 0,4 -4,0 0,-4z M112,148l4,0 0,4 -4,0 0,-4z M116,148l4,0 0,4 -4,0 0,-4z M120,148l4,0 0,4 -4,0 0,-4z M128,148l4,0 0,4 -4,0 0,-4z M132,148l4,0 0,4 -4,0 0,-4z M140,148l4,0 0,4 -4,0 0,-4z M152,148l4,0 0,4 -4,0 0,-4z M156,148l4,0 0,4 -4,0 0,-4z M160,148l4,0 0,4 -4,0 0,-4z M176,148l4,0 0,4 -4,0 0,-4z M4,152l4,0 0,4 -4,0 0,-4z M20,152l4,0 0,4 -4,0 0,-4z M24,152l4,0 0,4 -4,0 0,-4z M28,152l4,0 0,4 -4,0 0,-4z M32,152l4,0 0,4 -4,0 0,-4z M36,152l4,0 0,4 -4,0 0,-4z M40,152l4,0 0,4 -4,0 0,-4z M44,152l4,0 0,4 -4,0 0,-4z M52,152l4,0 0,4 -4,0 0,-4z M56,152l4,0 0,4 -4,0 0,-4z M60,152l4,0 0,4 -4,0 0,-4z M64,152l4,0 0,4 -4,0 0,-4z M68,152l4,0 0,4 -4,0 0,-4z M72,152l4,0 0,4 -4,0 0,-4z M76,152l4,0 0,4 -4,0 0,-4z M92,152l4,0 0,4 -4,0 0,-4z M96,152l4,0 0,4 -4,0 0,-4z M108,152l4,0 0,4 -4,0 0,-4z M112,152l4,0 0,4 -4,0 0,-4z M116,152l4,0 0,4 -4,0 0,-4z M120,152l4,0 0,4 -4,0 0,-4z M128,152l4,0 0,4 -4,0 0,-4z M140,152l4,0 0,4 -4,0 0,-4z M152,152l4,0 0,4 -4,0 0,-4z M180,152l4,0 0,4 -4,0 0,-4z M184,152l4,0 0,4 -4,0 0,-4z M188,152l4,0 0,4 -4,0 0,-4z M4,156l4,0 0,4 -4,0 0,-4z M8,156l4,0 0,4 -4,0 0,-4z M12,156l4,0 0,4 -4,0 0,-4z M28,156l4,0 0,4 -4,0 0,-4z M40,156l4,0 0,4 -4,0 0,-4z M48,156l4,0 0,4 -4,0 0,-4z M64,156l4,0 0,4 -4,0 0,-4z M68,156l4,0 0,4 -4,0 0,-4z M84,156l4,0 0,4 -4,0 0,-4z M88,156l4,0 0,4 -4,0 0,-4z M104,156l4,0 0,4 -4,0 0,-4z M116,156l4,0 0,4 -4,0 0,-4z M128,156l4,0 0,4 -4,0 0,-4z M140,156l4,0 0,4 -4,0 0,-4z M144,156l4,0 0,4 -4,0 0,-4z M164,156l4,0 0,4 -4,0 0,-4z M168,156l4,0 0,4 -4,0 0,-4z M172,156l4,0 0,4 -4,0 0,-4z M176,156l4,0 0,4 -4,0 0,-4z M184,156l4,0 0,4 -4,0 0,-4z M192,156l4,0 0,4 -4,0 0,-4z M0,160l4,0 0,4 -4,0 0,-4z M4,160l4,0 0,4 -4,0 0,-4z M8,160l4,0 0,4 -4,0 0,-4z M24,160l4,0 0,4 -4,0 0,-4z M28,160l4,0 0,4 -4,0 0,-4z M56,160l4,0 0,4 -4,0 0,-4z M64,160l4,0 0,4 -4,0 0,-4z M68,160l4,0 0,4 -4,0 0,-4z M84,160l4,0 0,4 -4,0 0,-4z M88,160l4,0 0,4 -4,0 0,-4z M92,160l4,0 0,4 -4,0 0,-4z M96,160l4,0 0,4 -4,0 0,-4z M100,160l4,0 0,4 -4,0 0,-4z M104,160l4,0 0,4 -4,0 0,-4z M108,160l4,0 0,4 -4,0 0,-4z M120,160l4,0 0,4 -4,0 0,-4z M128,160l4,0 0,4 -4,0 0,-4z M132,160l4,0 0,4 -4,0 0,-4z M140,160l4,0 0,4 -4,0 0,-4z M144,160l4,0 0,4 -4,0 0,-4z M160,160l4,0 0,4 -4,0 0,-4z M164,160l4,0 0,4 -4,0 0,-4z M168,160l4,0 0,4 -4,0 0,-4z M172,160l4,0 0,4 -4,0 0,-4z M176,160l4,0 0,4 -4,0 0,-4z M184,160l4,0 0,4 -4,0 0,-4z M192,160l4,0 0,4 -4,0 0,-4z M32,164l4,0 0,4 -4,0 0,-4z M40,164l4,0 0,4 -4,0 0,-4z M56,164l4,0 0,4 -4,0 0,-4z M60,164l4,0 0,4 -4,0 0,-4z M80,164l4,0 0,4 -4,0 0,-4z M88,164l4,0 0,4 -4,0 0,-4z M104,164l4,0 0,4 -4,0 0,-4z M116,164l4,0 0,4 -4,0 0,-4z M120,164l4,0 0,4 -4,0 0,-4z M128,164l4,0 0,4 -4,0 0,-4z M132,164l4,0 0,4 -4,0 0,-4z M144,164l4,0 0,4 -4,0 0,-4z M152,164l4,0 0,4 -4,0 0,-4z M156,164l4,0 0,4 -4,0 0,-4z M160,164l4,0 0,4 -4,0 0,-4z M176,164l4,0 0,4 -4,0 0,-4z M0,168l4,0 0,4 -4,0 0,-4z M4,168l4,0 0,4 -4,0 0,-4z M8,168l4,0 0,4 -4,0 0,-4z M12,168l4,0 0,4 -4,0 0,-4z M16,168l4,0 0,4 -4,0 0,-4z M20,168l4,0 0,4 -4,0 0,-4z M24,168l4,0 0,4 -4,0 0,-4z M32,168l4,0 0,4 -4,0 0,-4z M36,168l4,0 0,4 -4,0 0,-4z M40,168l4,0 0,4 -4,0 0,-4z M44,168l4,0 0,4 -4,0 0,-4z M48,168l4,0 0,4 -4,0 0,-4z M52,168l4,0 0,4 -4,0 0,-4z M56,168l4,0 0,4 -4,0 0,-4z M64,168l4,0 0,4 -4,0 0,-4z M76,168l4,0 0,4 -4,0 0,-4z M88,168l4,0 0,4 -4,0 0,-4z M96,168l4,0 0,4 -4,0 0,-4z M104,168l4,0 0,4 -4,0 0,-4z M108,168l4,0 0,4 -4,0 0,-4z M112,168l4,0 0,4 -4,0 0,-4z M120,168l4,0 0,4 -4,0 0,-4z M128,168l4,0 0,4 -4,0 0,-4z M132,168l4,0 0,4 -4,0 0,-4z M140,168l4,0 0,4 -4,0 0,-4z M148,168l4,0 0,4 -4,0 0,-4z M152,168l4,0 0,4 -4,0 0,-4z M160,168l4,0 0,4 -4,0 0,-4z M168,168l4,0 0,4 -4,0 0,-4z M176,168l4,0 0,4 -4,0 0,-4z M0,172l4,0 0,4 -4,0 0,-4z M24,172l4,0 0,4 -4,0 0,-4z M44,172l4,0 0,4 -4,0 0,-4z M48,172l4,0 0,4 -4,0 0,-4z M56,172l4,0 0,4 -4,0 0,-4z M64,172l4,0 0,4 -4,0 0,-4z M80,172l4,0 0,4 -4,0 0,-4z M84,172l4,0 0,4 -4,0 0,-4z M88,172l4,0 0,4 -4,0 0,-4z M104,172l4,0 0,4 -4,0 0,-4z M120,172l4,0 0,4 -4,0 0,-4z M124,172l4,0 0,4 -4,0 0,-4z M128,172l4,0 0,4 -4,0 0,-4z M132,172l4,0 0,4 -4,0 0,-4z M140,172l4,0 0,4 -4,0 0,-4z M144,172l4,0 0,4 -4,0 0,-4z M148,172l4,0 0,4 -4,0 0,-4z M152,172l4,0 0,4 -4,0 0,-4z M160,172l4,0 0,4 -4,0 0,-4z M176,172l4,0 0,4 -4,0 0,-4z M184,172l4,0 0,4 -4,0 0,-4z M0,176l4,0 0,4 -4,0 0,-4z M8,176l4,0 0,4 -4,0 0,-4z M12,176l4,0 0,4 -4,0 0,-4z M16,176l4,0 0,4 -4,0 0,-4z M24,176l4,0 0,4 -4,0 0,-4z M32,176l4,0 0,4 -4,0 0,-4z M48,176l4,0 0,4 -4,0 0,-4z M52,176l4,0 0,4 -4,0 0,-4z M60,176l4,0 0,4 -4,0 0,-4z M68,176l4,0 0,4 -4,0 0,-4z M72,176l4,0 0,4 -4,0 0,-4z M80,176l4,0 0,4 -4,0 0,-4z M84,176l4,0 0,4 -4,0 0,-4z M88,176l4,0 0,4 -4,0 0,-4z M92,176l4,0 0,4 -4,0 0,-4z M96,176l4,0 0,4 -4,0 0,-4z M100,176l4,0 0,4 -4,0 0,-4z M104,176l4,0 0,4 -4,0 0,-4z M108,176l4,0 0,4 -4,0 0,-4z M128,176l4,0 0,4 -4,0 0,-4z M140,176l4,0 0,4 -4,0 0,-4z M144,176l4,0 0,4 -4,0 0,-4z M156,176l4,0 0,4 -4,0 0,-4z M160,176l4,0 0,4 -4,0 0,-4z M164,176l4,0 0,4 -4,0 0,-4z M168,176l4,0 0,4 -4,0 0,-4z M172,176l4,0 0,4 -4,0 0,-4z M176,176l4,0 0,4 -4,0 0,-4z M180,176l4,0 0,4 -4,0 0,-4z M184,176l4,0 0,4 -4,0 0,-4z M0,180l4,0 0,4 -4,0 0,-4z M8,180l4,0 0,4 -4,0 0,-4z M12,180l4,0 0,4 -4,0 0,-4z M16,180l4,0 0,4 -4,0 0,-4z M24,180l4,0 0,4 -4,0 0,-4z M36,180l4,0 0,4 -4,0 0,-4z M44,180l4,0 0,4 -4,0 0,-4z M60,180l4,0 0,4 -4,0 0,-4z M76,180l4,0 0,4 -4,0 0,-4z M80,180l4,0 0,4 -4,0 0,-4z M88,180l4,0 0,4 -4,0 0,-4z M112,180l4,0 0,4 -4,0 0,-4z M116,180l4,0 0,4 -4,0 0,-4z M120,180l4,0 0,4 -4,0 0,-4z M128,180l4,0 0,4 -4,0 0,-4z M132,180l4,0 0,4 -4,0 0,-4z M140,180l4,0 0,4 -4,0 0,-4z M152,180l4,0 0,4 -4,0 0,-4z M160,180l4,0 0,4 -4,0 0,-4z M164,180l4,0 0,4 -4,0 0,-4z M192,180l4,0 0,4 -4,0 0,-4z M0,184l4,0 0,4 -4,0 0,-4z M8,184l4,0 0,4 -4,0 0,-4z M12,184l4,0 0,4 -4,0 0,-4z M16,184l4,0 0,4 -4,0 0,-4z M24,184l4,0 0,4 -4,0 0,-4z M40,184l4,0 0,4 -4,0 0,-4z M44,184l4,0 0,4 -4,0 0,-4z M48,184l4,0 0,4 -4,0 0,-4z M60,184l4,0 0,4 -4,0 0,-4z M68,184l4,0 0,4 -4,0 0,-4z M72,184l4,0 0,4 -4,0 0,-4z M76,184l4,0 0,4 -4,0 0,-4z M88,184l4,0 0,4 -4,0 0,-4z M104,184l4,0 0,4 -4,0 0,-4z M120,184l4,0 0,4 -4,0 0,-4z M124,184l4,0 0,4 -4,0 0,-4z M132,184l4,0 0,4 -4,0 0,-4z M152,184l4,0 0,4 -4,0 0,-4z M160,184l4,0 0,4 -4,0 0,-4z M168,184l4,0 0,4 -4,0 0,-4z M172,184l4,0 0,4 -4,0 0,-4z M180,184l4,0 0,4 -4,0 0,-4z M184,184l4,0 0,4 -4,0 0,-4z M188,184l4,0 0,4 -4,0 0,-4z M192,184l4,0 0,4 -4,0 0,-4z M0,188l4,0 0,4 -4,0 0,-4z M24,188l4,0 0,4 -4,0 0,-4z M40,188l4,0 0,4 -4,0 0,-4z M44,188l4,0 0,4 -4,0 0,-4z M56,188l4,0 0,4 -4,0 0,-4z M60,188l4,0 0,4 -4,0 0,-4z M72,188l4,0 0,4 -4,0 0,-4z M84,188l4,0 0,4 -4,0 0,-4z M88,188l4,0 0,4 -4,0 0,-4z M92,188l4,0 0,4 -4,0 0,-4z M96,188l4,0 0,4 -4,0 0,-4z M100,188l4,0 0,4 -4,0 0,-4z M104,188l4,0 0,4 -4,0 0,-4z M112,188l4,0 0,4 -4,0 0,-4z M116,188l4,0 0,4 -4,0 0,-4z M124,188l4,0 0,4 -4,0 0,-4z M132,188l4,0 0,4 -4,0 0,-4z M136,188l4,0 0,4 -4,0 0,-4z M144,188l4,0 0,4 -4,0 0,-4z M152,188l4,0 0,4 -4,0 0,-4z M156,188l4,0 0,4 -4,0 0,-4z M184,188l4,0 0,4 -4,0 0,-4z M188,188l4,0 0,4 -4,0 0,-4z M0,192l4,0 0,4 -4,0 0,-4z M4,192l4,0 0,4 -4,0 0,-4z M8,192l4,0 0,4 -4,0 0,-4z M12,192l4,0 0,4 -4,0 0,-4z M16,192l4,0 0,4 -4,0 0,-4z M20,192l4,0 0,4 -4,0 0,-4z M24,192l4,0 0,4 -4,0 0,-4z M32,192l4,0 0,4 -4,0 0,-4z M40,192l4,0 0,4 -4,0 0,-4z M44,192l4,0 0,4 -4,0 0,-4z M64,192l4,0 0,4 -4,0 0,-4z M76,192l4,0 0,4 -4,0 0,-4z M84,192l4,0 0,4 -4,0 0,-4z M92,192l4,0 0,4 -4,0 0,-4z M100,192l4,0 0,4 -4,0 0,-4z M104,192l4,0 0,4 -4,0 0,-4z M116,192l4,0 0,4 -4,0 0,-4z M120,192l4,0 0,4 -4,0 0,-4z M124,192l4,0 0,4 -4,0 0,-4z M128,192l4,0 0,4 -4,0 0,-4z M132,192l4,0 0,4 -4,0 0,-4z M140,192l4,0 0,4 -4,0 0,-4z M144,192l4,0 0,4 -4,0 0,-4z M152,192l4,0 0,4 -4,0 0,-4z M156,192l4,0 0,4 -4,0 0,-4z M172,192l4,0 0,4 -4,0 0,-4z M176,192l4,0 0,4 -4,0 0,-4z M180,192l4,0 0,4 -4,0 0,-4z M184,192l4,0 0,4 -4,0 0,-4z M188,192l4,0 0,4 -4,0 0,-4z M192,192l4,0 0,4 -4,0 0,-4z " stroke="transparent" fill="black"/></svg>