<svg version="1.1" xmlns="http://www.w3.org/2000/svg" width="196px" height="196px" viewBox="0 0 196 196"  preserveAspectRatio="xMinYMin meet"><rect width="100%" height="100%" fill="white" cx="0" cy="0"/><path d="M0,0l4,0 0,4 -4,0 0,-4z M4,0l4,0 0,4 -4,0 0,-4z M8,0l4,0 0,4 -4,0 0,-4z M12,0l4,0 0,4 -4,0 0,-4z M16,0l4,0 0,4 -4,0 0,-4z M20,0l4,0 0,4 -4,0 0,-4z M24,0l4,0 0,4 -4,0 0,-4z M44,0l4,0 0,4 -4,0 0,-4z M56,0l4,0 0,4 -4,0 0,-4z M64,0l4,0 0,4 -4,0 0,-4z M72,0l4,0 0,4 -4,0 0,-4z M80,0l4,0 0,4 -4,0 0,-4z M84,0l4,0 0,4 -4,0 0,-4z M88,0l4,0 0,4 -4,0 0,-4z M92,0l4,0 0,4 -4,0 0,-4z M104,0l4,0 0,4 -4,0 0,-4z M108,0l4,0 0,4 -4,0 0,-4z M112,0l4,0 0,4 -4,0 0,-4z M120,0l4,0 0,4 -4,0 0,-4z M124,0l4,0 0,4 -4,0 0,-4z M128,0l4,0 0,4 -4,0 0,-4z M136,0l4,0 0,4 -4,0 0,-4z M140,0l4,0 0,4 -4,0 0,-4z M144,0l4,0 0,4 -4,0 0,-4z M160,0l4,0 0,4 -4,0 0,-4z M168,0l4,0 0,4 -4,0 0,-4z M172,0l4,0 0,4 -4,0 0,-4z M176,0l4,0 0,4 -4,0 0,-4z M180,0l4,0 0,4 -4,0 0,-4z M184,0l4,0 0,4 -4,0 0,-4z M188,0l4,0 0,4 -4,0 0,-4z M192,0l4,0 0,4 -4,0 0,-4z M0,4l4,0 0,4 -4,0 0,-4z M24,4l4,0 0,4 -4,0 0,-4z M36,4l4,0 0,4 -4,0 0,-4z M40,4l4,0 0,4 -4,0 0,-4z M48,4l4,0 0,4 -4,0 0,-4z M52,4l4,0 0,4 -4,0 0,-4z M56,4l4,0 0,4 -4,0 0,-4z M60,4l4,0 0,4 -4,0 0,-4z M64,4l4,0 0,4 -4,0 0,-4z M72,4l4,0 0,4 -4,0 0,-4z M84,4l4,0 0,4 -4,0 0,-4z M96,4l4,0 0,4 -4,0 0,-4z M100,4l4,0 0,4 -4,0 0,-4z M108,4l4,0 0,4 -4,0 0,-4z M112,4l4,0 0,4 -4,0 0,-4z M132,4l4,0 0,4 -4,0 0,-4z M136,4l4,0 0,4 -4,0 0,-4z M140,4l4,0 0,4 -4,0 0,-4z M144,4l4,0 0,4 -4,0 0,-4z M148,4l4,0 0,4 -4,0 0,-4z M152,4l4,0 0,4 -4,0 0,-4z M156,4l4,0 0,4 -4,0 0,-4z M160,4l4,0 0,4 -4,0 0,-4z M168,4l4,0 0,4 -4,0 0,-4z M192,4l4,0 0,4 -4,0 0,-4z M0,8l4,0 0,4 -4,0 0,-4z M8,8l4,0 0,4 -4,0 0,-4z M12,8l4,0 0,4 -4,0 0,-4z M16,8l4,0 0,4 -4,0 0,-4z M24,8l4,0 0,4 -4,0 0,-4z M44,8l4,0 0,4 -4,0 0,-4z M68,8l4,0 0,4 -4,0 0,-4z M76,8l4,0 0,4 -4,0 0,-4z M80,8l4,0 0,4 -4,0 0,-4z M84,8l4,0 0,4 -4,0 0,-4z M96,8l4,0 0,4 -4,0 0,-4z M100,8l4,0 0,4 -4,0 0,-4z M104,8l4,0 0,4 -4,0 0,-4z M108,8l4,0 0,4 -4,0 0,-4z M116,8l4,0 0,4 -4,0 0,-4z M120,8l4,0 0,4 -4,0 0,-4z M128,8l4,0 0,4 -4,0 0,-4z M140,8l4,0 0,4 -4,0 0,-4z M156,8l4,0 0,4 -4,0 0,-4z M160,8l4,0 0,4 -4,0 0,-4z M168,8l4,0 0,4 -4,0 0,-4z M176,8l4,0 0,4 -4,0 0,-4z M180,8l4,0 0,4 -4,0 0,-4z M184,8l4,0 0,4 -4,0 0,-4z M192,8l4,0 0,4 -4,0 0,-4z M0,12l4,0 0,4 -4,0 0,-4z M8,12l4,0 0,4 -4,0 0,-4z M12,12l4,0 0,4 -4,0 0,-4z M16,12l4,0 0,4 -4,0 0,-4z M24,12l4,0 0,4 -4,0 0,-4z M40,12l4,0 0,4 -4,0 0,-4z M44,12l4,0 0,4 -4,0 0,-4z M52,12l4,0 0,4 -4,0 0,-4z M60,12l4,0 0,4 -4,0 0,-4z M68,12l4,0 0,4 -4,0 0,-4z M72,12l4,0 0,4 -4,0 0,-4z M88,12l4,0 0,4 -4,0 0,-4z M92,12l4,0 0,4 -4,0 0,-4z M100,12l4,0 0,4 -4,0 0,-4z M104,12l4,0 0,4 -4,0 0,-4z M116,12l4,0 0,4 -4,0 0,-4z M120,12l4,0 0,4 -4,0 0,-4z M132,12l4,0 0,4 -4,0 0,-4z M140,12l4,0 0,4 -4,0 0,-4z M156,12l4,0 0,4 -4,0 0,-4z M168,12l4,0 0,4 -4,0 0,-4z M176,12l4,0 0,4 -4,0 0,-4z M180,12l4,0 0,4 -4,0 0,-4z M184,12l4,0 0,4 -4,0 0,-4z M192,12l4,0 0,4 -4,0 0,-4z M0,16l4,0 0,4 -4,0 0,-4z M8,16l4,0 0,4 -4,0 0,-4z M12,16l4,0 0,4 -4,0 0,-4z M16,16l4,0 0,4 -4,0 0,-4z M24,16l4,0 0,4 -4,0 0,-4z M36,16l4,0 0,4 -4,0 0,-4z M40,16l4,0 0,4 -4,0 0,-4z M44,16l4,0 0,4 -4,0 0,-4z M56,16l4,0 0,4 -4,0 0,-4z M76,16l4,0 0,4 -4,0 0,-4z M80,16l4,0 0,4 -4,0 0,-4z M88,16l4,0 0,4 -4,0 0,-4z M92,16l4,0 0,4 -4,0 0,-4z M96,16l4,0 0,4 -4,0 0,-4z M100,16l4,0 0,4 -4,0 0,-4z M104,16l4,0 0,4 -4,0 0,-4z M108,16l4,0 0,4 -4,0 0,-4z M116,16l4,0 0,4 -4,0 0,-4z M120,16l4,0 0,4 -4,0 0,-4z M128,16l4,0 0,4 -4,0 0,-4z M132,16l4,0 0,4 -4,0 0,-4z M140,16l4,0 0,4 -4,0 0,-4z M144,16l4,0 0,4 -4,0 0,-4z M168,16l4,0 0,4 -4,0 0,-4z M176,16l4,0 0,4 -4,0 0,-4z M180,16l4,0 0,4 -4,0 0,-4z M184,16l4,0 0,4 -4,0 0,-4z M192,16l4,0 0,4 -4,0 0,-4z M0,20l4,0 0,4 -4,0 0,-4z M24,20l4,0 0,4 -4,0 0,-4z M32,20l4,0 0,4 -4,0 0,-4z M36,20l4,0 0,4 -4,0 0,-4z M40,20l4,0 0,4 -4,0 0,-4z M44,20l4,0 0,4 -4,0 0,-4z M56,20l4,0 0,4 -4,0 0,-4z M64,20l4,0 0,4 -4,0 0,-4z M72,20l4,0 0,4 -4,0 0,-4z M80,20l4,0 0,4 -4,0 0,-4z M88,20l4,0 0,4 -4,0 0,-4z M104,20l4,0 0,4 -4,0 0,-4z M108,20l4,0 0,4 -4,0 0,-4z M112,20l4,0 0,4 -4,0 0,-4z M120,20l4,0 0,4 -4,0 0,-4z M124,20l4,0 0,4 -4,0 0,-4z M128,20l4,0 0,4 -4,0 0,-4z M136,20l4,0 0,4 -4,0 0,-4z M140,20l4,0 0,4 -4,0 0,-4z M144,20l4,0 0,4 -4,0 0,-4z M152,20l4,0 0,4 -4,0 0,-4z M168,20l4,0 0,4 -4,0 0,-4z M192,20l4,0 0,4 -4,0 0,-4z M0,24l4,0 0,4 -4,0 0,-4z M4,24l4,0 0,4 -4,0 0,-4z M8,24l4,0 0,4 -4,0 0,-4z M12,24l4,0 0,4 -4,0 0,-4z M16,24l4,0 0,4 -4,0 0,-4z M20,24l4,0 0,4 -4,0 0,-4z M24,24l4,0 0,4 -4,0 0,-4z M32,24l4,0 0,4 -4,0 0,-4z M40,24l4,0 0,4 -4,0 0,-4z M48,24l4,0 0,4 -4,0 0,-4z M56,24l4,0 0,4 -4,0 0,-4z M64,24l4,0 0,4 -4,0 0,-4z M72,24l4,0 0,4 -4,0 0,-4z M80,24l4,0 0,4 -4,0 0,-4z M88,24l4,0 0,4 -4,0 0,-4z M96,24l4,0 0,4 -4,0 0,-4z M104,24l4,0 0,4 -4,0 0,-4z M112,24l4,0 0,4 -4,0 0,-4z M120,24l4,0 0,4 -4,0 0,-4z M128,24l4,0 0,4 -4,0 0,-4z M136,24l4,0 0,4 -4,0 0,-4z M144,24l4,0 0,4 -4,0 0,-4z M152,24l4,0 0,4 -4,0 0,-4z M160,24l4,0 0,4 -4,0 0,-4z M168,24l4,0 0,4 -4,0 0,-4z M172,24l4,0 0,4 -4,0 0,-4z M176,24l4,0 0,4 -4,0 0,-4z M180,24l4,0 0,4 -4,0 0,-4z M184,24l4,0 0,4 -4,0 0,-4z M188,24l4,0 0,4 -4,0 0,-4z M192,24l4,0 0,4 -4,0 0,-4z M44,28l4,0 0,4 -4,0 0,-4z M52,28l4,0 0,4 -4,0 0,-4z M56,28l4,0 0,4 -4,0 0,-4z M64,28l4,0 0,4 -4,0 0,-4z M68,28l4,0 0,4 -4,0 0,-4z M88,28l4,0 0,4 -4,0 0,-4z M104,28l4,0 0,4 -4,0 0,-4z M120,28l4,0 0,4 -4,0 0,-4z M128,28l4,0 0,4 -4,0 0,-4z M132,28l4,0 0,4 -4,0 0,-4z M140,28l4,0 0,4 -4,0 0,-4z M144,28l4,0 0,4 -4,0 0,-4z M148,28l4,0 0,4 -4,0 0,-4z M152,28l4,0 0,4 -4,0 0,-4z M156,28l4,0 0,4 -4,0 0,-4z M160,28l4,0 0,4 -4,0 0,-4z M0,32l4,0 0,4 -4,0 0,-4z M12,32l4,0 0,4 -4,0 0,-4z M20,32l4,0 0,4 -4,0 0,-4z M24,32l4,0 0,4 -4,0 0,-4z M32,32l4,0 0,4 -4,0 0,-4z M36,32l4,0 0,4 -4,0 0,-4z M40,32l4,0 0,4 -4,0 0,-4z M44,32l4,0 0,4 -4,0 0,-4z M64,32l4,0 0,4 -4,0 0,-4z M80,32l4,0 0,4 -4,0 0,-4z M88,32l4,0 0,4 -4,0 0,-4z M92,32l4,0 0,4 -4,0 0,-4z M96,32l4,0 0,4 -4,0 0,-4z M100,32l4,0 0,4 -4,0 0,-4z M104,32l4,0 0,4 -4,0 0,-4z M108,32l4,0 0,4 -4,0 0,-4z M112,32l4,0 0,4 -4,0 0,-4z M120,32l4,0 0,4 -4,0 0,-4z M132,32l4,0 0,4 -4,0 0,-4z M136,32l4,0 0,4 -4,0 0,-4z M144,32l4,0 0,4 -4,0 0,-4z M148,32l4,0 0,4 -4,0 0,-4z M164,32l4,0 0,4 -4,0 0,-4z M172,32l4,0 0,4 -4,0 0,-4z M0,36l4,0 0,4 -4,0 0,-4z M4,36l4,0 0,4 -4,0 0,-4z M8,36l4,0 0,4 -4,0 0,-4z M12,36l4,0 0,4 -4,0 0,-4z M20,36l4,0 0,4 -4,0 0,-4z M36,36l4,0 0,4 -4,0 0,-4z M40,36l4,0 0,4 -4,0 0,-4z M52,36l4,0 0,4 -4,0 0,-4z M56,36l4,0 0,4 -4,0 0,-4z M60,36l4,0 0,4 -4,0 0,-4z M64,36l4,0 0,4 -4,0 0,-4z M84,36l4,0 0,4 -4,0 0,-4z M88,36l4,0 0,4 -4,0 0,-4z M112,36l4,0 0,4 -4,0 0,-4z M132,36l4,0 0,4 -4,0 0,-4z M140,36l4,0 0,4 -4,0 0,-4z M148,36l4,0 0,4 -4,0 0,-4z M156,36l4,0 0,4 -4,0 0,-4z M172,36l4,0 0,4 -4,0 0,-4z M184,36l4,0 0,4 -4,0 0,-4z M188,36l4,0 0,4 -4,0 0,-4z M192,36l4,0 0,4 -4,0 0,-4z M0,40l4,0 0,4 -4,0 0,-4z M24,40l4,0 0,4 -4,0 0,-4z M40,40l4,0 0,4 -4,0 0,-4z M44,40l4,0 0,4 -4,0 0,-4z M60,40l4,0 0,4 -4,0 0,-4z M64,40l4,0 0,4 -4,0 0,-4z M68,40l4,0 0,4 -4,0 0,-4z M72,40l4,0 0,4 -4,0 0,-4z M96,40l4,0 0,4 -4,0 0,-4z M108,40l4,0 0,4 -4,0 0,-4z M112,40l4,0 0,4 -4,0 0,-4z M120,40l4,0 0,4 -4,0 0,-4z M124,40l4,0 0,4 -4,0 0,-4z M136,40l4,0 0,4 -4,0 0,-4z M148,40l4,0 0,4 -4,0 0,-4z M156,40l4,0 0,4 -4,0 0,-4z M160,40l4,0 0,4 -4,0 0,-4z M172,40l4,0 0,4 -4,0 0,-4z M176,40l4,0 0,4 -4,0 0,-4z M180,40l4,0 0,4 -4,0 0,-4z M192,40l4,0 0,4 -4,0 0,-4z M0,44l4,0 0,4 -4,0 0,-4z M12,44l4,0 0,4 -4,0 0,-4z M16,44l4,0 0,4 -4,0 0,-4z M20,44l4,0 0,4 -4,0 0,-4z M28,44l4,0 0,4 -4,0 0,-4z M40,44l4,0 0,4 -4,0 0,-4z M52,44l4,0 0,4 -4,0 0,-4z M60,44l4,0 0,4 -4,0 0,-4z M68,44l4,0 0,4 -4,0 0,-4z M72,44l4,0 0,4 -4,0 0,-4z M96,44l4,0 0,4 -4,0 0,-4z M100,44l4,0 0,4 -4,0 0,-4z M104,44l4,0 0,4 -4,0 0,-4z M108,44l4,0 0,4 -4,0 0,-4z M112,44l4,0 0,4 -4,0 0,-4z M136,44l4,0 0,4 -4,0 0,-4z M144,44l4,0 0,4 -4,0 0,-4z M148,44l4,0 0,4 -4,0 0,-4z M152,44l4,0 0,4 -4,0 0,-4z M160,44l4,0 0,4 -4,0 0,-4z M168,44l4,0 0,4 -4,0 0,-4z M192,44l4,0 0,4 -4,0 0,-4z M0,48l4,0 0,4 -4,0 0,-4z M4,48l4,0 0,4 -4,0 0,-4z M8,48l4,0 0,4 -4,0 0,-4z M12,48l4,0 0,4 -4,0 0,-4z M16,48l4,0 0,4 -4,0 0,-4z M20,48l4,0 0,4 -4,0 0,-4z M24,48l4,0 0,4 -4,0 0,-4z M28,48l4,0 0,4 -4,0 0,-4z M32,48l4,0 0,4 -4,0 0,-4z M36,48l4,0 0,4 -4,0 0,-4z M48,48l4,0 0,4 -4,0 0,-4z M52,48l4,0 0,4 -4,0 0,-4z M56,48l4,0 0,4 -4,0 0,-4z M60,48l4,0 0,4 -4,0 0,-4z M64,48l4,0 0,4 -4,0 0,-4z M68,48l4,0 0,4 -4,0 0,-4z M72,48l4,0 0,4 -4,0 0,-4z M80,48l4,0 0,4 -4,0 0,-4z M92,48l4,0 0,4 -4,0 0,-4z M96,48l4,0 0,4 -4,0 0,-4z M108,48l4,0 0,4 -4,0 0,-4z M112,48l4,0 0,4 -4,0 0,-4z M124,48l4,0 0,4 -4,0 0,-4z M128,48l4,0 0,4 -4,0 0,-4z M140,48l4,0 0,4 -4,0 0,-4z M144,48l4,0 0,4 -4,0 0,-4z M152,48l4,0 0,4 -4,0 0,-4z M156,48l4,0 0,4 -4,0 0,-4z M172,48l4,0 0,4 -4,0 0,-4z M176,48l4,0 0,4 -4,0 0,-4z M188,48l4,0 0,4 -4,0 0,-4z M12,52l4,0 0,4 -4,0 0,-4z M20,52l4,0 0,4 -4,0 0,-4z M28,52l4,0 0,4 -4,0 0,-4z M32,52l4,0 0,4 -4,0 0,-4z M52,52l4,0 0,4 -4,0 0,-4z M56,52l4,0 0,4 -4,0 0,-4z M60,52l4,0 0,4 -4,0 0,-4z M64,52l4,0 0,4 -4,0 0,-4z M68,52l4,0 0,4 -4,0 0,-4z M72,52l4,0 0,4 -4,0 0,-4z M76,52l4,0 0,4 -4,0 0,-4z M80,52l4,0 0,4 -4,0 0,-4z M96,52l4,0 0,4 -4,0 0,-4z M100,52l4,0 0,4 -4,0 0,-4z M112,52l4,0 0,4 -4,0 0,-4z M124,52l4,0 0,4 -4,0 0,-4z M136,52l4,0 0,4 -4,0 0,-4z M140,52l4,0 0,4 -4,0 0,-4z M148,52l4,0 0,4 -4,0 0,-4z M160,52l4,0 0,4 -4,0 0,-4z M164,52l4,0 0,4 -4,0 0,-4z M172,52l4,0 0,4 -4,0 0,-4z M184,52l4,0 0,4 -4,0 0,-4z M192,52l4,0 0,4 -4,0 0,-4z M0,56l4,0 0,4 -4,0 0,-4z M8,56l4,0 0,4 -4,0 0,-4z M16,56l4,0 0,4 -4,0 0,-4z M20,56l4,0 0,4 -4,0 0,-4z M24,56l4,0 0,4 -4,0 0,-4z M32,56l4,0 0,4 -4,0 0,-4z M48,56l4,0 0,4 -4,0 0,-4z M56,56l4,0 0,4 -4,0 0,-4z M60,56l4,0 0,4 -4,0 0,-4z M68,56l4,0 0,4 -4,0 0,-4z M80,56l4,0 0,4 -4,0 0,-4z M96,56l4,0 0,4 -4,0 0,-4z M104,56l4,0 0,4 -4,0 0,-4z M108,56l4,0 0,4 -4,0 0,-4z M112,56l4,0 0,4 -4,0 0,-4z M124,56l4,0 0,4 -4,0 0,-4z M144,56l4,0 0,4 -4,0 0,-4z M148,56l4,0 0,4 -4,0 0,-4z M152,56l4,0 0,4 -4,0 0,-4z M160,56l4,0 0,4 -4,0 0,-4z M164,56l4,0 0,4 -4,0 0,-4z M172,56l4,0 0,4 -4,0 0,-4z M184,56l4,0 0,4 -4,0 0,-4z M192,56l4,0 0,4 -4,0 0,-4z M0,60l4,0 0,4 -4,0 0,-4z M28,60l4,0 0,4 -4,0 0,-4z M36,60l4,0 0,4 -4,0 0,-4z M48,60l4,0 0,4 -4,0 0,-4z M52,60l4,0 0,4 -4,0 0,-4z M56,60l4,0 0,4 -4,0 0,-4z M64,60l4,0 0,4 -4,0 0,-4z M72,60l4,0 0,4 -4,0 0,-4z M80,60l4,0 0,4 -4,0 0,-4z M88,60l4,0 0,4 -4,0 0,-4z M92,60l4,0 0,4 -4,0 0,-4z M96,60l4,0 0,4 -4,0 0,-4z M100,60l4,0 0,4 -4,0 0,-4z M104,60l4,0 0,4 -4,0 0,-4z M108,60l4,0 0,4 -4,0 0,-4z M120,60l4,0 0,4 -4,0 0,-4z M124,60l4,0 0,4 -4,0 0,-4z M136,60l4,0 0,4 -4,0 0,-4z M140,60l4,0 0,4 -4,0 0,-4z M144,60l4,0 0,4 -4,0 0,-4z M152,60l4,0 0,4 -4,0 0,-4z M156,60l4,0 0,4 -4,0 0,-4z M176,60l4,0 0,4 -4,0 0,-4z M180,60l4,0 0,4 -4,0 0,-4z M188,60l4,0 0,4 -4,0 0,-4z M4,64l4,0 0,4 -4,0 0,-4z M12,64l4,0 0,4 -4,0 0,-4z M16,64l4,0 0,4 -4,0 0,-4z M20,64l4,0 0,4 -4,0 0,-4z M24,64l4,0 0,4 -4,0 0,-4z M28,64l4,0 0,4 -4,0 0,-4z M48,64l4,0 0,4 -4,0 0,-4z M56,64l4,0 0,4 -4,0 0,-4z M60,64l4,0 0,4 -4,0 0,-4z M64,64l4,0 0,4 -4,0 0,-4z M72,64l4,0 0,4 -4,0 0,-4z M76,64l4,0 0,4 -4,0 0,-4z M96,64l4,0 0,4 -4,0 0,-4z M100,64l4,0 0,4 -4,0 0,-4z M104,64l4,0 0,4 -4,0 0,-4z M108,64l4,0 0,4 -4,0 0,-4z M112,64l4,0 0,4 -4,0 0,-4z M136,64l4,0 0,4 -4,0 0,-4z M140,64l4,0 0,4 -4,0 0,-4z M144,64l4,0 0,4 -4,0 0,-4z M148,64l4,0 0,4 -4,0 0,-4z M160,64l4,0 0,4 -4,0 0,-4z M168,64l4,0 0,4 -4,0 0,-4z M176,64l4,0 0,4 -4,0 0,-4z M184,64l4,0 0,4 -4,0 0,-4z M0,68l4,0 0,4 -4,0 0,-4z M8,68l4,0 0,4 -4,0 0,-4z M36,68l4,0 0,4 -4,0 0,-4z M40,68l4,0 0,4 -4,0 0,-4z M44,68l4,0 0,4 -4,0 0,-4z M56,68l4,0 0,4 -4,0 0,-4z M60,68l4,0 0,4 -4,0 0,-4z M80,68l4,0 0,4 -4,0 0,-4z M88,68l4,0 0,4 -4,0 0,-4z M92,68l4,0 0,4 -4,0 0,-4z M96,68l4,0 0,4 -4,0 0,-4z M104,68l4,0 0,4 -4,0 0,-4z M108,68l4,0 0,4 -4,0 0,-4z M112,68l4,0 0,4 -4,0 0,-4z M116,68l4,0 0,4 -4,0 0,-4z M120,68l4,0 0,4 -4,0 0,-4z M124,68l4,0 0,4 -4,0 0,-4z M136,68l4,0 0,4 -4,0 0,-4z M152,68l4,0 0,4 -4,0 0,-4z M164,68l4,0 0,4 -4,0 0,-4z M176,68l4,0 0,4 -4,0 0,-4z M192,68l4,0 0,4 -4,0 0,-4z M0,72l4,0 0,4 -4,0 0,-4z M4,72l4,0 0,4 -4,0 0,-4z M8,72l4,0 0,4 -4,0 0,-4z M12,72l4,0 0,4 -4,0 0,-4z M16,72l4,0 0,4 -4,0 0,-4z M24,72l4,0 0,4 -4,0 0,-4z M28,72l4,0 0,4 -4,0 0,-4z M32,72l4,0 0,4 -4,0 0,-4z M36,72l4,0 0,4 -4,0 0,-4z M44,72l4,0 0,4 -4,0 0,-4z M48,72l4,0 0,4 -4,0 0,-4z M68,72l4,0 0,4 -4,0 0,-4z M72,72l4,0 0,4 -4,0 0,-4z M84,72l4,0 0,4 -4,0 0,-4z M88,72l4,0 0,4 -4,0 0,-4z M96,72l4,0 0,4 -4,0 0,-4z M108,72l4,0 0,4 -4,0 0,-4z M120,72l4,0 0,4 -4,0 0,-4z M124,72l4,0 0,4 -4,0 0,-4z M136,72l4,0 0,4 -4,0 0,-4z M148,72l4,0 0,4 -4,0 0,-4z M176,72l4,0 0,4 -4,0 0,-4z M184,72l4,0 0,4 -4,0 0,-4z M188,72l4,0 0,4 -4,0 0,-4z M192,72l4,0 0,4 -4,0 0,-4z M0,76l4,0 0,4 -4,0 0,-4z M4,76l4,0 0,4 -4,0 0,-4z M16,76l4,0 0,4 -4,0 0,-4z M28,76l4,0 0,4 -4,0 0,-4z M32,76l4,0 0,4 -4,0 0,-4z M36,76l4,0 0,4 -4,0 0,-4z M40,76l4,0 0,4 -4,0 0,-4z M44,76l4,0 0,4 -4,0 0,-4z M52,76l4,0 0,4 -4,0 0,-4z M56,76l4,0 0,4 -4,0 0,-4z M60,76l4,0 0,4 -4,0 0,-4z M64,76l4,0 0,4 -4,0 0,-4z M72,76l4,0 0,4 -4,0 0,-4z M84,76l4,0 0,4 -4,0 0,-4z M88,76l4,0 0,4 -4,0 0,-4z M92,76l4,0 0,4 -4,0 0,-4z M96,76l4,0 0,4 -4,0 0,-4z M100,76l4,0 0,4 -4,0 0,-4z M104,76l4,0 0,4 -4,0 0,-4z M108,76l4,0 0,4 -4,0 0,-4z M116,76l4,0 0,4 -4,0 0,-4z M128,76l4,0 0,4 -4,0 0,-4z M136,76l4,0 0,4 -4,0 0,-4z M140,76l4,0 0,4 -4,0 0,-4z M144,76l4,0 0,4 -4,0 0,-4z M148,76l4,0 0,4 -4,0 0,-4z M156,76l4,0 0,4 -4,0 0,-4z M160,76l4,0 0,4 -4,0 0,-4z M164,76l4,0 0,4 -4,0 0,-4z M172,76l4,0 0,4 -4,0 0,-4z M176,76l4,0 0,4 -4,0 0,-4z M184,76l4,0 0,4 -4,0 0,-4z M188,76l4,0 0,4 -4,0 0,-4z M192,76l4,0 0,4 -4,0 0,-4z M4,80l4,0 0,4 -4,0 0,-4z M12,80l4,0 0,4 -4,0 0,-4z M20,80l4,0 0,4 -4,0 0,-4z M24,80l4,0 0,4 -4,0 0,-4z M32,80l4,0 0,4 -4,0 0,-4z M44,80l4,0 0,4 -4,0 0,-4z M48,80l4,0 0,4 -4,0 0,-4z M52,80l4,0 0,4 -4,0 0,-4z M56,80l4,0 0,4 -4,0 0,-4z M60,80l4,0 0,4 -4,0 0,-4z M64,80l4,0 0,4 -4,0 0,-4z M72,80l4,0 0,4 -4,0 0,-4z M76,80l4,0 0,4 -4,0 0,-4z M80,80l4,0 0,4 -4,0 0,-4z M96,80l4,0 0,4 -4,0 0,-4z M104,80l4,0 0,4 -4,0 0,-4z M108,80l4,0 0,4 -4,0 0,-4z M112,80l4,0 0,4 -4,0 0,-4z M124,80l4,0 0,4 -4,0 0,-4z M132,80l4,0 0,4 -4,0 0,-4z M136,80l4,0 0,4 -4,0 0,-4z M144,80l4,0 0,4 -4,0 0,-4z M148,80l4,0 0,4 -4,0 0,-4z M152,80l4,0 0,4 -4,0 0,-4z M164,80l4,0 0,4 -4,0 0,-4z M180,80l4,0 0,4 -4,0 0,-4z M188,80l4,0 0,4 -4,0 0,-4z M192,80l4,0 0,4 -4,0 0,-4z M0,84l4,0 0,4 -4,0 0,-4z M4,84l4,0 0,4 -4,0 0,-4z M16,84l4,0 0,4 -4,0 0,-4z M28,84l4,0 0,4 -4,0 0,-4z M32,84l4,0 0,4 -4,0 0,-4z M36,84l4,0 0,4 -4,0 0,-4z M40,84l4,0 0,4 -4,0 0,-4z M48,84l4,0 0,4 -4,0 0,-4z M56,84l4,0 0,4 -4,0 0,-4z M68,84l4,0 0,4 -4,0 0,-4z M72,84l4,0 0,4 -4,0 0,-4z M84,84l4,0 0,4 -4,0 0,-4z M88,84l4,0 0,4 -4,0 0,-4z M96,84l4,0 0,4 -4,0 0,-4z M104,84l4,0 0,4 -4,0 0,-4z M108,84l4,0 0,4 -4,0 0,-4z M124,84l4,0 0,4 -4,0 0,-4z M144,84l4,0 0,4 -4,0 0,-4z M148,84l4,0 0,4 -4,0 0,-4z M164,84l4,0 0,4 -4,0 0,-4z M176,84l4,0 0,4 -4,0 0,-4z M184,84l4,0 0,4 -4,0 0,-4z M188,84l4,0 0,4 -4,0 0,-4z M192,84l4,0 0,4 -4,0 0,-4z M4,88l4,0 0,4 -4,0 0,-4z M8,88l4,0 0,4 -4,0 0,-4z M16,88l4,0 0,4 -4,0 0,-4z M20,88l4,0 0,4 -4,0 0,-4z M24,88l4,0 0,4 -4,0 0,-4z M28,88l4,0 0,4 -4,0 0,-4z M32,88l4,0 0,4 -4,0 0,-4z M36,88l4,0 0,4 -4,0 0,-4z M40,88l4,0 0,4 -4,0 0,-4z M44,88l4,0 0,4 -4,0 0,-4z M48,88l4,0 0,4 -4,0 0,-4z M52,88l4,0 0,4 -4,0 0,-4z M56,88l4,0 0,4 -4,0 0,-4z M64,88l4,0 0,4 -4,0 0,-4z M76,88l4,0 0,4 -4,0 0,-4z M80,88l4,0 0,4 -4,0 0,-4z M88,88l4,0 0,4 -4,0 0,-4z M92,88l4,0 0,4 -4,0 0,-4z M96,88l4,0 0,4 -4,0 0,-4z M100,88l4,0 0,4 -4,0 0,-4z M104,88l4,0 0,4 -4,0 0,-4z M136,88l4,0 0,4 -4,0 0,-4z M140,88l4,0 0,4 -4,0 0,-4z M148,88l4,0 0,4 -4,0 0,-4z M160,88l4,0 0,4 -4,0 0,-4z M164,88l4,0 0,4 -4,0 0,-4z M168,88l4,0 0,4 -4,0 0,-4z M172,88l4,0 0,4 -4,0 0,-4z M176,88l4,0 0,4 -4,0 0,-4z M180,88l4,0 0,4 -4,0 0,-4z M188,88l4,0 0,4 -4,0 0,-4z M192,88l4,0 0,4 -4,0 0,-4z M4,92l4,0 0,4 -4,0 0,-4z M8,92l4,0 0,4 -4,0 0,-4z M12,92l4,0 0,4 -4,0 0,-4z M16,92l4,0 0,4 -4,0 0,-4z M32,92l4,0 0,4 -4,0 0,-4z M40,92l4,0 0,4 -4,0 0,-4z M44,92l4,0 0,4 -4,0 0,-4z M52,92l4,0 0,4 -4,0 0,-4z M56,92l4,0 0,4 -4,0 0,-4z M60,92l4,0 0,4 -4,0 0,-4z M68,92l4,0 0,4 -4,0 0,-4z M80,92l4,0 0,4 -4,0 0,-4z M84,92l4,0 0,4 -4,0 0,-4z M88,92l4,0 0,4 -4,0 0,-4z M104,92l4,0 0,4 -4,0 0,-4z M108,92l4,0 0,4 -4,0 0,-4z M112,92l4,0 0,4 -4,0 0,-4z M124,92l4,0 0,4 -4,0 0,-4z M136,92l4,0 0,4 -4,0 0,-4z M140,92l4,0 0,4 -4,0 0,-4z M144,92l4,0 0,4 -4,0 0,-4z M160,92l4,0 0,4 -4,0 0,-4z M176,92l4,0 0,4 -4,0 0,-4z M188,92l4,0 0,4 -4,0 0,-4z M192,92l4,0 0,4 -4,0 0,-4z M8,96l4,0 0,4 -4,0 0,-4z M16,96l4,0 0,4 -4,0 0,-4z M24,96l4,0 0,4 -4,0 0,-4z M32,96l4,0 0,4 -4,0 0,-4z M36,96l4,0 0,4 -4,0 0,-4z M44,96l4,0 0,4 -4,0 0,-4z M48,96l4,0 0,4 -4,0 0,-4z M56,96l4,0 0,4 -4,0 0,-4z M64,96l4,0 0,4 -4,0 0,-4z M88,96l4,0 0,4 -4,0 0,-4z M96,96l4,0 0,4 -4,0 0,-4z M104,96l4,0 0,4 -4,0 0,-4z M112,96l4,0 0,4 -4,0 0,-4z M116,96l4,0 0,4 -4,0 0,-4z M120,96l4,0 0,4 -4,0 0,-4z M124,96l4,0 0,4 -4,0 0,-4z M128,96l4,0 0,4 -4,0 0,-4z M132,96l4,0 0,4 -4,0 0,-4z M136,96l4,0 0,4 -4,0 0,-4z M140,96l4,0 0,4 -4,0 0,-4z M144,96l4,0 0,4 -4,0 0,-4z M148,96l4,0 0,4 -4,0 0,-4z M160,96l4,0 0,4 -4,0 0,-4z M168,96l4,0 0,4 -4,0 0,-4z M176,96l4,0 0,4 -4,0 0,-4z M180,96l4,0 0,4 -4,0 0,-4z M188,96l4,0 0,4 -4,0 0,-4z M0,100l4,0 0,4 -4,0 0,-4z M8,100l4,0 0,4 -4,0 0,-4z M16,100l4,0 0,4 -4,0 0,-4z M32,100l4,0 0,4 -4,0 0,-4z M36,100l4,0 0,4 -4,0 0,-4z M40,100l4,0 0,4 -4,0 0,-4z M44,100l4,0 0,4 -4,0 0,-4z M52,100l4,0 0,4 -4,0 0,-4z M56,100l4,0 0,4 -4,0 0,-4z M60,100l4,0 0,4 -4,0 0,-4z M68,100l4,0 0,4 -4,0 0,-4z M72,100l4,0 0,4 -4,0 0,-4z M76,100l4,0 0,4 -4,0 0,-4z M88,100l4,0 0,4 -4,0 0,-4z M104,100l4,0 0,4 -4,0 0,-4z M128,100l4,0 0,4 -4,0 0,-4z M136,100l4,0 0,4 -4,0 0,-4z M148,100l4,0 0,4 -4,0 0,-4z M156,100l4,0 0,4 -4,0 0,-4z M160,100l4,0 0,4 -4,0 0,-4z M176,100l4,0 0,4 -4,0 0,-4z M180,100l4,0 0,4 -4,0 0,-4z M184,100l4,0 0,4 -4,0 0,-4z M188,100l4,0 0,4 -4,0 0,-4z M192,100l4,0 0,4 -4,0 0,-4z M8,104l4,0 0,4 -4,0 0,-4z M16,104l4,0 0,4 -4,0 0,-4z M20,104l4,0 0,4 -4,0 0,-4z M24,104l4,0 0,4 -4,0 0,-4z M28,104l4,0 0,4 -4,0 0,-4z M32,104l4,0 0,4 -4,0 0,-4z M44,104l4,0 0,4 -4,0 0,-4z M52,104l4,0 0,4 -4,0 0,-4z M84,104l4,0 0,4 -4,0 0,-4z M88,104l4,0 0,4 -4,0 0,-4z M92,104l4,0 0,4 -4,0 0,-4z M96,104l4,0 0,4 -4,0 0,-4z M100,104l4,0 0,4 -4,0 0,-4z M104,104l4,0 0,4 -4,0 0,-4z M112,104l4,0 0,4 -4,0 0,-4z M124,104l4,0 0,4 -4,0 0,-4z M128,104l4,0 0,4 -4,0 0,-4z M136,104l4,0 0,4 -4,0 0,-4z M140,104l4,0 0,4 -4,0 0,-4z M148,104l4,0 0,4 -4,0 0,-4z M160,104l4,0 0,4 -4,0 0,-4z M164,104l4,0 0,4 -4,0 0,-4z M168,104l4,0 0,4 -4,0 0,-4z M172,104l4,0 0,4 -4,0 0,-4z M176,104l4,0 0,4 -4,0 0,-4z M180,104l4,0 0,4 -4,0 0,-4z M184,104l4,0 0,4 -4,0 0,-4z M192,104l4,0 0,4 -4,0 0,-4z M4,108l4,0 0,4 -4,0 0,-4z M8,108l4,0 0,4 -4,0 0,-4z M12,108l4,0 0,4 -4,0 0,-4z M28,108l4,0 0,4 -4,0 0,-4z M36,108l4,0 0,4 -4,0 0,-4z M44,108l4,0 0,4 -4,0 0,-4z M52,108l4,0 0,4 -4,0 0,-4z M56,108l4,0 0,4 -4,0 0,-4z M60,108l4,0 0,4 -4,0 0,-4z M64,108l4,0 0,4 -4,0 0,-4z M68,108l4,0 0,4 -4,0 0,-4z M72,108l4,0 0,4 -4,0 0,-4z M76,108l4,0 0,4 -4,0 0,-4z M80,108l4,0 0,4 -4,0 0,-4z M92,108l4,0 0,4 -4,0 0,-4z M100,108l4,0 0,4 -4,0 0,-4z M108,108l4,0 0,4 -4,0 0,-4z M112,108l4,0 0,4 -4,0 0,-4z M116,108l4,0 0,4 -4,0 0,-4z M124,108l4,0 0,4 -4,0 0,-4z M128,108l4,0 0,4 -4,0 0,-4z M132,108l4,0 0,4 -4,0 0,-4z M136,108l4,0 0,4 -4,0 0,-4z M144,108l4,0 0,4 -4,0 0,-4z M148,108l4,0 0,4 -4,0 0,-4z M160,108l4,0 0,4 -4,0 0,-4z M164,108l4,0 0,4 -4,0 0,-4z M168,108l4,0 0,4 -4,0 0,-4z M172,108l4,0 0,4 -4,0 0,-4z M4,112l4,0 0,4 -4,0 0,-4z M16,112l4,0 0,4 -4,0 0,-4z M20,112l4,0 0,4 -4,0 0,-4z M24,112l4,0 0,4 -4,0 0,-4z M36,112l4,0 0,4 -4,0 0,-4z M48,112l4,0 0,4 -4,0 0,-4z M56,112l4,0 0,4 -4,0 0,-4z M68,112l4,0 0,4 -4,0 0,-4z M72,112l4,0 0,4 -4,0 0,-4z M80,112l4,0 0,4 -4,0 0,-4z M96,112l4,0 0,4 -4,0 0,-4z M104,112l4,0 0,4 -4,0 0,-4z M108,112l4,0 0,4 -4,0 0,-4z M116,112l4,0 0,4 -4,0 0,-4z M128,112l4,0 0,4 -4,0 0,-4z M132,112l4,0 0,4 -4,0 0,-4z M140,112l4,0 0,4 -4,0 0,-4z M144,112l4,0 0,4 -4,0 0,-4z M180,112l4,0 0,4 -4,0 0,-4z M184,112l4,0 0,4 -4,0 0,-4z M192,112l4,0 0,4 -4,0 0,-4z M0,116l4,0 0,4 -4,0 0,-4z M16,116l4,0 0,4 -4,0 0,-4z M32,116l4,0 0,4 -4,0 0,-4z M44,116l4,0 0,4 -4,0 0,-4z M52,116l4,0 0,4 -4,0 0,-4z M60,116l4,0 0,4 -4,0 0,-4z M72,116l4,0 0,4 -4,0 0,-4z M76,116l4,0 0,4 -4,0 0,-4z M80,116l4,0 0,4 -4,0 0,-4z M84,116l4,0 0,4 -4,0 0,-4z M88,116l4,0 0,4 -4,0 0,-4z M92,116l4,0 0,4 -4,0 0,-4z M96,116l4,0 0,4 -4,0 0,-4z M100,116l4,0 0,4 -4,0 0,-4z M104,116l4,0 0,4 -4,0 0,-4z M108,116l4,0 0,4 -4,0 0,-4z M140,116l4,0 0,4 -4,0 0,-4z M148,116l4,0 0,4 -4,0 0,-4z M152,116l4,0 0,4 -4,0 0,-4z M160,116l4,0 0,4 -4,0 0,-4z M164,116l4,0 0,4 -4,0 0,-4z M176,116l4,0 0,4 -4,0 0,-4z M184,116l4,0 0,4 -4,0 0,-4z M192,116l4,0 0,4 -4,0 0,-4z M12,120l4,0 0,4 -4,0 0,-4z M16,120l4,0 0,4 -4,0 0,-4z M24,120l4,0 0,4 -4,0 0,-4z M28,120l4,0 0,4 -4,0 0,-4z M32,120l4,0 0,4 -4,0 0,-4z M36,120l4,0 0,4 -4,0 0,-4z M48,120l4,0 0,4 -4,0 0,-4z M52,120l4,0 0,4 -4,0 0,-4z M56,120l4,0 0,4 -4,0 0,-4z M64,120l4,0 0,4 -4,0 0,-4z M68,120l4,0 0,4 -4,0 0,-4z M72,120l4,0 0,4 -4,0 0,-4z M76,120l4,0 0,4 -4,0 0,-4z M80,120l4,0 0,4 -4,0 0,-4z M84,120l4,0 0,4 -4,0 0,-4z M104,120l4,0 0,4 -4,0 0,-4z M108,120l4,0 0,4 -4,0 0,-4z M112,120l4,0 0,4 -4,0 0,-4z M128,120l4,0 0,4 -4,0 0,-4z M132,120l4,0 0,4 -4,0 0,-4z M164,120l4,0 0,4 -4,0 0,-4z M168,120l4,0 0,4 -4,0 0,-4z M176,120l4,0 0,4 -4,0 0,-4z M180,120l4,0 0,4 -4,0 0,-4z M188,120l4,0 0,4 -4,0 0,-4z M192,120l4,0 0,4 -4,0 0,-4z M12,124l4,0 0,4 -4,0 0,-4z M16,124l4,0 0,4 -4,0 0,-4z M20,124l4,0 0,4 -4,0 0,-4z M32,124l4,0 0,4 -4,0 0,-4z M36,124l4,0 0,4 -4,0 0,-4z M44,124l4,0 0,4 -4,0 0,-4z M56,124l4,0 0,4 -4,0 0,-4z M60,124l4,0 0,4 -4,0 0,-4z M84,124l4,0 0,4 -4,0 0,-4z M96,124l4,0 0,4 -4,0 0,-4z M104,124l4,0 0,4 -4,0 0,-4z M112,124l4,0 0,4 -4,0 0,-4z M116,124l4,0 0,4 -4,0 0,-4z M124,124l4,0 0,4 -4,0 0,-4z M132,124l4,0 0,4 -4,0 0,-4z M136,124l4,0 0,4 -4,0 0,-4z M144,124l4,0 0,4 -4,0 0,-4z M164,124l4,0 0,4 -4,0 0,-4z M168,124l4,0 0,4 -4,0 0,-4z M184,124l4,0 0,4 -4,0 0,-4z M188,124l4,0 0,4 -4,0 0,-4z M192,124l4,0 0,4 -4,0 0,-4z M4,128l4,0 0,4 -4,0 0,-4z M16,128l4,0 0,4 -4,0 0,-4z M20,128l4,0 0,4 -4,0 0,-4z M24,128l4,0 0,4 -4,0 0,-4z M28,128l4,0 0,4 -4,0 0,-4z M32,128l4,0 0,4 -4,0 0,-4z M36,128l4,0 0,4 -4,0 0,-4z M40,128l4,0 0,4 -4,0 0,-4z M44,128l4,0 0,4 -4,0 0,-4z M52,128l4,0 0,4 -4,0 0,-4z M56,128l4,0 0,4 -4,0 0,-4z M64,128l4,0 0,4 -4,0 0,-4z M80,128l4,0 0,4 -4,0 0,-4z M88,128l4,0 0,4 -4,0 0,-4z M100,128l4,0 0,4 -4,0 0,-4z M112,128l4,0 0,4 -4,0 0,-4z M120,128l4,0 0,4 -4,0 0,-4z M132,128l4,0 0,4 -4,0 0,-4z M136,128l4,0 0,4 -4,0 0,-4z M144,128l4,0 0,4 -4,0 0,-4z M148,128l4,0 0,4 -4,0 0,-4z M152,128l4,0 0,4 -4,0 0,-4z M176,128l4,0 0,4 -4,0 0,-4z M188,128l4,0 0,4 -4,0 0,-4z M192,128l4,0 0,4 -4,0 0,-4z M0,132l4,0 0,4 -4,0 0,-4z M4,132l4,0 0,4 -4,0 0,-4z M16,132l4,0 0,4 -4,0 0,-4z M40,132l4,0 0,4 -4,0 0,-4z M52,132l4,0 0,4 -4,0 0,-4z M64,132l4,0 0,4 -4,0 0,-4z M68,132l4,0 0,4 -4,0 0,-4z M84,132l4,0 0,4 -4,0 0,-4z M88,132l4,0 0,4 -4,0 0,-4z M116,132l4,0 0,4 -4,0 0,-4z M132,132l4,0 0,4 -4,0 0,-4z M156,132l4,0 0,4 -4,0 0,-4z M168,132l4,0 0,4 -4,0 0,-4z M192,132l4,0 0,4 -4,0 0,-4z M4,136l4,0 0,4 -4,0 0,-4z M8,136l4,0 0,4 -4,0 0,-4z M12,136l4,0 0,4 -4,0 0,-4z M20,136l4,0 0,4 -4,0 0,-4z M24,136l4,0 0,4 -4,0 0,-4z M28,136l4,0 0,4 -4,0 0,-4z M32,136l4,0 0,4 -4,0 0,-4z M48,136l4,0 0,4 -4,0 0,-4z M60,136l4,0 0,4 -4,0 0,-4z M64,136l4,0 0,4 -4,0 0,-4z M72,136l4,0 0,4 -4,0 0,-4z M80,136l4,0 0,4 -4,0 0,-4z M104,136l4,0 0,4 -4,0 0,-4z M116,136l4,0 0,4 -4,0 0,-4z M120,136l4,0 0,4 -4,0 0,-4z M124,136l4,0 0,4 -4,0 0,-4z M128,136l4,0 0,4 -4,0 0,-4z M132,136l4,0 0,4 -4,0 0,-4z M160,136l4,0 0,4 -4,0 0,-4z M168,136l4,0 0,4 -4,0 0,-4z M172,136l4,0 0,4 -4,0 0,-4z M176,136l4,0 0,4 -4,0 0,-4z M188,136l4,0 0,4 -4,0 0,-4z M192,136l4,0 0,4 -4,0 0,-4z M0,140l4,0 0,4 -4,0 0,-4z M8,140l4,0 0,4 -4,0 0,-4z M28,140l4,0 0,4 -4,0 0,-4z M36,140l4,0 0,4 -4,0 0,-4z M40,140l4,0 0,4 -4,0 0,-4z M56,140l4,0 0,4 -4,0 0,-4z M64,140l4,0 0,4 -4,0 0,-4z M68,140l4,0 0,4 -4,0 0,-4z M80,140l4,0 0,4 -4,0 0,-4z M88,140l4,0 0,4 -4,0 0,-4z M92,140l4,0 0,4 -4,0 0,-4z M96,140l4,0 0,4 -4,0 0,-4z M100,140l4,0 0,4 -4,0 0,-4z M112,140l4,0 0,4 -4,0 0,-4z M116,140l4,0 0,4 -4,0 0,-4z M120,140l4,0 0,4 -4,0 0,-4z M124,140l4,0 0,4 -4,0 0,-4z M132,140l4,0 0,4 -4,0 0,-4z M144,140l4,0 0,4 -4,0 0,-4z M160,140l4,0 0,4 -4,0 0,-4z M168,140l4,0 0,4 -4,0 0,-4z M176,140l4,0 0,4 -4,0 0,-4z M188,140l4,0 0,4 -4,0 0,-4z M4,144l4,0 0,4 -4,0 0,-4z M16,144l4,0 0,4 -4,0 0,-4z M24,144l4,0 0,4 -4,0 0,-4z M40,144l4,0 0,4 -4,0 0,-4z M44,144l4,0 0,4 -4,0 0,-4z M52,144l4,0 0,4 -4,0 0,-4z M56,144l4,0 0,4 -4,0 0,-4z M64,144l4,0 0,4 -4,0 0,-4z M72,144l4,0 0,4 -4,0 0,-4z M84,144l4,0 0,4 -4,0 0,-4z M92,144l4,0 0,4 -4,0 0,-4z M108,144l4,0 0,4 -4,0 0,-4z M112,144l4,0 0,4 -4,0 0,-4z M116,144l4,0 0,4 -4,0 0,-4z M124,144l4,0 0,4 -4,0 0,-4z M128,144l4,0 0,4 -4,0 0,-4z M140,144l4,0 0,4 -4,0 0,-4z M144,144l4,0 0,4 -4,0 0,-4z M164,144l4,0 0,4 -4,0 0,-4z M168,144l4,0 0,4 -4,0 0,-4z M180,144l4,0 0,4 -4,0 0,-4z M192,144l4,0 0,4 -4,0 0,-4z M4,148l4,0 0,4 -4,0 0,-4z M12,148l4,0 0,4 -4,0 0,-4z M28,148l4,0 0,4 -4,0 0,-4z M44,148l4,0 0,4 -4,0 0,-4z M48,148l4,0 0,4 -4,0 0,-4z M64,148l4,0 0,4 -4,0 0,-4z M68,148l4,0 0,4 -4,0 0,-4z M76,148l4,0 0,4 -4,0 0,-4z M84,148l4,0 0,4 -4,0 0,-4z M100,148l4,0 0,4 -4,0 0,-4z M124,148l4,0 0,4 -4,0 0,-4z M136,148l4,0 0,4 -4,0 0,-4z M144,148l4,0 0,4 -4,0 0,-4z M148,148l4,0 0,4 -4,0 0,-4z M164,148l4,0 0,4 -4,0 0,-4z M168,148l4,0 0,4 -4,0 0,-4z M172,148l4,0 0,4 -4,0 0,-4z M180,148l4,0 0,4 -4,0 0,-4z M184,148l4,0 0,4 -4,0 0,-4z M188,148l4,0 0,4 -4,0 0,-4z M192,148l4,0 0,4 -4,0 0,-4z M4,152l4,0 0,4 -4,0 0,-4z M20,152l4,0 0,4 -4,0 0,-4z M24,152l4,0 0,4 -4,0 0,-4z M28,152l4,0 0,4 -4,0 0,-4z M32,152l4,0 0,4 -4,0 0,-4z M36,152l4,0 0,4 -4,0 0,-4z M44,152l4,0 0,4 -4,0 0,-4z M48,152l4,0 0,4 -4,0 0,-4z M52,152l4,0 0,4 -4,0 0,-4z M76,152l4,0 0,4 -4,0 0,-4z M84,152l4,0 0,4 -4,0 0,-4z M92,152l4,0 0,4 -4,0 0,-4z M112,152l4,0 0,4 -4,0 0,-4z M116,152l4,0 0,4 -4,0 0,-4z M128,152l4,0 0,4 -4,0 0,-4z M132,152l4,0 0,4 -4,0 0,-4z M140,152l4,0 0,4 -4,0 0,-4z M144,152l4,0 0,4 -4,0 0,-4z M152,152l4,0 0,4 -4,0 0,-4z M156,152l4,0 0,4 -4,0 0,-4z M168,152l4,0 0,4 -4,0 0,-4z M184,152l4,0 0,4 -4,0 0,-4z M188,152l4,0 0,4 -4,0 0,-4z M192,152l4,0 0,4 -4,0 0,-4z M4,156l4,0 0,4 -4,0 0,-4z M8,156l4,0 0,4 -4,0 0,-4z M12,156l4,0 0,4 -4,0 0,-4z M48,156l4,0 0,4 -4,0 0,-4z M52,156l4,0 0,4 -4,0 0,-4z M68,156l4,0 0,4 -4,0 0,-4z M76,156l4,0 0,4 -4,0 0,-4z M84,156l4,0 0,4 -4,0 0,-4z M100,156l4,0 0,4 -4,0 0,-4z M104,156l4,0 0,4 -4,0 0,-4z M112,156l4,0 0,4 -4,0 0,-4z M116,156l4,0 0,4 -4,0 0,-4z M124,156l4,0 0,4 -4,0 0,-4z M128,156l4,0 0,4 -4,0 0,-4z M136,156l4,0 0,4 -4,0 0,-4z M140,156l4,0 0,4 -4,0 0,-4z M144,156l4,0 0,4 -4,0 0,-4z M148,156l4,0 0,4 -4,0 0,-4z M160,156l4,0 0,4 -4,0 0,-4z M164,156l4,0 0,4 -4,0 0,-4z M168,156l4,0 0,4 -4,0 0,-4z M176,156l4,0 0,4 -4,0 0,-4z M192,156l4,0 0,4 -4,0 0,-4z M0,160l4,0 0,4 -4,0 0,-4z M4,160l4,0 0,4 -4,0 0,-4z M8,160l4,0 0,4 -4,0 0,-4z M24,160l4,0 0,4 -4,0 0,-4z M36,160l4,0 0,4 -4,0 0,-4z M48,160l4,0 0,4 -4,0 0,-4z M52,160l4,0 0,4 -4,0 0,-4z M68,160l4,0 0,4 -4,0 0,-4z M72,160l4,0 0,4 -4,0 0,-4z M84,160l4,0 0,4 -4,0 0,-4z M88,160l4,0 0,4 -4,0 0,-4z M92,160l4,0 0,4 -4,0 0,-4z M96,160l4,0 0,4 -4,0 0,-4z M100,160l4,0 0,4 -4,0 0,-4z M104,160l4,0 0,4 -4,0 0,-4z M108,160l4,0 0,4 -4,0 0,-4z M120,160l4,0 0,4 -4,0 0,-4z M128,160l4,0 0,4 -4,0 0,-4z M132,160l4,0 0,4 -4,0 0,-4z M140,160l4,0 0,4 -4,0 0,-4z M144,160l4,0 0,4 -4,0 0,-4z M160,160l4,0 0,4 -4,0 0,-4z M164,160l4,0 0,4 -4,0 0,-4z M168,160l4,0 0,4 -4,0 0,-4z M172,160l4,0 0,4 -4,0 0,-4z M176,160l4,0 0,4 -4,0 0,-4z M184,160l4,0 0,4 -4,0 0,-4z M192,160l4,0 0,4 -4,0 0,-4z M32,164l4,0 0,4 -4,0 0,-4z M36,164l4,0 0,4 -4,0 0,-4z M40,164l4,0 0,4 -4,0 0,-4z M44,164l4,0 0,4 -4,0 0,-4z M56,164l4,0 0,4 -4,0 0,-4z M68,164l4,0 0,4 -4,0 0,-4z M80,164l4,0 0,4 -4,0 0,-4z M84,164l4,0 0,4 -4,0 0,-4z M88,164l4,0 0,4 -4,0 0,-4z M104,164l4,0 0,4 -4,0 0,-4z M108,164l4,0 0,4 -4,0 0,-4z M116,164l4,0 0,4 -4,0 0,-4z M128,164l4,0 0,4 -4,0 0,-4z M152,164l4,0 0,4 -4,0 0,-4z M160,164l4,0 0,4 -4,0 0,-4z M176,164l4,0 0,4 -4,0 0,-4z M180,164l4,0 0,4 -4,0 0,-4z M192,164l4,0 0,4 -4,0 0,-4z M0,168l4,0 0,4 -4,0 0,-4z M4,168l4,0 0,4 -4,0 0,-4z M8,168l4,0 0,4 -4,0 0,-4z M12,168l4,0 0,4 -4,0 0,-4z M16,168l4,0 0,4 -4,0 0,-4z M20,168l4,0 0,4 -4,0 0,-4z M24,168l4,0 0,4 -4,0 0,-4z M36,168l4,0 0,4 -4,0 0,-4z M52,168l4,0 0,4 -4,0 0,-4z M56,168l4,0 0,4 -4,0 0,-4z M64,168l4,0 0,4 -4,0 0,-4z M72,168l4,0 0,4 -4,0 0,-4z M76,168l4,0 0,4 -4,0 0,-4z M80,168l4,0 0,4 -4,0 0,-4z M84,168l4,0 0,4 -4,0 0,-4z M88,168l4,0 0,4 -4,0 0,-4z M96,168l4,0 0,4 -4,0 0,-4z M104,168l4,0 0,4 -4,0 0,-4z M112,168l4,0 0,4 -4,0 0,-4z M116,168l4,0 0,4 -4,0 0,-4z M144,168l4,0 0,4 -4,0 0,-4z M148,168l4,0 0,4 -4,0 0,-4z M156,168l4,0 0,4 -4,0 0,-4z M160,168l4,0 0,4 -4,0 0,-4z M168,168l4,0 0,4 -4,0 0,-4z M176,168l4,0 0,4 -4,0 0,-4z M180,168l4,0 0,4 -4,0 0,-4z M188,168l4,0 0,4 -4,0 0,-4z M192,168l4,0 0,4 -4,0 0,-4z M0,172l4,0 0,4 -4,0 0,-4z M24,172l4,0 0,4 -4,0 0,-4z M32,172l4,0 0,4 -4,0 0,-4z M36,172l4,0 0,4 -4,0 0,-4z M44,172l4,0 0,4 -4,0 0,-4z M48,172l4,0 0,4 -4,0 0,-4z M60,172l4,0 0,4 -4,0 0,-4z M64,172l4,0 0,4 -4,0 0,-4z M80,172l4,0 0,4 -4,0 0,-4z M84,172l4,0 0,4 -4,0 0,-4z M88,172l4,0 0,4 -4,0 0,-4z M104,172l4,0 0,4 -4,0 0,-4z M120,172l4,0 0,4 -4,0 0,-4z M124,172l4,0 0,4 -4,0 0,-4z M128,172l4,0 0,4 -4,0 0,-4z M132,172l4,0 0,4 -4,0 0,-4z M140,172l4,0 0,4 -4,0 0,-4z M144,172l4,0 0,4 -4,0 0,-4z M148,172l4,0 0,4 -4,0 0,-4z M152,172l4,0 0,4 -4,0 0,-4z M160,172l4,0 0,4 -4,0 0,-4z M176,172l4,0 0,4 -4,0 0,-4z M184,172l4,0 0,4 -4,0 0,-4z M0,176l4,0 0,4 -4,0 0,-4z M8,176l4,0 0,4 -4,0 0,-4z M12,176l4,0 0,4 -4,0 0,-4z M16,176l4,0 0,4 -4,0 0,-4z M24,176l4,0 0,4 -4,0 0,-4z M36,176l4,0 0,4 -4,0 0,-4z M44,176l4,0 0,4 -4,0 0,-4z M48,176l4,0 0,4 -4,0 0,-4z M60,176l4,0 0,4 -4,0 0,-4z M64,176l4,0 0,4 -4,0 0,-4z M68,176l4,0 0,4 -4,0 0,-4z M84,176l4,0 0,4 -4,0 0,-4z M88,176l4,0 0,4 -4,0 0,-4z M92,176l4,0 0,4 -4,0 0,-4z M96,176l4,0 0,4 -4,0 0,-4z M100,176l4,0 0,4 -4,0 0,-4z M104,176l4,0 0,4 -4,0 0,-4z M108,176l4,0 0,4 -4,0 0,-4z M112,176l4,0 0,4 -4,0 0,-4z M116,176l4,0 0,4 -4,0 0,-4z M124,176l4,0 0,4 -4,0 0,-4z M136,176l4,0 0,4 -4,0 0,-4z M144,176l4,0 0,4 -4,0 0,-4z M148,176l4,0 0,4 -4,0 0,-4z M152,176l4,0 0,4 -4,0 0,-4z M156,176l4,0 0,4 -4,0 0,-4z M160,176l4,0 0,4 -4,0 0,-4z M164,176l4,0 0,4 -4,0 0,-4z M168,176l4,0 0,4 -4,0 0,-4z M172,176l4,0 0,4 -4,0 0,-4z M176,176l4,0 0,4 -4,0 0,-4z M180,176l4,0 0,4 -4,0 0,-4z M188,176l4,0 0,4 -4,0 0,-4z M0,180l4,0 0,4 -4,0 0,-4z M8,180l4,0 0,4 -4,0 0,-4z M12,180l4,0 0,4 -4,0 0,-4z M16,180l4,0 0,4 -4,0 0,-4z M24,180l4,0 0,4 -4,0 0,-4z M32,180l4,0 0,4 -4,0 0,-4z M40,180l4,0 0,4 -4,0 0,-4z M48,180l4,0 0,4 -4,0 0,-4z M52,180l4,0 0,4 -4,0 0,-4z M68,180l4,0 0,4 -4,0 0,-4z M80,180l4,0 0,4 -4,0 0,-4z M84,180l4,0 0,4 -4,0 0,-4z M88,180l4,0 0,4 -4,0 0,-4z M92,180l4,0 0,4 -4,0 0,-4z M96,180l4,0 0,4 -4,0 0,-4z M100,180l4,0 0,4 -4,0 0,-4z M108,180l4,0 0,4 -4,0 0,-4z M112,180l4,0 0,4 -4,0 0,-4z M144,180l4,0 0,4 -4,0 0,-4z M156,180l4,0 0,4 -4,0 0,-4z M160,180l4,0 0,4 -4,0 0,-4z M168,180l4,0 0,4 -4,0 0,-4z M176,180l4,0 0,4 -4,0 0,-4z M180,180l4,0 0,4 -4,0 0,-4z M188,180l4,0 0,4 -4,0 0,-4z M0,184l4,0 0,4 -4,0 0,-4z M8,184l4,0 0,4 -4,0 0,-4z M12,184l4,0 0,4 -4,0 0,-4z M16,184l4,0 0,4 -4,0 0,-4z M24,184l4,0 0,4 -4,0 0,-4z M40,184l4,0 0,4 -4,0 0,-4z M56,184l4,0 0,4 -4,0 0,-4z M64,184l4,0 0,4 -4,0 0,-4z M72,184l4,0 0,4 -4,0 0,-4z M76,184l4,0 0,4 -4,0 0,-4z M84,184l4,0 0,4 -4,0 0,-4z M92,184l4,0 0,4 -4,0 0,-4z M96,184l4,0 0,4 -4,0 0,-4z M104,184l4,0 0,4 -4,0 0,-4z M108,184l4,0 0,4 -4,0 0,-4z M112,184l4,0 0,4 -4,0 0,-4z M116,184l4,0 0,4 -4,0 0,-4z M128,184l4,0 0,4 -4,0 0,-4z M136,184l4,0 0,4 -4,0 0,-4z M140,184l4,0 0,4 -4,0 0,-4z M144,184l4,0 0,4 -4,0 0,-4z M148,184l4,0 0,4 -4,0 0,-4z M156,184l4,0 0,4 -4,0 0,-4z M164,184l4,0 0,4 -4,0 0,-4z M176,184l4,0 0,4 -4,0 0,-4z M180,184l4,0 0,4 -4,0 0,-4z M0,188l4,0 0,4 -4,0 0,-4z M24,188l4,0 0,4 -4,0 0,-4z M60,188l4,0 0,4 -4,0 0,-4z M64,188l4,0 0,4 -4,0 0,-4z M68,188l4,0 0,4 -4,0 0,-4z M72,188l4,0 0,4 -4,0 0,-4z M84,188l4,0 0,4 -4,0 0,-4z M96,188l4,0 0,4 -4,0 0,-4z M100,188l4,0 0,4 -4,0 0,-4z M104,188l4,0 0,4 -4,0 0,-4z M108,188l4,0 0,4 -4,0 0,-4z M116,188l4,0 0,4 -4,0 0,-4z M120,188l4,0 0,4 -4,0 0,-4z M124,188l4,0 0,4 -4,0 0,-4z M128,188l4,0 0,4 -4,0 0,-4z M136,188l4,0 0,4 -4,0 0,-4z M144,188l4,0 0,4 -4,0 0,-4z M148,188l4,0 0,4 -4,0 0,-4z M152,188l4,0 0,4 -4,0 0,-4z M156,188l4,0 0,4 -4,0 0,-4z M160,188l4,0 0,4 -4,0 0,-4z M164,188l4,0 0,4 -4,0 0,-4z M172,188l4,0 0,4 -4,0 0,-4z M176,188l4,0 0,4 -4,0 0,-4z M0,192l4,0 0,4 -4,0 0,-4z M4,192l4,0 0,4 -4,0 0,-4z M8,192l4,0 0,4 -4,0 0,-4z M12,192l4,0 0,4 -4,0 0,-4z M16,192l4,0 0,4 -4,0 0,-4z M20,192l4,0 0,4 -4,0 0,-4z M24,192l4,0 0,4 -4,0 0,-4z M32,192l4,0 0,4 -4,0 0,-4z M40,192l4,0 0,4 -4,0 0,-4z M44,192l4,0 0,4 -4,0 0,-4z M56,192l4,0 0,4 -4,0 0,-4z M60,192l4,0 0,4 -4,0 0,-4z M68,192l4,0 0,4 -4,0 0,-4z M72,192l4,0 0,4 -4,0 0,-4z M84,192l4,0 0,4 -4,0 0,-4z M88,192l4,0 0,4 -4,0 0,-4z M92,192l4,0 0,4 -4,0 0,-4z M100,192l4,0 0,4 -4,0 0,-4z M104,192l4,0 0,4 -4,0 0,-4z M108,192l4,0 0,4 -4,0 0,-4z M124,192l4,0 0,4 -4,0 0,-4z M140,192l4,0 0,4 -4,0 0,-4z M144,192l4,0 0,4 -4,0 0,-4z M152,192l4,0 0,4 -4,0 0,-4z M156,192l4,0 0,4 -4,0 0,-4z M176,192l4,0 0,4 -4,0 0,-4z M180,192l4,0 0,4 -4,0 0,-4z M188,192l4,0 0,4 -4,0 0,-4z M192,192l4,0 0,4 -4,0 0,-4z " stroke="transparent" fill="black"/></svg>