<svg version="1.1" xmlns="http://www.w3.org/2000/svg" width="196px" height="196px" viewBox="0 0 196 196"  preserveAspectRatio="xMinYMin meet"><rect width="100%" height="100%" fill="white" cx="0" cy="0"/><path d="M0,0l4,0 0,4 -4,0 0,-4z M4,0l4,0 0,4 -4,0 0,-4z M8,0l4,0 0,4 -4,0 0,-4z M12,0l4,0 0,4 -4,0 0,-4z M16,0l4,0 0,4 -4,0 0,-4z M20,0l4,0 0,4 -4,0 0,-4z M24,0l4,0 0,4 -4,0 0,-4z M36,0l4,0 0,4 -4,0 0,-4z M44,0l4,0 0,4 -4,0 0,-4z M52,0l4,0 0,4 -4,0 0,-4z M56,0l4,0 0,4 -4,0 0,-4z M68,0l4,0 0,4 -4,0 0,-4z M76,0l4,0 0,4 -4,0 0,-4z M92,0l4,0 0,4 -4,0 0,-4z M120,0l4,0 0,4 -4,0 0,-4z M124,0l4,0 0,4 -4,0 0,-4z M132,0l4,0 0,4 -4,0 0,-4z M140,0l4,0 0,4 -4,0 0,-4z M144,0l4,0 0,4 -4,0 0,-4z M160,0l4,0 0,4 -4,0 0,-4z M168,0l4,0 0,4 -4,0 0,-4z M172,0l4,0 0,4 -4,0 0,-4z M176,0l4,0 0,4 -4,0 0,-4z M180,0l4,0 0,4 -4,0 0,-4z M184,0l4,0 0,4 -4,0 0,-4z M188,0l4,0 0,4 -4,0 0,-4z M192,0l4,0 0,4 -4,0 0,-4z M0,4l4,0 0,4 -4,0 0,-4z M24,4l4,0 0,4 -4,0 0,-4z M36,4l4,0 0,4 -4,0 0,-4z M52,4l4,0 0,4 -4,0 0,-4z M56,4l4,0 0,4 -4,0 0,-4z M68,4l4,0 0,4 -4,0 0,-4z M76,4l4,0 0,4 -4,0 0,-4z M84,4l4,0 0,4 -4,0 0,-4z M88,4l4,0 0,4 -4,0 0,-4z M92,4l4,0 0,4 -4,0 0,-4z M100,4l4,0 0,4 -4,0 0,-4z M108,4l4,0 0,4 -4,0 0,-4z M116,4l4,0 0,4 -4,0 0,-4z M120,4l4,0 0,4 -4,0 0,-4z M144,4l4,0 0,4 -4,0 0,-4z M148,4l4,0 0,4 -4,0 0,-4z M152,4l4,0 0,4 -4,0 0,-4z M156,4l4,0 0,4 -4,0 0,-4z M160,4l4,0 0,4 -4,0 0,-4z M168,4l4,0 0,4 -4,0 0,-4z M192,4l4,0 0,4 -4,0 0,-4z M0,8l4,0 0,4 -4,0 0,-4z M8,8l4,0 0,4 -4,0 0,-4z M12,8l4,0 0,4 -4,0 0,-4z M16,8l4,0 0,4 -4,0 0,-4z M24,8l4,0 0,4 -4,0 0,-4z M32,8l4,0 0,4 -4,0 0,-4z M36,8l4,0 0,4 -4,0 0,-4z M40,8l4,0 0,4 -4,0 0,-4z M44,8l4,0 0,4 -4,0 0,-4z M48,8l4,0 0,4 -4,0 0,-4z M60,8l4,0 0,4 -4,0 0,-4z M88,8l4,0 0,4 -4,0 0,-4z M92,8l4,0 0,4 -4,0 0,-4z M96,8l4,0 0,4 -4,0 0,-4z M100,8l4,0 0,4 -4,0 0,-4z M104,8l4,0 0,4 -4,0 0,-4z M112,8l4,0 0,4 -4,0 0,-4z M120,8l4,0 0,4 -4,0 0,-4z M128,8l4,0 0,4 -4,0 0,-4z M132,8l4,0 0,4 -4,0 0,-4z M136,8l4,0 0,4 -4,0 0,-4z M156,8l4,0 0,4 -4,0 0,-4z M160,8l4,0 0,4 -4,0 0,-4z M168,8l4,0 0,4 -4,0 0,-4z M176,8l4,0 0,4 -4,0 0,-4z M180,8l4,0 0,4 -4,0 0,-4z M184,8l4,0 0,4 -4,0 0,-4z M192,8l4,0 0,4 -4,0 0,-4z M0,12l4,0 0,4 -4,0 0,-4z M8,12l4,0 0,4 -4,0 0,-4z M12,12l4,0 0,4 -4,0 0,-4z M16,12l4,0 0,4 -4,0 0,-4z M24,12l4,0 0,4 -4,0 0,-4z M32,12l4,0 0,4 -4,0 0,-4z M40,12l4,0 0,4 -4,0 0,-4z M48,12l4,0 0,4 -4,0 0,-4z M60,12l4,0 0,4 -4,0 0,-4z M64,12l4,0 0,4 -4,0 0,-4z M76,12l4,0 0,4 -4,0 0,-4z M88,12l4,0 0,4 -4,0 0,-4z M96,12l4,0 0,4 -4,0 0,-4z M104,12l4,0 0,4 -4,0 0,-4z M124,12l4,0 0,4 -4,0 0,-4z M132,12l4,0 0,4 -4,0 0,-4z M144,12l4,0 0,4 -4,0 0,-4z M148,12l4,0 0,4 -4,0 0,-4z M156,12l4,0 0,4 -4,0 0,-4z M168,12l4,0 0,4 -4,0 0,-4z M176,12l4,0 0,4 -4,0 0,-4z M180,12l4,0 0,4 -4,0 0,-4z M184,12l4,0 0,4 -4,0 0,-4z M192,12l4,0 0,4 -4,0 0,-4z M0,16l4,0 0,4 -4,0 0,-4z M8,16l4,0 0,4 -4,0 0,-4z M12,16l4,0 0,4 -4,0 0,-4z M16,16l4,0 0,4 -4,0 0,-4z M24,16l4,0 0,4 -4,0 0,-4z M32,16l4,0 0,4 -4,0 0,-4z M40,16l4,0 0,4 -4,0 0,-4z M52,16l4,0 0,4 -4,0 0,-4z M60,16l4,0 0,4 -4,0 0,-4z M84,16l4,0 0,4 -4,0 0,-4z M88,16l4,0 0,4 -4,0 0,-4z M92,16l4,0 0,4 -4,0 0,-4z M96,16l4,0 0,4 -4,0 0,-4z M100,16l4,0 0,4 -4,0 0,-4z M104,16l4,0 0,4 -4,0 0,-4z M116,16l4,0 0,4 -4,0 0,-4z M120,16l4,0 0,4 -4,0 0,-4z M124,16l4,0 0,4 -4,0 0,-4z M140,16l4,0 0,4 -4,0 0,-4z M144,16l4,0 0,4 -4,0 0,-4z M148,16l4,0 0,4 -4,0 0,-4z M168,16l4,0 0,4 -4,0 0,-4z M176,16l4,0 0,4 -4,0 0,-4z M180,16l4,0 0,4 -4,0 0,-4z M184,16l4,0 0,4 -4,0 0,-4z M192,16l4,0 0,4 -4,0 0,-4z M0,20l4,0 0,4 -4,0 0,-4z M24,20l4,0 0,4 -4,0 0,-4z M32,20l4,0 0,4 -4,0 0,-4z M40,20l4,0 0,4 -4,0 0,-4z M48,20l4,0 0,4 -4,0 0,-4z M60,20l4,0 0,4 -4,0 0,-4z M64,20l4,0 0,4 -4,0 0,-4z M68,20l4,0 0,4 -4,0 0,-4z M72,20l4,0 0,4 -4,0 0,-4z M76,20l4,0 0,4 -4,0 0,-4z M88,20l4,0 0,4 -4,0 0,-4z M104,20l4,0 0,4 -4,0 0,-4z M108,20l4,0 0,4 -4,0 0,-4z M112,20l4,0 0,4 -4,0 0,-4z M136,20l4,0 0,4 -4,0 0,-4z M140,20l4,0 0,4 -4,0 0,-4z M148,20l4,0 0,4 -4,0 0,-4z M152,20l4,0 0,4 -4,0 0,-4z M168,20l4,0 0,4 -4,0 0,-4z M192,20l4,0 0,4 -4,0 0,-4z M0,24l4,0 0,4 -4,0 0,-4z M4,24l4,0 0,4 -4,0 0,-4z M8,24l4,0 0,4 -4,0 0,-4z M12,24l4,0 0,4 -4,0 0,-4z M16,24l4,0 0,4 -4,0 0,-4z M20,24l4,0 0,4 -4,0 0,-4z M24,24l4,0 0,4 -4,0 0,-4z M32,24l4,0 0,4 -4,0 0,-4z M40,24l4,0 0,4 -4,0 0,-4z M48,24l4,0 0,4 -4,0 0,-4z M56,24l4,0 0,4 -4,0 0,-4z M64,24l4,0 0,4 -4,0 0,-4z M72,24l4,0 0,4 -4,0 0,-4z M80,24l4,0 0,4 -4,0 0,-4z M88,24l4,0 0,4 -4,0 0,-4z M96,24l4,0 0,4 -4,0 0,-4z M104,24l4,0 0,4 -4,0 0,-4z M112,24l4,0 0,4 -4,0 0,-4z M120,24l4,0 0,4 -4,0 0,-4z M128,24l4,0 0,4 -4,0 0,-4z M136,24l4,0 0,4 -4,0 0,-4z M144,24l4,0 0,4 -4,0 0,-4z M152,24l4,0 0,4 -4,0 0,-4z M160,24l4,0 0,4 -4,0 0,-4z M168,24l4,0 0,4 -4,0 0,-4z M172,24l4,0 0,4 -4,0 0,-4z M176,24l4,0 0,4 -4,0 0,-4z M180,24l4,0 0,4 -4,0 0,-4z M184,24l4,0 0,4 -4,0 0,-4z M188,24l4,0 0,4 -4,0 0,-4z M192,24l4,0 0,4 -4,0 0,-4z M32,28l4,0 0,4 -4,0 0,-4z M44,28l4,0 0,4 -4,0 0,-4z M56,28l4,0 0,4 -4,0 0,-4z M60,28l4,0 0,4 -4,0 0,-4z M68,28l4,0 0,4 -4,0 0,-4z M88,28l4,0 0,4 -4,0 0,-4z M104,28l4,0 0,4 -4,0 0,-4z M112,28l4,0 0,4 -4,0 0,-4z M116,28l4,0 0,4 -4,0 0,-4z M128,28l4,0 0,4 -4,0 0,-4z M132,28l4,0 0,4 -4,0 0,-4z M136,28l4,0 0,4 -4,0 0,-4z M148,28l4,0 0,4 -4,0 0,-4z M152,28l4,0 0,4 -4,0 0,-4z M156,28l4,0 0,4 -4,0 0,-4z M0,32l4,0 0,4 -4,0 0,-4z M8,32l4,0 0,4 -4,0 0,-4z M12,32l4,0 0,4 -4,0 0,-4z M16,32l4,0 0,4 -4,0 0,-4z M20,32l4,0 0,4 -4,0 0,-4z M24,32l4,0 0,4 -4,0 0,-4z M40,32l4,0 0,4 -4,0 0,-4z M44,32l4,0 0,4 -4,0 0,-4z M48,32l4,0 0,4 -4,0 0,-4z M52,32l4,0 0,4 -4,0 0,-4z M56,32l4,0 0,4 -4,0 0,-4z M60,32l4,0 0,4 -4,0 0,-4z M72,32l4,0 0,4 -4,0 0,-4z M76,32l4,0 0,4 -4,0 0,-4z M80,32l4,0 0,4 -4,0 0,-4z M84,32l4,0 0,4 -4,0 0,-4z M88,32l4,0 0,4 -4,0 0,-4z M92,32l4,0 0,4 -4,0 0,-4z M96,32l4,0 0,4 -4,0 0,-4z M100,32l4,0 0,4 -4,0 0,-4z M104,32l4,0 0,4 -4,0 0,-4z M116,32l4,0 0,4 -4,0 0,-4z M120,32l4,0 0,4 -4,0 0,-4z M140,32l4,0 0,4 -4,0 0,-4z M144,32l4,0 0,4 -4,0 0,-4z M148,32l4,0 0,4 -4,0 0,-4z M156,32l4,0 0,4 -4,0 0,-4z M168,32l4,0 0,4 -4,0 0,-4z M172,32l4,0 0,4 -4,0 0,-4z M176,32l4,0 0,4 -4,0 0,-4z M180,32l4,0 0,4 -4,0 0,-4z M184,32l4,0 0,4 -4,0 0,-4z M0,36l4,0 0,4 -4,0 0,-4z M12,36l4,0 0,4 -4,0 0,-4z M16,36l4,0 0,4 -4,0 0,-4z M20,36l4,0 0,4 -4,0 0,-4z M32,36l4,0 0,4 -4,0 0,-4z M52,36l4,0 0,4 -4,0 0,-4z M64,36l4,0 0,4 -4,0 0,-4z M76,36l4,0 0,4 -4,0 0,-4z M92,36l4,0 0,4 -4,0 0,-4z M96,36l4,0 0,4 -4,0 0,-4z M100,36l4,0 0,4 -4,0 0,-4z M112,36l4,0 0,4 -4,0 0,-4z M116,36l4,0 0,4 -4,0 0,-4z M120,36l4,0 0,4 -4,0 0,-4z M124,36l4,0 0,4 -4,0 0,-4z M132,36l4,0 0,4 -4,0 0,-4z M144,36l4,0 0,4 -4,0 0,-4z M156,36l4,0 0,4 -4,0 0,-4z M164,36l4,0 0,4 -4,0 0,-4z M168,36l4,0 0,4 -4,0 0,-4z M172,36l4,0 0,4 -4,0 0,-4z M176,36l4,0 0,4 -4,0 0,-4z M184,36l4,0 0,4 -4,0 0,-4z M0,40l4,0 0,4 -4,0 0,-4z M4,40l4,0 0,4 -4,0 0,-4z M12,40l4,0 0,4 -4,0 0,-4z M20,40l4,0 0,4 -4,0 0,-4z M24,40l4,0 0,4 -4,0 0,-4z M28,40l4,0 0,4 -4,0 0,-4z M48,40l4,0 0,4 -4,0 0,-4z M52,40l4,0 0,4 -4,0 0,-4z M72,40l4,0 0,4 -4,0 0,-4z M96,40l4,0 0,4 -4,0 0,-4z M100,40l4,0 0,4 -4,0 0,-4z M104,40l4,0 0,4 -4,0 0,-4z M112,40l4,0 0,4 -4,0 0,-4z M120,40l4,0 0,4 -4,0 0,-4z M128,40l4,0 0,4 -4,0 0,-4z M132,40l4,0 0,4 -4,0 0,-4z M136,40l4,0 0,4 -4,0 0,-4z M152,40l4,0 0,4 -4,0 0,-4z M164,40l4,0 0,4 -4,0 0,-4z M192,40l4,0 0,4 -4,0 0,-4z M4,44l4,0 0,4 -4,0 0,-4z M8,44l4,0 0,4 -4,0 0,-4z M12,44l4,0 0,4 -4,0 0,-4z M16,44l4,0 0,4 -4,0 0,-4z M40,44l4,0 0,4 -4,0 0,-4z M44,44l4,0 0,4 -4,0 0,-4z M48,44l4,0 0,4 -4,0 0,-4z M56,44l4,0 0,4 -4,0 0,-4z M60,44l4,0 0,4 -4,0 0,-4z M68,44l4,0 0,4 -4,0 0,-4z M92,44l4,0 0,4 -4,0 0,-4z M108,44l4,0 0,4 -4,0 0,-4z M112,44l4,0 0,4 -4,0 0,-4z M120,44l4,0 0,4 -4,0 0,-4z M124,44l4,0 0,4 -4,0 0,-4z M128,44l4,0 0,4 -4,0 0,-4z M136,44l4,0 0,4 -4,0 0,-4z M156,44l4,0 0,4 -4,0 0,-4z M160,44l4,0 0,4 -4,0 0,-4z M172,44l4,0 0,4 -4,0 0,-4z M176,44l4,0 0,4 -4,0 0,-4z M0,48l4,0 0,4 -4,0 0,-4z M4,48l4,0 0,4 -4,0 0,-4z M12,48l4,0 0,4 -4,0 0,-4z M20,48l4,0 0,4 -4,0 0,-4z M24,48l4,0 0,4 -4,0 0,-4z M28,48l4,0 0,4 -4,0 0,-4z M32,48l4,0 0,4 -4,0 0,-4z M48,48l4,0 0,4 -4,0 0,-4z M56,48l4,0 0,4 -4,0 0,-4z M88,48l4,0 0,4 -4,0 0,-4z M92,48l4,0 0,4 -4,0 0,-4z M96,48l4,0 0,4 -4,0 0,-4z M104,48l4,0 0,4 -4,0 0,-4z M124,48l4,0 0,4 -4,0 0,-4z M132,48l4,0 0,4 -4,0 0,-4z M136,48l4,0 0,4 -4,0 0,-4z M140,48l4,0 0,4 -4,0 0,-4z M144,48l4,0 0,4 -4,0 0,-4z M160,48l4,0 0,4 -4,0 0,-4z M172,48l4,0 0,4 -4,0 0,-4z M180,48l4,0 0,4 -4,0 0,-4z M184,48l4,0 0,4 -4,0 0,-4z M188,48l4,0 0,4 -4,0 0,-4z M0,52l4,0 0,4 -4,0 0,-4z M8,52l4,0 0,4 -4,0 0,-4z M16,52l4,0 0,4 -4,0 0,-4z M28,52l4,0 0,4 -4,0 0,-4z M40,52l4,0 0,4 -4,0 0,-4z M44,52l4,0 0,4 -4,0 0,-4z M48,52l4,0 0,4 -4,0 0,-4z M52,52l4,0 0,4 -4,0 0,-4z M56,52l4,0 0,4 -4,0 0,-4z M60,52l4,0 0,4 -4,0 0,-4z M72,52l4,0 0,4 -4,0 0,-4z M76,52l4,0 0,4 -4,0 0,-4z M80,52l4,0 0,4 -4,0 0,-4z M88,52l4,0 0,4 -4,0 0,-4z M92,52l4,0 0,4 -4,0 0,-4z M96,52l4,0 0,4 -4,0 0,-4z M100,52l4,0 0,4 -4,0 0,-4z M116,52l4,0 0,4 -4,0 0,-4z M120,52l4,0 0,4 -4,0 0,-4z M124,52l4,0 0,4 -4,0 0,-4z M144,52l4,0 0,4 -4,0 0,-4z M148,52l4,0 0,4 -4,0 0,-4z M168,52l4,0 0,4 -4,0 0,-4z M172,52l4,0 0,4 -4,0 0,-4z M184,52l4,0 0,4 -4,0 0,-4z M188,52l4,0 0,4 -4,0 0,-4z M0,56l4,0 0,4 -4,0 0,-4z M8,56l4,0 0,4 -4,0 0,-4z M12,56l4,0 0,4 -4,0 0,-4z M16,56l4,0 0,4 -4,0 0,-4z M24,56l4,0 0,4 -4,0 0,-4z M28,56l4,0 0,4 -4,0 0,-4z M36,56l4,0 0,4 -4,0 0,-4z M40,56l4,0 0,4 -4,0 0,-4z M44,56l4,0 0,4 -4,0 0,-4z M48,56l4,0 0,4 -4,0 0,-4z M64,56l4,0 0,4 -4,0 0,-4z M68,56l4,0 0,4 -4,0 0,-4z M80,56l4,0 0,4 -4,0 0,-4z M84,56l4,0 0,4 -4,0 0,-4z M88,56l4,0 0,4 -4,0 0,-4z M96,56l4,0 0,4 -4,0 0,-4z M104,56l4,0 0,4 -4,0 0,-4z M116,56l4,0 0,4 -4,0 0,-4z M124,56l4,0 0,4 -4,0 0,-4z M132,56l4,0 0,4 -4,0 0,-4z M136,56l4,0 0,4 -4,0 0,-4z M140,56l4,0 0,4 -4,0 0,-4z M144,56l4,0 0,4 -4,0 0,-4z M148,56l4,0 0,4 -4,0 0,-4z M152,56l4,0 0,4 -4,0 0,-4z M156,56l4,0 0,4 -4,0 0,-4z M172,56l4,0 0,4 -4,0 0,-4z M180,56l4,0 0,4 -4,0 0,-4z M184,56l4,0 0,4 -4,0 0,-4z M188,56l4,0 0,4 -4,0 0,-4z M192,56l4,0 0,4 -4,0 0,-4z M0,60l4,0 0,4 -4,0 0,-4z M4,60l4,0 0,4 -4,0 0,-4z M8,60l4,0 0,4 -4,0 0,-4z M20,60l4,0 0,4 -4,0 0,-4z M40,60l4,0 0,4 -4,0 0,-4z M44,60l4,0 0,4 -4,0 0,-4z M52,60l4,0 0,4 -4,0 0,-4z M56,60l4,0 0,4 -4,0 0,-4z M64,60l4,0 0,4 -4,0 0,-4z M76,60l4,0 0,4 -4,0 0,-4z M80,60l4,0 0,4 -4,0 0,-4z M88,60l4,0 0,4 -4,0 0,-4z M104,60l4,0 0,4 -4,0 0,-4z M108,60l4,0 0,4 -4,0 0,-4z M116,60l4,0 0,4 -4,0 0,-4z M136,60l4,0 0,4 -4,0 0,-4z M144,60l4,0 0,4 -4,0 0,-4z M148,60l4,0 0,4 -4,0 0,-4z M152,60l4,0 0,4 -4,0 0,-4z M156,60l4,0 0,4 -4,0 0,-4z M164,60l4,0 0,4 -4,0 0,-4z M168,60l4,0 0,4 -4,0 0,-4z M172,60l4,0 0,4 -4,0 0,-4z M176,60l4,0 0,4 -4,0 0,-4z M192,60l4,0 0,4 -4,0 0,-4z M0,64l4,0 0,4 -4,0 0,-4z M16,64l4,0 0,4 -4,0 0,-4z M20,64l4,0 0,4 -4,0 0,-4z M24,64l4,0 0,4 -4,0 0,-4z M32,64l4,0 0,4 -4,0 0,-4z M36,64l4,0 0,4 -4,0 0,-4z M52,64l4,0 0,4 -4,0 0,-4z M56,64l4,0 0,4 -4,0 0,-4z M60,64l4,0 0,4 -4,0 0,-4z M64,64l4,0 0,4 -4,0 0,-4z M68,64l4,0 0,4 -4,0 0,-4z M76,64l4,0 0,4 -4,0 0,-4z M80,64l4,0 0,4 -4,0 0,-4z M84,64l4,0 0,4 -4,0 0,-4z M96,64l4,0 0,4 -4,0 0,-4z M112,64l4,0 0,4 -4,0 0,-4z M124,64l4,0 0,4 -4,0 0,-4z M128,64l4,0 0,4 -4,0 0,-4z M132,64l4,0 0,4 -4,0 0,-4z M136,64l4,0 0,4 -4,0 0,-4z M140,64l4,0 0,4 -4,0 0,-4z M152,64l4,0 0,4 -4,0 0,-4z M156,64l4,0 0,4 -4,0 0,-4z M160,64l4,0 0,4 -4,0 0,-4z M168,64l4,0 0,4 -4,0 0,-4z M172,64l4,0 0,4 -4,0 0,-4z M180,64l4,0 0,4 -4,0 0,-4z M184,64l4,0 0,4 -4,0 0,-4z M0,68l4,0 0,4 -4,0 0,-4z M8,68l4,0 0,4 -4,0 0,-4z M28,68l4,0 0,4 -4,0 0,-4z M32,68l4,0 0,4 -4,0 0,-4z M36,68l4,0 0,4 -4,0 0,-4z M48,68l4,0 0,4 -4,0 0,-4z M68,68l4,0 0,4 -4,0 0,-4z M72,68l4,0 0,4 -4,0 0,-4z M76,68l4,0 0,4 -4,0 0,-4z M88,68l4,0 0,4 -4,0 0,-4z M92,68l4,0 0,4 -4,0 0,-4z M100,68l4,0 0,4 -4,0 0,-4z M108,68l4,0 0,4 -4,0 0,-4z M112,68l4,0 0,4 -4,0 0,-4z M116,68l4,0 0,4 -4,0 0,-4z M128,68l4,0 0,4 -4,0 0,-4z M136,68l4,0 0,4 -4,0 0,-4z M148,68l4,0 0,4 -4,0 0,-4z M152,68l4,0 0,4 -4,0 0,-4z M164,68l4,0 0,4 -4,0 0,-4z M168,68l4,0 0,4 -4,0 0,-4z M172,68l4,0 0,4 -4,0 0,-4z M0,72l4,0 0,4 -4,0 0,-4z M4,72l4,0 0,4 -4,0 0,-4z M12,72l4,0 0,4 -4,0 0,-4z M24,72l4,0 0,4 -4,0 0,-4z M28,72l4,0 0,4 -4,0 0,-4z M40,72l4,0 0,4 -4,0 0,-4z M44,72l4,0 0,4 -4,0 0,-4z M48,72l4,0 0,4 -4,0 0,-4z M56,72l4,0 0,4 -4,0 0,-4z M68,72l4,0 0,4 -4,0 0,-4z M72,72l4,0 0,4 -4,0 0,-4z M76,72l4,0 0,4 -4,0 0,-4z M96,72l4,0 0,4 -4,0 0,-4z M104,72l4,0 0,4 -4,0 0,-4z M112,72l4,0 0,4 -4,0 0,-4z M120,72l4,0 0,4 -4,0 0,-4z M124,72l4,0 0,4 -4,0 0,-4z M128,72l4,0 0,4 -4,0 0,-4z M132,72l4,0 0,4 -4,0 0,-4z M140,72l4,0 0,4 -4,0 0,-4z M156,72l4,0 0,4 -4,0 0,-4z M160,72l4,0 0,4 -4,0 0,-4z M180,72l4,0 0,4 -4,0 0,-4z M188,72l4,0 0,4 -4,0 0,-4z M192,72l4,0 0,4 -4,0 0,-4z M4,76l4,0 0,4 -4,0 0,-4z M8,76l4,0 0,4 -4,0 0,-4z M20,76l4,0 0,4 -4,0 0,-4z M32,76l4,0 0,4 -4,0 0,-4z M36,76l4,0 0,4 -4,0 0,-4z M44,76l4,0 0,4 -4,0 0,-4z M48,76l4,0 0,4 -4,0 0,-4z M52,76l4,0 0,4 -4,0 0,-4z M56,76l4,0 0,4 -4,0 0,-4z M60,76l4,0 0,4 -4,0 0,-4z M64,76l4,0 0,4 -4,0 0,-4z M68,76l4,0 0,4 -4,0 0,-4z M84,76l4,0 0,4 -4,0 0,-4z M100,76l4,0 0,4 -4,0 0,-4z M104,76l4,0 0,4 -4,0 0,-4z M108,76l4,0 0,4 -4,0 0,-4z M112,76l4,0 0,4 -4,0 0,-4z M120,76l4,0 0,4 -4,0 0,-4z M128,76l4,0 0,4 -4,0 0,-4z M148,76l4,0 0,4 -4,0 0,-4z M156,76l4,0 0,4 -4,0 0,-4z M168,76l4,0 0,4 -4,0 0,-4z M172,76l4,0 0,4 -4,0 0,-4z M176,76l4,0 0,4 -4,0 0,-4z M188,76l4,0 0,4 -4,0 0,-4z M192,76l4,0 0,4 -4,0 0,-4z M16,80l4,0 0,4 -4,0 0,-4z M24,80l4,0 0,4 -4,0 0,-4z M28,80l4,0 0,4 -4,0 0,-4z M36,80l4,0 0,4 -4,0 0,-4z M40,80l4,0 0,4 -4,0 0,-4z M52,80l4,0 0,4 -4,0 0,-4z M56,80l4,0 0,4 -4,0 0,-4z M60,80l4,0 0,4 -4,0 0,-4z M68,80l4,0 0,4 -4,0 0,-4z M72,80l4,0 0,4 -4,0 0,-4z M76,80l4,0 0,4 -4,0 0,-4z M80,80l4,0 0,4 -4,0 0,-4z M84,80l4,0 0,4 -4,0 0,-4z M88,80l4,0 0,4 -4,0 0,-4z M92,80l4,0 0,4 -4,0 0,-4z M96,80l4,0 0,4 -4,0 0,-4z M104,80l4,0 0,4 -4,0 0,-4z M116,80l4,0 0,4 -4,0 0,-4z M124,80l4,0 0,4 -4,0 0,-4z M140,80l4,0 0,4 -4,0 0,-4z M144,80l4,0 0,4 -4,0 0,-4z M148,80l4,0 0,4 -4,0 0,-4z M152,80l4,0 0,4 -4,0 0,-4z M156,80l4,0 0,4 -4,0 0,-4z M160,80l4,0 0,4 -4,0 0,-4z M184,80l4,0 0,4 -4,0 0,-4z M0,84l4,0 0,4 -4,0 0,-4z M16,84l4,0 0,4 -4,0 0,-4z M32,84l4,0 0,4 -4,0 0,-4z M36,84l4,0 0,4 -4,0 0,-4z M40,84l4,0 0,4 -4,0 0,-4z M44,84l4,0 0,4 -4,0 0,-4z M52,84l4,0 0,4 -4,0 0,-4z M56,84l4,0 0,4 -4,0 0,-4z M60,84l4,0 0,4 -4,0 0,-4z M64,84l4,0 0,4 -4,0 0,-4z M76,84l4,0 0,4 -4,0 0,-4z M84,84l4,0 0,4 -4,0 0,-4z M88,84l4,0 0,4 -4,0 0,-4z M92,84l4,0 0,4 -4,0 0,-4z M100,84l4,0 0,4 -4,0 0,-4z M104,84l4,0 0,4 -4,0 0,-4z M108,84l4,0 0,4 -4,0 0,-4z M116,84l4,0 0,4 -4,0 0,-4z M120,84l4,0 0,4 -4,0 0,-4z M140,84l4,0 0,4 -4,0 0,-4z M168,84l4,0 0,4 -4,0 0,-4z M172,84l4,0 0,4 -4,0 0,-4z M176,84l4,0 0,4 -4,0 0,-4z M184,84l4,0 0,4 -4,0 0,-4z M12,88l4,0 0,4 -4,0 0,-4z M16,88l4,0 0,4 -4,0 0,-4z M20,88l4,0 0,4 -4,0 0,-4z M24,88l4,0 0,4 -4,0 0,-4z M28,88l4,0 0,4 -4,0 0,-4z M32,88l4,0 0,4 -4,0 0,-4z M36,88l4,0 0,4 -4,0 0,-4z M40,88l4,0 0,4 -4,0 0,-4z M52,88l4,0 0,4 -4,0 0,-4z M56,88l4,0 0,4 -4,0 0,-4z M68,88l4,0 0,4 -4,0 0,-4z M72,88l4,0 0,4 -4,0 0,-4z M84,88l4,0 0,4 -4,0 0,-4z M88,88l4,0 0,4 -4,0 0,-4z M92,88l4,0 0,4 -4,0 0,-4z M96,88l4,0 0,4 -4,0 0,-4z M100,88l4,0 0,4 -4,0 0,-4z M104,88l4,0 0,4 -4,0 0,-4z M108,88l4,0 0,4 -4,0 0,-4z M124,88l4,0 0,4 -4,0 0,-4z M128,88l4,0 0,4 -4,0 0,-4z M132,88l4,0 0,4 -4,0 0,-4z M136,88l4,0 0,4 -4,0 0,-4z M140,88l4,0 0,4 -4,0 0,-4z M152,88l4,0 0,4 -4,0 0,-4z M156,88l4,0 0,4 -4,0 0,-4z M160,88l4,0 0,4 -4,0 0,-4z M164,88l4,0 0,4 -4,0 0,-4z M168,88l4,0 0,4 -4,0 0,-4z M172,88l4,0 0,4 -4,0 0,-4z M176,88l4,0 0,4 -4,0 0,-4z M188,88l4,0 0,4 -4,0 0,-4z M192,88l4,0 0,4 -4,0 0,-4z M0,92l4,0 0,4 -4,0 0,-4z M12,92l4,0 0,4 -4,0 0,-4z M16,92l4,0 0,4 -4,0 0,-4z M32,92l4,0 0,4 -4,0 0,-4z M40,92l4,0 0,4 -4,0 0,-4z M44,92l4,0 0,4 -4,0 0,-4z M48,92l4,0 0,4 -4,0 0,-4z M52,92l4,0 0,4 -4,0 0,-4z M56,92l4,0 0,4 -4,0 0,-4z M64,92l4,0 0,4 -4,0 0,-4z M72,92l4,0 0,4 -4,0 0,-4z M76,92l4,0 0,4 -4,0 0,-4z M84,92l4,0 0,4 -4,0 0,-4z M88,92l4,0 0,4 -4,0 0,-4z M104,92l4,0 0,4 -4,0 0,-4z M108,92l4,0 0,4 -4,0 0,-4z M112,92l4,0 0,4 -4,0 0,-4z M120,92l4,0 0,4 -4,0 0,-4z M128,92l4,0 0,4 -4,0 0,-4z M136,92l4,0 0,4 -4,0 0,-4z M140,92l4,0 0,4 -4,0 0,-4z M148,92l4,0 0,4 -4,0 0,-4z M152,92l4,0 0,4 -4,0 0,-4z M160,92l4,0 0,4 -4,0 0,-4z M176,92l4,0 0,4 -4,0 0,-4z M188,92l4,0 0,4 -4,0 0,-4z M8,96l4,0 0,4 -4,0 0,-4z M12,96l4,0 0,4 -4,0 0,-4z M16,96l4,0 0,4 -4,0 0,-4z M24,96l4,0 0,4 -4,0 0,-4z M32,96l4,0 0,4 -4,0 0,-4z M36,96l4,0 0,4 -4,0 0,-4z M44,96l4,0 0,4 -4,0 0,-4z M56,96l4,0 0,4 -4,0 0,-4z M60,96l4,0 0,4 -4,0 0,-4z M64,96l4,0 0,4 -4,0 0,-4z M68,96l4,0 0,4 -4,0 0,-4z M80,96l4,0 0,4 -4,0 0,-4z M84,96l4,0 0,4 -4,0 0,-4z M88,96l4,0 0,4 -4,0 0,-4z M96,96l4,0 0,4 -4,0 0,-4z M104,96l4,0 0,4 -4,0 0,-4z M108,96l4,0 0,4 -4,0 0,-4z M116,96l4,0 0,4 -4,0 0,-4z M120,96l4,0 0,4 -4,0 0,-4z M124,96l4,0 0,4 -4,0 0,-4z M140,96l4,0 0,4 -4,0 0,-4z M144,96l4,0 0,4 -4,0 0,-4z M148,96l4,0 0,4 -4,0 0,-4z M152,96l4,0 0,4 -4,0 0,-4z M156,96l4,0 0,4 -4,0 0,-4z M160,96l4,0 0,4 -4,0 0,-4z M168,96l4,0 0,4 -4,0 0,-4z M176,96l4,0 0,4 -4,0 0,-4z M184,96l4,0 0,4 -4,0 0,-4z M188,96l4,0 0,4 -4,0 0,-4z M0,100l4,0 0,4 -4,0 0,-4z M4,100l4,0 0,4 -4,0 0,-4z M8,100l4,0 0,4 -4,0 0,-4z M16,100l4,0 0,4 -4,0 0,-4z M32,100l4,0 0,4 -4,0 0,-4z M48,100l4,0 0,4 -4,0 0,-4z M60,100l4,0 0,4 -4,0 0,-4z M76,100l4,0 0,4 -4,0 0,-4z M88,100l4,0 0,4 -4,0 0,-4z M104,100l4,0 0,4 -4,0 0,-4z M112,100l4,0 0,4 -4,0 0,-4z M116,100l4,0 0,4 -4,0 0,-4z M120,100l4,0 0,4 -4,0 0,-4z M128,100l4,0 0,4 -4,0 0,-4z M140,100l4,0 0,4 -4,0 0,-4z M144,100l4,0 0,4 -4,0 0,-4z M148,100l4,0 0,4 -4,0 0,-4z M156,100l4,0 0,4 -4,0 0,-4z M160,100l4,0 0,4 -4,0 0,-4z M176,100l4,0 0,4 -4,0 0,-4z M180,100l4,0 0,4 -4,0 0,-4z M16,104l4,0 0,4 -4,0 0,-4z M20,104l4,0 0,4 -4,0 0,-4z M24,104l4,0 0,4 -4,0 0,-4z M28,104l4,0 0,4 -4,0 0,-4z M32,104l4,0 0,4 -4,0 0,-4z M36,104l4,0 0,4 -4,0 0,-4z M44,104l4,0 0,4 -4,0 0,-4z M52,104l4,0 0,4 -4,0 0,-4z M60,104l4,0 0,4 -4,0 0,-4z M64,104l4,0 0,4 -4,0 0,-4z M88,104l4,0 0,4 -4,0 0,-4z M92,104l4,0 0,4 -4,0 0,-4z M96,104l4,0 0,4 -4,0 0,-4z M100,104l4,0 0,4 -4,0 0,-4z M104,104l4,0 0,4 -4,0 0,-4z M108,104l4,0 0,4 -4,0 0,-4z M116,104l4,0 0,4 -4,0 0,-4z M124,104l4,0 0,4 -4,0 0,-4z M128,104l4,0 0,4 -4,0 0,-4z M132,104l4,0 0,4 -4,0 0,-4z M148,104l4,0 0,4 -4,0 0,-4z M156,104l4,0 0,4 -4,0 0,-4z M160,104l4,0 0,4 -4,0 0,-4z M164,104l4,0 0,4 -4,0 0,-4z M168,104l4,0 0,4 -4,0 0,-4z M172,104l4,0 0,4 -4,0 0,-4z M176,104l4,0 0,4 -4,0 0,-4z M188,104l4,0 0,4 -4,0 0,-4z M192,104l4,0 0,4 -4,0 0,-4z M0,108l4,0 0,4 -4,0 0,-4z M8,108l4,0 0,4 -4,0 0,-4z M20,108l4,0 0,4 -4,0 0,-4z M28,108l4,0 0,4 -4,0 0,-4z M32,108l4,0 0,4 -4,0 0,-4z M36,108l4,0 0,4 -4,0 0,-4z M44,108l4,0 0,4 -4,0 0,-4z M68,108l4,0 0,4 -4,0 0,-4z M72,108l4,0 0,4 -4,0 0,-4z M80,108l4,0 0,4 -4,0 0,-4z M84,108l4,0 0,4 -4,0 0,-4z M96,108l4,0 0,4 -4,0 0,-4z M108,108l4,0 0,4 -4,0 0,-4z M112,108l4,0 0,4 -4,0 0,-4z M120,108l4,0 0,4 -4,0 0,-4z M128,108l4,0 0,4 -4,0 0,-4z M132,108l4,0 0,4 -4,0 0,-4z M136,108l4,0 0,4 -4,0 0,-4z M140,108l4,0 0,4 -4,0 0,-4z M160,108l4,0 0,4 -4,0 0,-4z M188,108l4,0 0,4 -4,0 0,-4z M192,108l4,0 0,4 -4,0 0,-4z M24,112l4,0 0,4 -4,0 0,-4z M32,112l4,0 0,4 -4,0 0,-4z M36,112l4,0 0,4 -4,0 0,-4z M48,112l4,0 0,4 -4,0 0,-4z M60,112l4,0 0,4 -4,0 0,-4z M72,112l4,0 0,4 -4,0 0,-4z M76,112l4,0 0,4 -4,0 0,-4z M84,112l4,0 0,4 -4,0 0,-4z M88,112l4,0 0,4 -4,0 0,-4z M96,112l4,0 0,4 -4,0 0,-4z M100,112l4,0 0,4 -4,0 0,-4z M116,112l4,0 0,4 -4,0 0,-4z M124,112l4,0 0,4 -4,0 0,-4z M140,112l4,0 0,4 -4,0 0,-4z M144,112l4,0 0,4 -4,0 0,-4z M148,112l4,0 0,4 -4,0 0,-4z M152,112l4,0 0,4 -4,0 0,-4z M156,112l4,0 0,4 -4,0 0,-4z M168,112l4,0 0,4 -4,0 0,-4z M172,112l4,0 0,4 -4,0 0,-4z M176,112l4,0 0,4 -4,0 0,-4z M184,112l4,0 0,4 -4,0 0,-4z M192,112l4,0 0,4 -4,0 0,-4z M4,116l4,0 0,4 -4,0 0,-4z M16,116l4,0 0,4 -4,0 0,-4z M28,116l4,0 0,4 -4,0 0,-4z M32,116l4,0 0,4 -4,0 0,-4z M36,116l4,0 0,4 -4,0 0,-4z M44,116l4,0 0,4 -4,0 0,-4z M48,116l4,0 0,4 -4,0 0,-4z M56,116l4,0 0,4 -4,0 0,-4z M60,116l4,0 0,4 -4,0 0,-4z M68,116l4,0 0,4 -4,0 0,-4z M84,116l4,0 0,4 -4,0 0,-4z M92,116l4,0 0,4 -4,0 0,-4z M108,116l4,0 0,4 -4,0 0,-4z M120,116l4,0 0,4 -4,0 0,-4z M124,116l4,0 0,4 -4,0 0,-4z M128,116l4,0 0,4 -4,0 0,-4z M140,116l4,0 0,4 -4,0 0,-4z M144,116l4,0 0,4 -4,0 0,-4z M156,116l4,0 0,4 -4,0 0,-4z M168,116l4,0 0,4 -4,0 0,-4z M172,116l4,0 0,4 -4,0 0,-4z M4,120l4,0 0,4 -4,0 0,-4z M12,120l4,0 0,4 -4,0 0,-4z M20,120l4,0 0,4 -4,0 0,-4z M24,120l4,0 0,4 -4,0 0,-4z M28,120l4,0 0,4 -4,0 0,-4z M40,120l4,0 0,4 -4,0 0,-4z M48,120l4,0 0,4 -4,0 0,-4z M52,120l4,0 0,4 -4,0 0,-4z M56,120l4,0 0,4 -4,0 0,-4z M60,120l4,0 0,4 -4,0 0,-4z M76,120l4,0 0,4 -4,0 0,-4z M88,120l4,0 0,4 -4,0 0,-4z M136,120l4,0 0,4 -4,0 0,-4z M152,120l4,0 0,4 -4,0 0,-4z M160,120l4,0 0,4 -4,0 0,-4z M164,120l4,0 0,4 -4,0 0,-4z M168,120l4,0 0,4 -4,0 0,-4z M176,120l4,0 0,4 -4,0 0,-4z M180,120l4,0 0,4 -4,0 0,-4z M184,120l4,0 0,4 -4,0 0,-4z M188,120l4,0 0,4 -4,0 0,-4z M192,120l4,0 0,4 -4,0 0,-4z M0,124l4,0 0,4 -4,0 0,-4z M8,124l4,0 0,4 -4,0 0,-4z M20,124l4,0 0,4 -4,0 0,-4z M36,124l4,0 0,4 -4,0 0,-4z M48,124l4,0 0,4 -4,0 0,-4z M60,124l4,0 0,4 -4,0 0,-4z M64,124l4,0 0,4 -4,0 0,-4z M72,124l4,0 0,4 -4,0 0,-4z M84,124l4,0 0,4 -4,0 0,-4z M92,124l4,0 0,4 -4,0 0,-4z M104,124l4,0 0,4 -4,0 0,-4z M120,124l4,0 0,4 -4,0 0,-4z M124,124l4,0 0,4 -4,0 0,-4z M132,124l4,0 0,4 -4,0 0,-4z M140,124l4,0 0,4 -4,0 0,-4z M144,124l4,0 0,4 -4,0 0,-4z M160,124l4,0 0,4 -4,0 0,-4z M172,124l4,0 0,4 -4,0 0,-4z M176,124l4,0 0,4 -4,0 0,-4z M192,124l4,0 0,4 -4,0 0,-4z M0,128l4,0 0,4 -4,0 0,-4z M8,128l4,0 0,4 -4,0 0,-4z M12,128l4,0 0,4 -4,0 0,-4z M24,128l4,0 0,4 -4,0 0,-4z M28,128l4,0 0,4 -4,0 0,-4z M32,128l4,0 0,4 -4,0 0,-4z M36,128l4,0 0,4 -4,0 0,-4z M40,128l4,0 0,4 -4,0 0,-4z M44,128l4,0 0,4 -4,0 0,-4z M56,128l4,0 0,4 -4,0 0,-4z M60,128l4,0 0,4 -4,0 0,-4z M64,128l4,0 0,4 -4,0 0,-4z M68,128l4,0 0,4 -4,0 0,-4z M80,128l4,0 0,4 -4,0 0,-4z M84,128l4,0 0,4 -4,0 0,-4z M100,128l4,0 0,4 -4,0 0,-4z M108,128l4,0 0,4 -4,0 0,-4z M116,128l4,0 0,4 -4,0 0,-4z M120,128l4,0 0,4 -4,0 0,-4z M144,128l4,0 0,4 -4,0 0,-4z M148,128l4,0 0,4 -4,0 0,-4z M156,128l4,0 0,4 -4,0 0,-4z M160,128l4,0 0,4 -4,0 0,-4z M164,128l4,0 0,4 -4,0 0,-4z M176,128l4,0 0,4 -4,0 0,-4z M180,128l4,0 0,4 -4,0 0,-4z M184,128l4,0 0,4 -4,0 0,-4z M188,128l4,0 0,4 -4,0 0,-4z M0,132l4,0 0,4 -4,0 0,-4z M8,132l4,0 0,4 -4,0 0,-4z M20,132l4,0 0,4 -4,0 0,-4z M28,132l4,0 0,4 -4,0 0,-4z M32,132l4,0 0,4 -4,0 0,-4z M36,132l4,0 0,4 -4,0 0,-4z M40,132l4,0 0,4 -4,0 0,-4z M52,132l4,0 0,4 -4,0 0,-4z M56,132l4,0 0,4 -4,0 0,-4z M72,132l4,0 0,4 -4,0 0,-4z M76,132l4,0 0,4 -4,0 0,-4z M84,132l4,0 0,4 -4,0 0,-4z M88,132l4,0 0,4 -4,0 0,-4z M92,132l4,0 0,4 -4,0 0,-4z M96,132l4,0 0,4 -4,0 0,-4z M100,132l4,0 0,4 -4,0 0,-4z M120,132l4,0 0,4 -4,0 0,-4z M124,132l4,0 0,4 -4,0 0,-4z M132,132l4,0 0,4 -4,0 0,-4z M140,132l4,0 0,4 -4,0 0,-4z M144,132l4,0 0,4 -4,0 0,-4z M156,132l4,0 0,4 -4,0 0,-4z M164,132l4,0 0,4 -4,0 0,-4z M172,132l4,0 0,4 -4,0 0,-4z M0,136l4,0 0,4 -4,0 0,-4z M4,136l4,0 0,4 -4,0 0,-4z M12,136l4,0 0,4 -4,0 0,-4z M24,136l4,0 0,4 -4,0 0,-4z M28,136l4,0 0,4 -4,0 0,-4z M36,136l4,0 0,4 -4,0 0,-4z M48,136l4,0 0,4 -4,0 0,-4z M52,136l4,0 0,4 -4,0 0,-4z M56,136l4,0 0,4 -4,0 0,-4z M60,136l4,0 0,4 -4,0 0,-4z M64,136l4,0 0,4 -4,0 0,-4z M72,136l4,0 0,4 -4,0 0,-4z M76,136l4,0 0,4 -4,0 0,-4z M80,136l4,0 0,4 -4,0 0,-4z M84,136l4,0 0,4 -4,0 0,-4z M100,136l4,0 0,4 -4,0 0,-4z M108,136l4,0 0,4 -4,0 0,-4z M116,136l4,0 0,4 -4,0 0,-4z M120,136l4,0 0,4 -4,0 0,-4z M144,136l4,0 0,4 -4,0 0,-4z M148,136l4,0 0,4 -4,0 0,-4z M156,136l4,0 0,4 -4,0 0,-4z M160,136l4,0 0,4 -4,0 0,-4z M168,136l4,0 0,4 -4,0 0,-4z M180,136l4,0 0,4 -4,0 0,-4z M188,136l4,0 0,4 -4,0 0,-4z M192,136l4,0 0,4 -4,0 0,-4z M8,140l4,0 0,4 -4,0 0,-4z M12,140l4,0 0,4 -4,0 0,-4z M16,140l4,0 0,4 -4,0 0,-4z M32,140l4,0 0,4 -4,0 0,-4z M36,140l4,0 0,4 -4,0 0,-4z M40,140l4,0 0,4 -4,0 0,-4z M52,140l4,0 0,4 -4,0 0,-4z M60,140l4,0 0,4 -4,0 0,-4z M64,140l4,0 0,4 -4,0 0,-4z M68,140l4,0 0,4 -4,0 0,-4z M72,140l4,0 0,4 -4,0 0,-4z M76,140l4,0 0,4 -4,0 0,-4z M80,140l4,0 0,4 -4,0 0,-4z M88,140l4,0 0,4 -4,0 0,-4z M92,140l4,0 0,4 -4,0 0,-4z M104,140l4,0 0,4 -4,0 0,-4z M112,140l4,0 0,4 -4,0 0,-4z M116,140l4,0 0,4 -4,0 0,-4z M128,140l4,0 0,4 -4,0 0,-4z M132,140l4,0 0,4 -4,0 0,-4z M148,140l4,0 0,4 -4,0 0,-4z M152,140l4,0 0,4 -4,0 0,-4z M160,140l4,0 0,4 -4,0 0,-4z M172,140l4,0 0,4 -4,0 0,-4z M192,140l4,0 0,4 -4,0 0,-4z M4,144l4,0 0,4 -4,0 0,-4z M8,144l4,0 0,4 -4,0 0,-4z M12,144l4,0 0,4 -4,0 0,-4z M24,144l4,0 0,4 -4,0 0,-4z M32,144l4,0 0,4 -4,0 0,-4z M36,144l4,0 0,4 -4,0 0,-4z M44,144l4,0 0,4 -4,0 0,-4z M52,144l4,0 0,4 -4,0 0,-4z M60,144l4,0 0,4 -4,0 0,-4z M64,144l4,0 0,4 -4,0 0,-4z M72,144l4,0 0,4 -4,0 0,-4z M80,144l4,0 0,4 -4,0 0,-4z M88,144l4,0 0,4 -4,0 0,-4z M92,144l4,0 0,4 -4,0 0,-4z M104,144l4,0 0,4 -4,0 0,-4z M116,144l4,0 0,4 -4,0 0,-4z M124,144l4,0 0,4 -4,0 0,-4z M132,144l4,0 0,4 -4,0 0,-4z M136,144l4,0 0,4 -4,0 0,-4z M140,144l4,0 0,4 -4,0 0,-4z M144,144l4,0 0,4 -4,0 0,-4z M152,144l4,0 0,4 -4,0 0,-4z M156,144l4,0 0,4 -4,0 0,-4z M160,144l4,0 0,4 -4,0 0,-4z M164,144l4,0 0,4 -4,0 0,-4z M168,144l4,0 0,4 -4,0 0,-4z M176,144l4,0 0,4 -4,0 0,-4z M184,144l4,0 0,4 -4,0 0,-4z M192,144l4,0 0,4 -4,0 0,-4z M4,148l4,0 0,4 -4,0 0,-4z M12,148l4,0 0,4 -4,0 0,-4z M16,148l4,0 0,4 -4,0 0,-4z M20,148l4,0 0,4 -4,0 0,-4z M28,148l4,0 0,4 -4,0 0,-4z M40,148l4,0 0,4 -4,0 0,-4z M44,148l4,0 0,4 -4,0 0,-4z M48,148l4,0 0,4 -4,0 0,-4z M60,148l4,0 0,4 -4,0 0,-4z M64,148l4,0 0,4 -4,0 0,-4z M72,148l4,0 0,4 -4,0 0,-4z M76,148l4,0 0,4 -4,0 0,-4z M84,148l4,0 0,4 -4,0 0,-4z M88,148l4,0 0,4 -4,0 0,-4z M92,148l4,0 0,4 -4,0 0,-4z M96,148l4,0 0,4 -4,0 0,-4z M100,148l4,0 0,4 -4,0 0,-4z M112,148l4,0 0,4 -4,0 0,-4z M116,148l4,0 0,4 -4,0 0,-4z M120,148l4,0 0,4 -4,0 0,-4z M124,148l4,0 0,4 -4,0 0,-4z M140,148l4,0 0,4 -4,0 0,-4z M148,148l4,0 0,4 -4,0 0,-4z M160,148l4,0 0,4 -4,0 0,-4z M172,148l4,0 0,4 -4,0 0,-4z M180,148l4,0 0,4 -4,0 0,-4z M4,152l4,0 0,4 -4,0 0,-4z M20,152l4,0 0,4 -4,0 0,-4z M24,152l4,0 0,4 -4,0 0,-4z M28,152l4,0 0,4 -4,0 0,-4z M32,152l4,0 0,4 -4,0 0,-4z M40,152l4,0 0,4 -4,0 0,-4z M48,152l4,0 0,4 -4,0 0,-4z M76,152l4,0 0,4 -4,0 0,-4z M88,152l4,0 0,4 -4,0 0,-4z M108,152l4,0 0,4 -4,0 0,-4z M128,152l4,0 0,4 -4,0 0,-4z M136,152l4,0 0,4 -4,0 0,-4z M144,152l4,0 0,4 -4,0 0,-4z M152,152l4,0 0,4 -4,0 0,-4z M160,152l4,0 0,4 -4,0 0,-4z M164,152l4,0 0,4 -4,0 0,-4z M168,152l4,0 0,4 -4,0 0,-4z M180,152l4,0 0,4 -4,0 0,-4z M192,152l4,0 0,4 -4,0 0,-4z M4,156l4,0 0,4 -4,0 0,-4z M8,156l4,0 0,4 -4,0 0,-4z M12,156l4,0 0,4 -4,0 0,-4z M28,156l4,0 0,4 -4,0 0,-4z M36,156l4,0 0,4 -4,0 0,-4z M40,156l4,0 0,4 -4,0 0,-4z M52,156l4,0 0,4 -4,0 0,-4z M68,156l4,0 0,4 -4,0 0,-4z M72,156l4,0 0,4 -4,0 0,-4z M84,156l4,0 0,4 -4,0 0,-4z M92,156l4,0 0,4 -4,0 0,-4z M96,156l4,0 0,4 -4,0 0,-4z M104,156l4,0 0,4 -4,0 0,-4z M112,156l4,0 0,4 -4,0 0,-4z M120,156l4,0 0,4 -4,0 0,-4z M128,156l4,0 0,4 -4,0 0,-4z M136,156l4,0 0,4 -4,0 0,-4z M160,156l4,0 0,4 -4,0 0,-4z M172,156l4,0 0,4 -4,0 0,-4z M176,156l4,0 0,4 -4,0 0,-4z M188,156l4,0 0,4 -4,0 0,-4z M0,160l4,0 0,4 -4,0 0,-4z M4,160l4,0 0,4 -4,0 0,-4z M8,160l4,0 0,4 -4,0 0,-4z M24,160l4,0 0,4 -4,0 0,-4z M28,160l4,0 0,4 -4,0 0,-4z M32,160l4,0 0,4 -4,0 0,-4z M36,160l4,0 0,4 -4,0 0,-4z M68,160l4,0 0,4 -4,0 0,-4z M72,160l4,0 0,4 -4,0 0,-4z M76,160l4,0 0,4 -4,0 0,-4z M80,160l4,0 0,4 -4,0 0,-4z M88,160l4,0 0,4 -4,0 0,-4z M92,160l4,0 0,4 -4,0 0,-4z M96,160l4,0 0,4 -4,0 0,-4z M100,160l4,0 0,4 -4,0 0,-4z M104,160l4,0 0,4 -4,0 0,-4z M120,160l4,0 0,4 -4,0 0,-4z M124,160l4,0 0,4 -4,0 0,-4z M140,160l4,0 0,4 -4,0 0,-4z M144,160l4,0 0,4 -4,0 0,-4z M148,160l4,0 0,4 -4,0 0,-4z M152,160l4,0 0,4 -4,0 0,-4z M156,160l4,0 0,4 -4,0 0,-4z M160,160l4,0 0,4 -4,0 0,-4z M164,160l4,0 0,4 -4,0 0,-4z M168,160l4,0 0,4 -4,0 0,-4z M172,160l4,0 0,4 -4,0 0,-4z M176,160l4,0 0,4 -4,0 0,-4z M180,160l4,0 0,4 -4,0 0,-4z M184,160l4,0 0,4 -4,0 0,-4z M192,160l4,0 0,4 -4,0 0,-4z M32,164l4,0 0,4 -4,0 0,-4z M36,164l4,0 0,4 -4,0 0,-4z M44,164l4,0 0,4 -4,0 0,-4z M52,164l4,0 0,4 -4,0 0,-4z M64,164l4,0 0,4 -4,0 0,-4z M76,164l4,0 0,4 -4,0 0,-4z M84,164l4,0 0,4 -4,0 0,-4z M88,164l4,0 0,4 -4,0 0,-4z M104,164l4,0 0,4 -4,0 0,-4z M108,164l4,0 0,4 -4,0 0,-4z M116,164l4,0 0,4 -4,0 0,-4z M120,164l4,0 0,4 -4,0 0,-4z M124,164l4,0 0,4 -4,0 0,-4z M144,164l4,0 0,4 -4,0 0,-4z M148,164l4,0 0,4 -4,0 0,-4z M160,164l4,0 0,4 -4,0 0,-4z M176,164l4,0 0,4 -4,0 0,-4z M180,164l4,0 0,4 -4,0 0,-4z M0,168l4,0 0,4 -4,0 0,-4z M4,168l4,0 0,4 -4,0 0,-4z M8,168l4,0 0,4 -4,0 0,-4z M12,168l4,0 0,4 -4,0 0,-4z M16,168l4,0 0,4 -4,0 0,-4z M20,168l4,0 0,4 -4,0 0,-4z M24,168l4,0 0,4 -4,0 0,-4z M44,168l4,0 0,4 -4,0 0,-4z M56,168l4,0 0,4 -4,0 0,-4z M60,168l4,0 0,4 -4,0 0,-4z M64,168l4,0 0,4 -4,0 0,-4z M68,168l4,0 0,4 -4,0 0,-4z M72,168l4,0 0,4 -4,0 0,-4z M76,168l4,0 0,4 -4,0 0,-4z M88,168l4,0 0,4 -4,0 0,-4z M96,168l4,0 0,4 -4,0 0,-4z M104,168l4,0 0,4 -4,0 0,-4z M108,168l4,0 0,4 -4,0 0,-4z M116,168l4,0 0,4 -4,0 0,-4z M128,168l4,0 0,4 -4,0 0,-4z M132,168l4,0 0,4 -4,0 0,-4z M136,168l4,0 0,4 -4,0 0,-4z M144,168l4,0 0,4 -4,0 0,-4z M148,168l4,0 0,4 -4,0 0,-4z M152,168l4,0 0,4 -4,0 0,-4z M160,168l4,0 0,4 -4,0 0,-4z M168,168l4,0 0,4 -4,0 0,-4z M176,168l4,0 0,4 -4,0 0,-4z M184,168l4,0 0,4 -4,0 0,-4z M188,168l4,0 0,4 -4,0 0,-4z M192,168l4,0 0,4 -4,0 0,-4z M0,172l4,0 0,4 -4,0 0,-4z M24,172l4,0 0,4 -4,0 0,-4z M32,172l4,0 0,4 -4,0 0,-4z M36,172l4,0 0,4 -4,0 0,-4z M40,172l4,0 0,4 -4,0 0,-4z M48,172l4,0 0,4 -4,0 0,-4z M52,172l4,0 0,4 -4,0 0,-4z M80,172l4,0 0,4 -4,0 0,-4z M84,172l4,0 0,4 -4,0 0,-4z M88,172l4,0 0,4 -4,0 0,-4z M104,172l4,0 0,4 -4,0 0,-4z M112,172l4,0 0,4 -4,0 0,-4z M116,172l4,0 0,4 -4,0 0,-4z M124,172l4,0 0,4 -4,0 0,-4z M128,172l4,0 0,4 -4,0 0,-4z M132,172l4,0 0,4 -4,0 0,-4z M136,172l4,0 0,4 -4,0 0,-4z M148,172l4,0 0,4 -4,0 0,-4z M152,172l4,0 0,4 -4,0 0,-4z M160,172l4,0 0,4 -4,0 0,-4z M176,172l4,0 0,4 -4,0 0,-4z M188,172l4,0 0,4 -4,0 0,-4z M192,172l4,0 0,4 -4,0 0,-4z M0,176l4,0 0,4 -4,0 0,-4z M8,176l4,0 0,4 -4,0 0,-4z M12,176l4,0 0,4 -4,0 0,-4z M16,176l4,0 0,4 -4,0 0,-4z M24,176l4,0 0,4 -4,0 0,-4z M32,176l4,0 0,4 -4,0 0,-4z M48,176l4,0 0,4 -4,0 0,-4z M52,176l4,0 0,4 -4,0 0,-4z M68,176l4,0 0,4 -4,0 0,-4z M72,176l4,0 0,4 -4,0 0,-4z M88,176l4,0 0,4 -4,0 0,-4z M92,176l4,0 0,4 -4,0 0,-4z M96,176l4,0 0,4 -4,0 0,-4z M100,176l4,0 0,4 -4,0 0,-4z M104,176l4,0 0,4 -4,0 0,-4z M124,176l4,0 0,4 -4,0 0,-4z M132,176l4,0 0,4 -4,0 0,-4z M140,176l4,0 0,4 -4,0 0,-4z M144,176l4,0 0,4 -4,0 0,-4z M148,176l4,0 0,4 -4,0 0,-4z M152,176l4,0 0,4 -4,0 0,-4z M160,176l4,0 0,4 -4,0 0,-4z M164,176l4,0 0,4 -4,0 0,-4z M168,176l4,0 0,4 -4,0 0,-4z M172,176l4,0 0,4 -4,0 0,-4z M176,176l4,0 0,4 -4,0 0,-4z M184,176l4,0 0,4 -4,0 0,-4z M0,180l4,0 0,4 -4,0 0,-4z M8,180l4,0 0,4 -4,0 0,-4z M12,180l4,0 0,4 -4,0 0,-4z M16,180l4,0 0,4 -4,0 0,-4z M24,180l4,0 0,4 -4,0 0,-4z M32,180l4,0 0,4 -4,0 0,-4z M40,180l4,0 0,4 -4,0 0,-4z M44,180l4,0 0,4 -4,0 0,-4z M68,180l4,0 0,4 -4,0 0,-4z M72,180l4,0 0,4 -4,0 0,-4z M76,180l4,0 0,4 -4,0 0,-4z M80,180l4,0 0,4 -4,0 0,-4z M84,180l4,0 0,4 -4,0 0,-4z M88,180l4,0 0,4 -4,0 0,-4z M108,180l4,0 0,4 -4,0 0,-4z M112,180l4,0 0,4 -4,0 0,-4z M116,180l4,0 0,4 -4,0 0,-4z M120,180l4,0 0,4 -4,0 0,-4z M124,180l4,0 0,4 -4,0 0,-4z M140,180l4,0 0,4 -4,0 0,-4z M148,180l4,0 0,4 -4,0 0,-4z M160,180l4,0 0,4 -4,0 0,-4z M164,180l4,0 0,4 -4,0 0,-4z M172,180l4,0 0,4 -4,0 0,-4z M176,180l4,0 0,4 -4,0 0,-4z M184,180l4,0 0,4 -4,0 0,-4z M188,180l4,0 0,4 -4,0 0,-4z M0,184l4,0 0,4 -4,0 0,-4z M8,184l4,0 0,4 -4,0 0,-4z M12,184l4,0 0,4 -4,0 0,-4z M16,184l4,0 0,4 -4,0 0,-4z M24,184l4,0 0,4 -4,0 0,-4z M32,184l4,0 0,4 -4,0 0,-4z M56,184l4,0 0,4 -4,0 0,-4z M60,184l4,0 0,4 -4,0 0,-4z M64,184l4,0 0,4 -4,0 0,-4z M72,184l4,0 0,4 -4,0 0,-4z M80,184l4,0 0,4 -4,0 0,-4z M84,184l4,0 0,4 -4,0 0,-4z M88,184l4,0 0,4 -4,0 0,-4z M92,184l4,0 0,4 -4,0 0,-4z M96,184l4,0 0,4 -4,0 0,-4z M100,184l4,0 0,4 -4,0 0,-4z M112,184l4,0 0,4 -4,0 0,-4z M116,184l4,0 0,4 -4,0 0,-4z M124,184l4,0 0,4 -4,0 0,-4z M132,184l4,0 0,4 -4,0 0,-4z M136,184l4,0 0,4 -4,0 0,-4z M140,184l4,0 0,4 -4,0 0,-4z M144,184l4,0 0,4 -4,0 0,-4z M152,184l4,0 0,4 -4,0 0,-4z M164,184l4,0 0,4 -4,0 0,-4z M172,184l4,0 0,4 -4,0 0,-4z M184,184l4,0 0,4 -4,0 0,-4z M188,184l4,0 0,4 -4,0 0,-4z M192,184l4,0 0,4 -4,0 0,-4z M0,188l4,0 0,4 -4,0 0,-4z M24,188l4,0 0,4 -4,0 0,-4z M48,188l4,0 0,4 -4,0 0,-4z M60,188l4,0 0,4 -4,0 0,-4z M64,188l4,0 0,4 -4,0 0,-4z M72,188l4,0 0,4 -4,0 0,-4z M76,188l4,0 0,4 -4,0 0,-4z M80,188l4,0 0,4 -4,0 0,-4z M84,188l4,0 0,4 -4,0 0,-4z M108,188l4,0 0,4 -4,0 0,-4z M116,188l4,0 0,4 -4,0 0,-4z M136,188l4,0 0,4 -4,0 0,-4z M144,188l4,0 0,4 -4,0 0,-4z M148,188l4,0 0,4 -4,0 0,-4z M152,188l4,0 0,4 -4,0 0,-4z M164,188l4,0 0,4 -4,0 0,-4z M168,188l4,0 0,4 -4,0 0,-4z M180,188l4,0 0,4 -4,0 0,-4z M192,188l4,0 0,4 -4,0 0,-4z M0,192l4,0 0,4 -4,0 0,-4z M4,192l4,0 0,4 -4,0 0,-4z M8,192l4,0 0,4 -4,0 0,-4z M12,192l4,0 0,4 -4,0 0,-4z M16,192l4,0 0,4 -4,0 0,-4z M20,192l4,0 0,4 -4,0 0,-4z M24,192l4,0 0,4 -4,0 0,-4z M32,192l4,0 0,4 -4,0 0,-4z M36,192l4,0 0,4 -4,0 0,-4z M40,192l4,0 0,4 -4,0 0,-4z M52,192l4,0 0,4 -4,0 0,-4z M56,192l4,0 0,4 -4,0 0,-4z M68,192l4,0 0,4 -4,0 0,-4z M72,192l4,0 0,4 -4,0 0,-4z M80,192l4,0 0,4 -4,0 0,-4z M84,192l4,0 0,4 -4,0 0,-4z M92,192l4,0 0,4 -4,0 0,-4z M100,192l4,0 0,4 -4,0 0,-4z M112,192l4,0 0,4 -4,0 0,-4z M124,192l4,0 0,4 -4,0 0,-4z M128,192l4,0 0,4 -4,0 0,-4z M132,192l4,0 0,4 -4,0 0,-4z M136,192l4,0 0,4 -4,0 0,-4z M140,192l4,0 0,4 -4,0 0,-4z M152,192l4,0 0,4 -4,0 0,-4z M156,192l4,0 0,4 -4,0 0,-4z M160,192l4,0 0,4 -4,0 0,-4z M180,192l4,0 0,4 -4,0 0,-4z M184,192l4,0 0,4 -4,0 0,-4z M188,192l4,0 0,4 -4,0 0,-4z M192,192l4,0 0,4 -4,0 0,-4z " stroke="transparent" fill="black"/></svg>